<svg width="181" height="146" viewBox="0 0 181 146" fill="none" xmlns="http://www.w3.org/2000/svg">
<path d="M37.5965 101.386C37.1546 101.386 36.7965 101.744 36.7965 102.186V105.244C36.7965 106.002 35.8061 106.362 35.269 105.828C31.8165 102.393 27.1603 100.375 21.6828 100.375C9.5243 100.375 0.489868 110.066 0.489868 122.875C0.489868 135.684 9.5243 145.375 21.6828 145.375C27.1603 145.375 31.8165 143.357 35.269 139.922C35.8061 139.388 36.7965 139.748 36.7965 140.506V143.564C36.7965 144.006 37.1546 144.364 37.5965 144.364H45.4531C45.8949 144.364 46.2531 144.006 46.2531 143.564V102.186C46.2531 101.744 45.8949 101.386 45.4531 101.386H37.5965ZM23.5403 136.274C15.8568 136.274 10.1998 130.459 10.1998 122.875C10.1998 115.291 15.8568 109.476 23.5403 109.476C31.1394 109.476 36.7965 115.291 36.7965 122.875C36.7965 130.459 31.1394 136.274 23.5403 136.274Z" fill="white"/>
<path d="M76.7746 145.375C88.6798 145.375 96.6166 138.212 96.6166 127.257V102.186C96.6166 101.744 96.2584 101.386 95.8166 101.386H87.96C87.5182 101.386 87.16 101.744 87.16 102.186V125.993C87.16 132.145 83.0227 136.274 76.7746 136.274C70.5265 136.274 66.3048 132.145 66.3048 125.993V102.186C66.3048 101.744 65.9466 101.386 65.5048 101.386H57.6482C57.2064 101.386 56.8482 101.744 56.8482 102.186V127.257C56.8482 138.212 64.785 145.375 76.7746 145.375Z" fill="white"/>
<path d="M129.961 100.712C125.167 100.712 121.162 102.588 118.099 105.826C117.568 106.388 116.536 106.033 116.536 105.26V102.186C116.536 101.744 116.178 101.386 115.736 101.386H107.879C107.437 101.386 107.079 101.744 107.079 102.186V143.564C107.079 144.006 107.437 144.364 107.879 144.364H115.736C116.178 144.364 116.536 144.006 116.536 143.564V123.465C116.536 115.544 121.517 110.403 129.961 110.403H130.765C131.207 110.403 131.565 110.045 131.565 109.603V101.512C131.565 101.07 131.207 100.712 130.765 100.712H129.961Z" fill="white"/>
<path d="M171.833 101.386C171.391 101.386 171.033 101.744 171.033 102.186V105.244C171.033 106.002 170.043 106.362 169.506 105.828C166.053 102.393 161.397 100.375 155.92 100.375C143.761 100.375 134.727 110.066 134.727 122.875C134.727 135.684 143.761 145.375 155.92 145.375C161.397 145.375 166.053 143.357 169.506 139.922C170.043 139.388 171.033 139.748 171.033 140.506V143.564C171.033 144.006 171.391 144.364 171.833 144.364H179.69C180.132 144.364 180.49 144.006 180.49 143.564V102.186C180.49 101.744 180.132 101.386 179.69 101.386H171.833ZM157.777 136.274C150.094 136.274 144.437 130.459 144.437 122.875C144.437 115.291 150.094 109.476 157.777 109.476C165.376 109.476 171.033 115.291 171.033 122.875C171.033 130.459 165.376 136.274 157.777 136.274Z" fill="white"/>
<path fill-rule="evenodd" clip-rule="evenodd" d="M179.001 90.5114C180.106 90.5114 181.003 89.6158 180.979 88.5115C180.731 77.3067 178.405 66.2393 174.111 55.8742C169.563 44.8928 162.896 34.9149 154.491 26.5102C146.086 18.1054 136.108 11.4384 125.127 6.88977C114.146 2.34114 102.376 0 90.4898 0C78.6036 0 66.8339 2.34115 55.8526 6.88977C44.8712 11.4384 34.8933 18.1054 26.4886 26.5102C18.0838 34.9149 11.4168 44.8928 6.86816 55.8742C2.5748 66.2393 0.248108 77.3067 0.000486077 88.5115C-0.0239186 89.6158 0.873821 90.5114 1.97839 90.5114L9.18295 90.5114C9.18295 79.834 11.286 69.2612 15.3721 59.3966C19.4581 49.532 25.4471 40.5688 32.9972 33.0188C40.5472 25.4687 49.5104 19.4797 59.375 15.3937C69.2396 11.3076 79.8124 9.20454 90.4898 9.20454C101.167 9.20454 111.74 11.3076 121.605 15.3937C131.469 19.4797 140.432 25.4687 147.982 33.0188C155.532 40.5688 161.521 49.532 165.607 59.3966C169.694 69.2612 171.797 79.834 171.797 90.5114L179.001 90.5114ZM168.957 90.5114L101.69 90.5114C101.625 88.7436 101.14 86.9653 100.194 85.3266C99.3827 83.922 98.3135 82.7593 97.0807 81.8639L111.525 35.2111L88.9034 79.8326C87.5262 80.0287 86.1627 80.4863 84.8842 81.2245C81.4218 83.2235 79.4296 86.791 79.287 90.5114H12.0223C12.0223 80.2069 14.0519 70.0033 17.9953 60.4832C21.9386 50.9631 27.7185 42.3129 35.0049 35.0265C42.2913 27.7401 50.9415 21.9602 60.4616 18.0169C69.9817 14.0735 80.1853 12.0439 90.4898 12.0439C100.794 12.0439 110.998 14.0735 120.518 18.0169C130.038 21.9602 138.688 27.7401 145.975 35.0265C153.261 42.3129 159.041 50.963 162.984 60.4832C166.928 70.0033 168.957 80.2069 168.957 90.5114Z" fill="url(#paint0_radial_50_36)"/>
<defs>
<radialGradient id="paint0_radial_50_36" cx="0" cy="0" r="1" gradientUnits="userSpaceOnUse" gradientTransform="translate(5 69.5) rotate(0.335057) scale(171.003 341.899)">
<stop stop-color="#00FFD1"/>
<stop offset="0.0001" stop-color="#44FF40"/>
<stop offset="0.382562" stop-color="#FF9D66"/>
<stop offset="0.661458" stop-color="#FF38BB"/>
<stop offset="1" stop-color="#8F00FF"/>
</radialGradient>
</defs>
</svg>
