<svg width="289" height="159" viewBox="0 0 289 159" fill="none" xmlns="http://www.w3.org/2000/svg">
<g clip-path="url(#clip0_100_121)">
<path d="M35.3587 138.226C31.3615 142.067 26.44 144.068 20.5982 144.068C14.7565 144.068 9.83897 142.067 5.84177 138.226C1.84456 134.381 0 129.463 0 123.93C0 118.24 1.9966 113.475 5.84177 109.633C9.83897 105.788 14.7565 103.792 20.5982 103.792C26.44 103.792 31.3615 105.788 35.3587 109.633C39.3559 113.475 41.2005 118.396 41.2005 123.93C41.3525 129.615 39.3559 134.381 35.3587 138.226ZM11.6835 133.152C13.9882 135.613 16.9091 136.69 20.5982 136.69C24.1353 136.69 27.2082 135.457 29.5169 133.152C31.8216 130.692 33.05 127.619 33.05 123.93C33.05 120.085 31.8216 117.012 29.5169 114.703C27.2082 112.246 24.2873 111.17 20.5982 111.17C17.0652 111.17 13.9882 112.398 11.6835 114.703C9.37883 117.164 8.14646 120.241 8.14646 123.93C8.30251 127.771 9.37883 130.848 11.6835 133.152ZM73.1741 103.792C78.3997 103.792 83.0131 105.636 86.7022 109.325C90.3913 113.014 92.2359 117.78 92.2359 123.93C92.2359 129.923 90.3913 134.845 86.7022 138.686C83.0131 142.531 78.7078 144.376 73.7903 144.376C68.8688 144.376 64.4115 142.223 60.4143 137.918V158.208H52.1157V104.252H60.4143V111.17C63.6432 106.248 67.9485 103.792 73.1741 103.792ZM60.2622 124.082C60.2622 127.771 61.3385 130.848 63.6432 133.304C65.9479 135.765 68.7168 136.842 71.9457 136.842C73.5203 136.85 75.0804 136.541 76.533 135.933C77.9855 135.326 79.3008 134.432 80.4003 133.304C82.861 131 84.0894 127.927 84.0894 124.082C84.0894 120.241 82.861 117.164 80.5523 114.703C79.4814 113.528 78.1749 112.593 76.7182 111.957C75.2615 111.322 73.6871 111 72.0978 111.014C68.8688 111.014 65.9479 112.246 63.7993 114.703C61.3385 117.164 60.2622 120.241 60.2622 124.082ZM141.123 127.619H110.377C110.529 130.54 111.914 132.844 114.219 134.537C116.64 136.264 119.547 137.179 122.521 137.15C127.443 137.15 131.132 135.613 133.744 132.536L138.51 137.766C134.205 142.067 128.823 144.376 121.905 144.376C116.371 144.376 111.762 142.531 107.917 138.838C104.075 135.149 102.075 130.232 102.075 124.082C102.075 117.932 104.075 113.014 107.917 109.325C111.914 105.636 116.527 103.792 121.753 103.792C126.978 103.792 131.592 105.328 135.433 108.557C139.126 111.782 140.971 116.243 140.971 121.929V127.619H141.123ZM110.377 121.009H132.82C132.82 117.78 131.744 115.167 129.747 113.475C127.747 111.63 125.134 110.862 122.061 110.862C118.984 110.862 116.371 111.782 113.914 113.627C111.606 115.475 110.377 117.932 110.377 121.009ZM162.185 122.389V143.604H153.883V104.252H162.185V111.478C163.489 109.122 165.4 107.157 167.719 105.788C170 104.45 172.604 103.76 175.249 103.792C179.71 103.792 183.243 105.172 186.012 107.789C188.777 110.554 190.161 114.399 190.161 119.468V143.452H181.859V121.929C181.859 114.703 178.786 111.014 172.792 111.014C169.871 111.014 167.411 111.938 165.41 113.783C163.261 115.935 162.185 118.7 162.185 122.389Z" fill="white"/>
<path d="M236.435 143.604H228.901V138.378C225.672 142.223 221.371 144.22 215.833 144.22C211.684 144.22 208.303 142.991 205.69 140.687C203.073 138.378 201.693 135.305 201.693 131.46C201.693 127.619 203.073 124.698 205.994 122.853C208.915 121.009 212.76 119.932 217.526 119.932H228.285V118.396C228.285 113.166 225.364 110.554 219.522 110.554C215.833 110.554 212.144 111.938 208.147 114.551L204.458 109.325C209.223 105.48 214.605 103.636 220.755 103.636C225.364 103.636 229.209 104.868 232.13 107.173C235.051 109.477 236.588 113.166 236.588 118.24V143.604H236.435ZM228.133 129.003V125.618H218.91C212.912 125.618 209.991 127.463 209.991 131.152C209.991 132.996 210.76 134.537 212.144 135.613C213.681 136.69 215.681 137.15 218.294 137.15C220.907 137.15 223.215 136.381 225.212 134.997C227.057 133.461 228.133 131.46 228.133 129.003ZM266.413 144.22C261.491 144.22 257.186 142.375 253.497 138.534C249.808 134.689 247.963 129.771 247.963 123.774C247.963 117.78 249.808 112.858 253.497 109.169C257.186 105.48 261.799 103.636 267.025 103.636C272.254 103.636 276.556 106.096 279.785 111.014V104.096H288.087V157.596H279.785V137.302C275.787 142.067 271.33 144.22 266.413 144.22ZM256.113 124.082C256.113 127.771 257.342 130.848 259.803 133.304C262.259 135.613 265.028 136.842 268.257 136.842C271.486 136.842 274.251 135.613 276.556 133.304C278.864 130.848 279.941 127.927 279.941 124.082C279.941 120.393 278.864 117.164 276.556 114.703C274.251 112.246 271.486 111.014 268.257 111.014C265.028 111.014 262.107 112.246 259.803 114.703C257.342 117.164 256.113 120.241 256.113 124.082ZM52.2678 51.3677V43.8374C62.1068 43.8374 92.0839 43.9895 104.228 43.9895C130.668 43.9895 157.112 43.8374 183.551 43.8374C193.238 43.8374 201.385 37.8396 203.846 28.6168C205.382 22.9271 204.614 17.5495 200.617 12.9361C197.08 8.93889 192.774 7.25038 187.549 7.55447C182.475 8.01861 177.866 12.476 177.094 17.5495C176.633 21.5467 177.866 24.6196 181.247 26.7723C183.704 28.3087 186.472 28.4648 189.241 27.2324C190.162 26.7723 190.93 26.1561 191.546 25.2358C192.622 23.3913 194.775 22.7751 196.463 23.8514C198.308 24.7717 198.924 26.9243 198.004 28.9249C196.619 31.6898 194.315 33.3823 191.546 34.4586C182.015 38.1477 171.252 31.9979 169.715 21.8508C168.639 14.4726 172.328 6.6342 178.938 2.78903C184.32 -0.439942 190.162 -0.744034 195.851 1.25257C204.306 4.17345 209.687 10.1713 211.532 18.9299C212.76 25.2358 211.532 31.2296 208.455 36.7633C203.998 44.7577 197.08 49.3711 188.009 50.9076C186.472 51.2157 184.936 51.2157 183.399 51.2157C167.719 51.3677 70.2533 51.3677 52.2678 51.3677Z" fill="#198CFF"/>
<path d="M114.375 36.6873H74.7906V30.3854H143.427C148.409 30.3854 151.554 28.1648 152.762 23.7234C153.462 20.9386 152.562 16.8693 150.702 14.6087C149.237 12.9041 146.348 11.9399 143.491 12.0879C141.323 12.2079 139.134 14.3566 138.882 16.6373C138.638 18.3458 139.21 19.6022 140.607 20.5385C141.719 21.1546 142.875 21.2467 143.988 20.7585C145.284 20.3264 146.608 20.3264 147.673 21.3947C149.413 23.3553 148.365 25.9801 145.992 26.9284C140.054 29.1971 133.316 25.3399 132.452 19.106C131.768 14.6767 134.105 9.90323 138.086 7.4825C141.143 5.70997 146.172 5.51391 149.941 6.77029C154.647 8.33876 158.044 12.9121 159.312 18.5218C160.108 22.0309 159.432 25.672 157.496 29.1891C154.995 33.5664 151.698 35.619 146.116 36.6633C145.372 36.8154 144.74 36.8394 143.275 36.8394H117.448L117.259 36.8274C116.575 36.7113 115.919 36.6873 114.375 36.6873ZM227.629 67.7647C229.934 72.3781 229.805 76.9235 226.929 81.0807C224.252 84.9259 220.495 86.6784 215.749 86.3383C211.1 85.9942 207.247 82.2451 206.57 77.6277C206.481 77.2857 206.425 76.936 206.402 76.5834C206.382 76.3233 206.382 76.1273 206.382 75.6591L206.39 75.4951C206.505 74.704 206.902 73.9812 207.508 73.4598C208.114 72.9385 208.888 72.6538 209.687 72.6582C211.34 72.6582 212.744 73.8546 212.968 75.431C213.016 75.6791 213.044 75.8632 213.1 76.2753C213.133 76.7056 213.223 77.1295 213.369 77.5357C214.057 79.2482 215.897 80.1044 217.886 79.6083C220.687 78.9681 222.479 76.4313 222.219 73.4424C221.947 70.0574 219.354 67.1485 215.861 66.4763C215.604 66.4172 215.341 66.3837 215.077 66.3763C214.767 66.3592 214.456 66.3525 214.145 66.3563C205.754 66.3563 194.255 66.3763 164.798 66.4323C135.341 66.4923 123.841 66.5123 115.451 66.5123H114.299V59.4382H214.605C220.387 59.4382 224.864 62.4111 227.629 67.7647Z" fill="#198CFF"/>
</g>
<defs>
<clipPath id="clip0_100_121">
<rect width="288.087" height="158.208" fill="white"/>
</clipPath>
</defs>
</svg>
