<svg xmlns="http://www.w3.org/2000/svg" version="1.1" xmlns:xlink="http://www.w3.org/1999/xlink" xmlns:svgjs="http://svgjs.dev/svgjs" viewBox="0 0 800 800" opacity="0.57"><defs><linearGradient x1="50%" y1="0%" x2="50%" y2="100%" id="ccchaos-grad"><stop stop-color="hsl(30, 100%, 50%)" stop-opacity="1" offset="0%"></stop><stop stop-color="hsl(271, 100%, 50%)" stop-opacity="1" offset="100%"></stop></linearGradient></defs><g stroke-width="2" stroke="url(#ccchaos-grad)" fill="none" stroke-linecap="round"><path d="M361.92 36.35C370.1 35.91 385.99 36.89 393.71 38.3 401.35 40.27 416.25 45.82 423.54 49.34 433.32 54.51 442.99 60.47 452.66 67.07 462.68 73.74 472.95 80.82 483.65 88.15 494.99 95.19 507.07 102.3 520.05 109.38 533.95 115.92 548.97 122.36 565.16 128.66 582.28 134.33 600.48 139.9 619.57 145.4 639.04 150.35 658.82 155.34 678.39 160.44 697.13 165.16 714.61 170.14 730.09 175.42 743.18 180.54 753.15 186.1 759.43 192.12 762.28 198.14 761.04 204.71 755.7 211.82 747.52 219.03 736.25 226.8 722.72 235.1 708.97 243.52 695.24 252.44 682.86 261.8 673.83 271.27 668.44 281.13 667.6 291.31 669.24 296.43 672.16 301.61 676.35 306.86 681.87 312.12 688.56 317.43 696.33 322.8 705.12 328.17 714.71 333.58 724.93 339.03 735.64 344.48 746.57 349.97 757.49 355.49 768.25 361.01 778.42 366.5 787.78 371.94 796.36 377.39 803.78 382.81 809.9 388.19 816.49 396.27 819.84 412.31 816.56 420.31 807.17 431.04 792.62 441.83 774.09 452.72 753.01 463.85 730.48 475.25 707.87 487 686.38 499.16 666.93 511.83 650.24 525.09 636.9 538.9 626.95 553.4 620.27 568.61 617 584.36 616.29 600.78 617.5 617.75 620.74 635 624.65 652.52 628.56 670.03 632.86 687.23 636.15 703.88 638.03 719.57 639.19 734.08 638.49 746.93 635.88 757.69 632.16 766.41 626.58 772.48 619.31 775.6 611.07 776.3 601.44 773.97 590.69 768.67 579.31 761.46 567.14 751.93 554.42 740.56 541.4 728.8 528.07 716.48 514.62 704.37 507.86 698.91 501.09 693.77 494.34 689.05 487.58 684.99 480.83 681.5 474.12 678.65 467.41 676.66 460.73 675.4 454.1 674.93 447.46 675.4 440.87 676.69 434.33 678.8 427.78 681.82 421.35 685.57 415.04 689.96 408.72 695.11 402.51 700.75 396.4 706.8 390.27 713.34 384.24 720.1 378.29 726.97 372.32 734.05 366.43 741.04 360.6 747.84 348.84 761.1 337.29 772.51 325.88 781.49 314.23 788.36 302.64 792 291.06 792.29 279.19 789.83 267.27 784.08 255.29 775.34 243.06 764.3 230.79 750.92 218.53 735.72 206.17 719.26 193.93 701.81 181.93 683.87 170.08 665.75 158.67 647.79 147.83 630.3 137.45 613.39 127.83 597.27 119.1 582.06 111.02 567.74 103.9 554.35 97.8 541.83 92.31 530.15 87.73 519.18 84.05 508.78 80.66 499 77.93 489.56 75.75 480.31 73.47 471.43 71.51 462.53 69.78 453.49 67.64 444.62 65.6 435.47 63.67 425.98 61.95 418.83 58.52 404.01 56.83 396.33 55.08 388.52 51.92 372.34 50.59 363.97 49.38 355.52 47.84 338.46 47.57 329.87 47.63 321.29 49.02 304.15 50.39 295.62 52.76 284.35 56.14 273.21 60.5 262.32 65.33 251.6 71.04 241.19 77.52 231.2 84.22 221.45 91.45 212.19 99.06 203.48 106.49 195.06 114.04 187.24 121.6 180.07 128.63 173.15 135.53 166.88 142.26 161.25 148.34 155.77 154.28 150.85 160.15 146.46 165.47 142.02 170.88 137.96 176.45 134.23 181.76 130.19 187.42 126.31 193.51 122.51 199.59 118.17 206.23 113.79 213.45 109.32 220.83 104.2 228.83 98.96 237.4 93.61 246.2 87.67 255.54 81.71 265.32 75.82 275.3 69.6 285.65 63.65 296.26 58.11 301.61 55.34 307.01 52.73 312.45 50.29 320.65 46.81 337.16 41.12 345.42 39 350.94 37.82 356.44 36.93 361.92 36.35" stroke-dasharray="0 0" transform="rotate(0, 400, 400)" opacity="0.05"></path><path d="M359.93 42.78C367.91 42.31 383.55 43.25 391.21 44.63 401.41 47.18 411.4 50.86 421.26 55.54 431.26 60.67 441.26 66.59 451.39 73.17 461.87 79.83 472.71 86.91 484.06 94.26 496.02 101.34 508.76 108.51 522.39 115.66 536.84 122.3 552.35 128.84 568.9 135.25 586.19 141.04 604.37 146.73 623.21 152.32 642.19 157.37 661.22 162.43 679.77 167.56 697.29 172.3 713.34 177.24 727.24 182.46 738.7 187.47 747.05 192.87 751.78 198.7 753.28 204.48 750.92 210.78 744.79 217.58 736.16 224.45 724.81 231.85 711.57 239.76 698.39 247.77 685.47 256.28 674.06 265.24 666.01 274.27 661.54 283.72 661.44 293.52 666.59 303.36 676.51 313.52 690.78 323.92 699.43 329.12 708.81 334.39 718.77 339.7 729.2 345.02 739.82 350.38 750.42 355.8 760.88 361.21 770.76 366.61 779.88 371.98 788.27 377.36 795.56 382.73 801.61 388.08 810.19 398.8 812.83 409.5 809.5 420.22 801.04 431.04 787.54 441.98 770.08 453.09 750 464.44 728.26 476.1 706.19 488.13 684.91 500.56 665.31 513.51 648.14 527.03 633.97 541.04 622.96 555.7 615.05 570.99 610.41 586.74 608.34 603.04 608.28 619.77 610.35 636.67 613.32 653.69 616.54 670.57 620.4 687.02 623.53 702.8 625.54 717.51 627.06 731 626.96 742.78 625.13 752.45 622.36 760.14 617.82 765.23 611.64 767.49 604.57 767.48 596.09 764.61 586.42 758.97 576.14 751.61 564.97 742.12 553.14 730.98 540.99 719.58 528.42 707.74 515.59 696.16 502.66 686.28 489.62 677.99 476.57 671.9 470.04 670.06 463.52 668.92 457.02 668.53 450.52 669.04 444.03 670.32 437.57 672.37 431.11 675.31 424.74 678.92 418.46 683.15 412.19 688.1 405.99 693.53 399.89 699.34 387.63 712.35 375.66 725.82 363.93 738.99 352.07 751.94 340.36 763.2 328.76 772.21 316.96 779.3 305.18 783.36 293.4 784.25 281.38 782.55 269.31 777.69 257.2 769.92 244.89 759.89 232.58 747.54 220.32 733.31 208.02 717.77 195.9 701.13 184.06 683.85 172.45 666.27 161.31 648.69 150.79 631.42 140.76 614.59 131.51 598.41 123.17 583.03 115.48 568.42 108.75 554.66 103.03 541.73 97.88 529.58 93.64 518.13 90.25 507.26 87.13 497 84.64 487.12 82.67 477.49 80.58 468.25 78.76 459.05 77.16 449.8 75.12 440.74 73.15 431.48 71.25 421.96 68.82 412.5 66.48 402.69 64.3 392.52 62.47 384.84 59.11 369 57.66 360.84 56.32 352.62 54.53 336.09 54.15 327.8 54.01 316.77 54.81 305.76 56.57 294.85 58.84 284.04 62.14 273.41 66.43 263.04 71.22 252.83 76.91 242.95 83.36 233.5 90.07 224.27 97.32 215.52 104.97 207.33 112.45 199.38 120.09 192.03 127.75 185.3 134.9 178.78 141.93 172.86 148.79 167.56 155 162.34 161.06 157.65 167.01 153.45 172.4 149.14 177.82 145.17 183.35 141.49 188.56 137.47 194.06 133.56 199.92 129.72 205.72 125.32 212.01 120.86 218.83 116.3 225.76 111.1 233.27 105.77 241.32 100.34 249.56 94.34 258.33 88.32 267.55 82.38 276.94 76.13 286.73 70.15 296.81 64.59 307 59.08 317.42 54.25 327.97 50.23 335.92 47.58 351.91 43.81 359.92 42.78" stroke-dasharray="0 0" transform="rotate(3.346938775510204, 400, 400)" opacity="0.07"></path><path d="M359.04 49.2C369.48 48.53 379.77 49.14 389.91 50.96 400.09 53.47 410.18 57.09 420.26 61.72 430.47 66.8 440.82 72.69 451.39 79.22 462.3 85.87 473.66 92.94 485.59 100.3 498.09 107.41 511.38 114.63 525.54 121.86 540.41 128.59 556.23 135.23 572.97 141.75 590.26 147.67 608.24 153.47 626.65 159.18 644.98 164.34 663.12 169.48 680.53 174.67 696.75 179.45 711.33 184.4 723.63 189.57 733.51 194.51 740.29 199.79 743.57 205.47 743.83 211.05 740.48 217.11 733.67 223.66 724.72 230.21 713.39 237.29 700.51 244.86 687.95 252.5 675.87 260.63 665.43 269.21 658.34 277.85 654.75 286.92 655.37 296.36 660.98 305.83 671.07 315.64 685.23 325.75 702.97 335.86 722.83 346.24 743.35 356.87 763.31 367.5 780.39 378.14 793.33 388.77 801.98 399.43 805.01 410.15 802.36 420.94 794.79 431.84 782.32 442.92 765.92 454.22 746.84 465.75 725.95 477.63 704.47 489.91 683.48 502.54 663.84 515.7 646.3 529.41 631.44 543.54 619.48 558.27 610.43 573.56 604.49 589.2 601.09 605.3 599.76 621.71 600.61 638.16 602.55 654.62 604.99 670.8 608.25 686.45 611.07 701.33 613.03 715.04 614.74 727.49 615.05 738.21 613.83 746.82 610.02 755.6 593.27 756.81 580.93 749.2 571.7 741.74 561.51 732.33 550.56 721.43 539.29 710.41 527.49 699.05 515.32 688.01 503.02 678.66 490.5 670.85 477.86 665.16 465.21 662.58 452.49 662.8 439.77 665.95 427.05 672.43 414.6 681.28 402.43 691.9 390.21 704.42 378.21 717.41 366.39 730.17 354.46 742.8 342.64 753.89 330.88 762.9 318.96 770.17 307.04 774.6 295.1 776.05 282.97 775.06 270.8 771.04 258.61 764.2 246.29 755.18 233.99 743.83 221.79 730.59 209.61 715.99 197.66 700.19 186.05 683.63 174.71 666.65 163.9 649.52 153.73 632.57 144.08 615.9 135.24 599.76 127.32 584.3 120.04 569.49 113.71 555.46 108.37 542.19 103.58 529.64 99.66 517.76 96.57 506.48 93.72 495.78 91.45 485.49 89.68 475.51 87.76 465.9 86.08 456.41 84.59 446.95 82.63 437.69 80.71 428.31 78.82 418.75 76.39 409.25 74 399.5 71.74 389.45 69.08 379.42 66.71 369.06 64.73 358.4 62.69 347.74 61.34 337.03 60.74 326.35 60.46 315.7 61.12 305.12 62.75 294.68 64.92 284.32 68.13 274.17 72.33 264.31 77.07 254.59 82.7 245.22 89.13 236.29 95.82 227.55 103.08 219.3 110.75 211.59 118.3 204.1 126.01 197.17 133.77 190.85 141.04 184.69 148.21 179.1 155.21 174.08 161.58 169.1 167.77 164.61 173.84 160.55 179.32 156.35 184.8 152.45 190.33 148.78 195.5 144.75 200.9 140.81 206.6 136.9 212.17 132.44 218.18 127.89 224.67 123.23 231.2 117.95 238.27 112.53 245.87 107.01 253.6 100.95 261.85 94.88 270.57 88.89 279.41 82.62 288.67 76.62 298.27 71.04 307.95 65.54 317.91 60.7 328.07 56.68 338.26 53.11 348.59 50.57 359.03 49.2" stroke-dasharray="0 0" transform="rotate(6.693877551020408, 400, 400)" opacity="0.09"></path><path d="M359.29 55.62C369.52 54.94 379.7 55.51 389.84 57.29 400.01 59.75 410.22 63.32 420.51 67.88 430.95 72.91 441.61 78.74 452.59 85.23 463.91 91.85 475.72 98.9 488.15 106.26 501.09 113.4 514.81 120.67 529.35 127.95 544.49 134.77 560.47 141.51 577.22 148.14 594.34 154.19 611.95 160.12 629.77 165.95 647.31 171.23 664.43 176.47 680.62 181.74 695.48 186.58 708.55 191.55 719.28 196.72 730.26 204.22 731.86 220.75 722.41 230 713.24 236.3 702.02 243.09 689.58 250.36 677.69 257.66 666.47 265.45 656.98 273.7 650.83 281.98 648.09 290.7 649.38 299.81 655.4 308.94 665.64 318.44 679.68 328.27 697.05 338.1 716.38 348.25 736.28 358.7 755.66 369.15 772.3 379.66 785.04 390.24 793.76 400.85 797.15 411.57 795.13 422.43 788.41 433.4 776.94 444.59 761.59 456.05 743.53 467.73 723.51 479.78 702.68 492.25 682.08 505.03 662.5 518.33 644.71 532.14 629.28 546.32 616.47 561.03 606.38 576.22 599.23 591.67 594.55 607.48 591.96 623.48 591.58 639.42 592.44 655.24 593.99 670.66 596.54 685.48 598.9 699.42 600.65 712.13 602.37 723.56 602.92 733.23 602.14 740.82 599.31 748.21 585.19 747.44 574.28 739.38 566.05 731.85 556.8 722.55 546.72 711.94 536.31 701.3 525.28 690.42 513.77 679.92 502.13 671.08 490.16 663.75 477.96 658.44 465.74 656.11 453.36 656.43 440.87 659.52 428.38 665.79 416.08 674.29 403.96 684.49 391.82 696.52 379.82 709.04 367.94 721.38 355.98 733.68 344.08 744.58 332.21 753.56 320.21 760.98 308.19 765.74 296.15 767.69 283.97 767.37 271.76 764.15 259.55 758.2 247.27 750.15 235.05 739.8 222.97 727.54 210.98 713.88 199.26 698.95 187.92 683.16 176.92 666.84 166.46 650.24 156.69 633.67 147.46 617.27 139.05 601.25 131.56 585.81 124.7 570.9 118.79 556.67 113.84 543.15 109.4 530.27 105.81 518.04 103.01 506.4 100.41 495.3 98.36 484.64 96.78 474.33 95.01 464.38 93.45 454.62 92.05 444.95 90.16 435.48 88.28 425.97 86.4 416.36 83.94 406.82 81.51 397.1 79.17 387.17 76.42 377.25 73.92 367.08 71.8 356.68 69.61 346.28 68.11 335.89 67.35 325.58 66.92 315.29 67.44 305.12 68.94 295.12 71 285.2 74.1 275.51 78.21 266.14 82.87 256.89 88.44 248.01 94.81 239.57 101.48 231.3 108.73 223.51 116.41 216.26 124.01 209.18 131.79 202.65 139.64 196.7 147.04 190.86 154.35 185.56 161.5 180.79 168.03 176.02 174.39 171.68 180.59 167.75 186.21 163.62 191.77 159.75 197.36 156.09 202.53 152.03 207.88 148.04 213.48 144.05 218.89 139.5 224.68 134.86 230.9 130.1 237.1 124.72 243.81 119.22 251.01 113.62 258.29 107.5 266.09 101.38 274.35 95.35 282.7 89.06 291.48 83.05 300.64 77.47 309.86 71.97 319.39 67.14 329.19 63.12 339.01 59.55 349.05 57.01 359.28 55.63" stroke-dasharray="0 0" transform="rotate(10.040816326530612, 400, 400)" opacity="0.11"></path><path d="M360.66 62.05C370.71 61.35 380.81 61.88 390.96 63.61 401.15 66.02 411.47 69.53 421.96 74.02 432.61 78.99 443.57 84.76 454.91 91.19 466.56 97.77 478.76 104.8 491.58 112.15 504.86 119.31 518.89 126.61 533.67 133.94 548.92 140.85 564.9 147.69 581.49 154.42 598.28 160.6 615.37 166.67 632.44 172.62 649.07 178.03 665.07 183.39 679.95 188.75 693.42 193.68 704.99 198.7 714.17 203.89 722.97 211.36 721.26 227.59 711.01 236.58 701.73 242.66 690.72 249.21 678.78 256.22 667.59 263.23 657.25 270.72 648.71 278.67 643.47 286.63 641.54 295.03 643.47 303.84 649.87 312.66 660.22 321.88 674.12 331.46 691.12 341.03 709.91 350.97 729.21 361.25 748.02 371.53 764.22 381.93 776.75 392.45 785.51 403.01 789.23 413.73 787.8 424.64 781.91 435.66 771.41 446.94 757.1 458.52 740.05 470.3 720.94 482.48 700.82 495.07 680.67 507.95 661.26 521.31 643.33 535.15 627.44 549.29 613.91 563.9 602.89 578.9 594.6 594.08 588.7 609.51 584.89 625.02 583.27 640.38 583.01 655.51 583.61 670.13 585.34 684.07 587.12 697.07 588.52 708.77 589.25 732.02 576.2 737.94 566.59 729.5 559.27 721.95 550.91 712.8 541.65 702.48 532.08 692.24 521.81 681.85 510.97 671.87 499.99 663.54 488.58 656.67 476.85 651.74 465.08 649.65 453.06 650.06 440.84 653.1 428.61 659.15 416.49 667.31 404.47 677.1 392.44 688.65 380.48 700.7 368.59 712.62 356.63 724.58 344.7 735.27 332.77 744.2 320.74 751.72 308.68 756.77 296.6 759.18 284.43 759.48 272.24 757.01 260.07 751.92 247.9 744.81 235.82 735.43 223.92 724.14 212.18 711.44 200.74 697.41 189.73 682.42 179.1 666.81 169.05 650.8 159.7 634.69 150.92 618.63 142.97 602.83 135.93 587.48 129.51 572.56 124.01 558.23 119.44 544.55 115.37 531.42 112.1 518.9 109.57 506.97 107.22 495.52 105.38 484.54 103.96 473.93 102.32 463.68 100.88 453.65 99.55 443.78 97.71 434.12 95.85 424.47 93.97 414.81 91.49 405.22 89.01 395.52 86.58 385.69 83.74 375.87 81.13 365.87 78.87 355.71 76.54 345.55 74.89 335.47 73.98 325.51 73.41 315.57 73.79 305.78 75.15 296.21 77.09 286.7 80.07 277.46 84.07 268.55 88.63 259.74 94.12 251.32 100.42 243.35 107.05 235.51 114.28 228.15 121.95 221.32 129.59 214.63 137.43 208.46 145.36 202.83 152.89 197.29 160.33 192.24 167.64 187.69 174.35 183.08 180.88 178.88 187.24 175.02 193.02 170.94 198.71 167.09 204.39 163.4 209.62 159.3 214.97 155.23 220.53 151.15 225.83 146.51 231.47 141.77 237.49 136.9 243.43 131.43 249.83 125.84 256.71 120.16 263.61 113.98 271 107.82 278.86 101.76 286.78 95.45 295.14 89.44 303.9 83.86 312.7 78.37 321.86 73.55 331.34 69.55 340.83 65.99 350.61 63.45 360.66 62.05" stroke-dasharray="0 0" transform="rotate(13.387755102040815, 400, 400)" opacity="0.13"></path><path d="M363.13 68.47C373.03 67.75 383.05 68.25 393.22 69.93 403.43 72.29 413.86 75.73 424.54 80.15 435.37 85.05 446.58 90.74 458.22 97.11 470.14 103.65 482.64 110.64 495.75 117.96 509.25 125.13 523.45 132.46 538.31 139.84 553.54 146.82 569.36 153.75 585.62 160.59 601.93 166.89 618.35 173.09 634.56 179.17 650.16 184.72 664.96 190.21 678.5 195.68 690.55 200.71 700.63 205.81 708.31 211.04 715.05 218.53 710.38 234.57 699.52 243.36 690.24 249.27 679.52 255.61 668.14 262.4 657.69 269.17 648.22 276.4 640.63 284.07 636.26 291.75 635.11 299.87 637.63 308.42 644.38 316.96 654.82 325.92 668.56 335.27 685.18 344.61 703.44 354.34 722.15 364.47 740.38 374.59 756.15 384.89 768.45 395.35 777.24 405.85 781.26 416.56 780.4 427.5 775.28 438.54 765.73 449.89 752.44 461.55 736.41 473.39 718.22 485.64 698.86 498.29 679.24 511.19 660.08 524.55 642.11 538.34 625.89 552.36 611.76 566.79 599.91 581.53 590.59 596.35 583.56 611.33 578.56 626.28 575.73 641 574.33 655.39 573.92 669.16 574.76 682.22 575.84 694.25 576.77 704.95 577.42 725.37 566.46 728.32 557.98 719.59 551.48 712.05 543.93 703.08 535.45 693.08 526.67 683.25 517.13 673.34 506.95 663.88 496.62 656.05 485.78 649.62 474.53 645.05 463.23 643.19 451.59 643.7 439.67 646.67 427.74 652.52 415.83 660.35 403.95 669.72 392.06 680.8 380.19 692.39 368.33 703.89 356.43 715.5 344.51 725.96 332.57 734.82 320.57 742.41 308.53 747.71 296.47 750.54 284.37 751.4 272.27 749.64 260.22 745.36 248.22 739.15 236.35 730.73 224.69 720.39 213.25 708.65 202.15 695.52 191.52 681.37 181.3 666.52 171.69 651.15 162.81 635.57 154.5 619.92 147.02 604.42 140.44 589.26 134.46 574.42 129.38 560.08 125.21 546.31 121.48 533.01 118.52 520.28 116.26 508.12 114.14 496.39 112.49 485.13 111.22 474.27 109.71 463.74 108.35 453.49 107.08 443.44 105.28 433.58 103.43 423.82 101.53 414.09 99.02 404.45 96.48 394.77 93.98 385.02 91.05 375.29 88.32 365.45 85.93 355.52 83.48 345.58 81.69 335.78 80.64 326.15 79.92 316.53 80.16 307.11 81.38 297.95 83.18 288.83 86.03 280 89.91 271.53 94.36 263.14 99.75 255.15 105.96 247.61 112.53 240.18 119.72 233.22 127.37 226.77 135.03 220.42 142.92 214.57 150.91 209.24 158.56 203.94 166.14 199.11 173.6 194.73 180.49 190.27 187.21 186.15 193.76 182.35 199.71 178.3 205.57 174.43 211.37 170.69 216.7 166.53 222.11 162.38 227.67 158.2 232.94 153.45 238.48 148.6 244.36 143.62 250.11 138.07 256.28 132.39 262.89 126.63 269.47 120.4 276.53 114.2 284.06 108.11 291.6 101.8 299.59 95.79 308.01 90.21 316.44 84.75 325.28 79.96 334.48 75.96 343.67 72.42 353.23 69.89 363.12 68.47" stroke-dasharray="0 0" transform="rotate(16.73469387755102, 400, 400)" opacity="0.15"></path><path d="M366.62 74.9C376.38 74.16 386.36 74.63 396.54 76.25 406.78 78.55 417.3 81.92 428.13 86.26 439.11 91.08 450.51 96.7 462.38 102.99 474.5 109.47 487.19 116.41 500.48 123.7 514.08 130.87 528.31 138.21 543.12 145.62 558.17 152.67 573.68 159.69 589.47 166.62 605.16 173.05 620.78 179.37 636.01 185.59 650.52 191.28 664.06 196.91 676.22 202.5 686.85 207.65 695.49 212.84 701.73 218.14 706.55 225.69 699.29 241.65 688 250.29 678.8 256.06 668.45 262.25 657.67 268.85 647.99 275.41 639.4 282.42 632.73 289.87 629.21 297.29 628.8 305.17 631.87 313.48 638.92 321.77 649.43 330.5 662.99 339.65 679.22 348.78 696.96 358.33 715.08 368.31 732.75 378.29 748.09 388.48 760.16 398.88 768.95 409.31 773.24 420 772.91 430.94 768.54 441.99 759.9 453.35 747.6 465.05 732.59 476.91 715.34 489.17 696.77 501.82 677.75 514.68 658.93 527.96 641.03 541.62 624.59 555.46 609.98 569.62 597.43 584.01 587.18 598.41 579.09 612.88 572.98 627.21 568.97 641.23 566.44 654.83 565 667.74 564.88 679.89 565.18 690.96 565.52 700.67 565.67 718.39 556.12 718.61 548.6 709.66 542.82 702.17 536 693.41 528.24 683.74 520.19 674.32 511.34 664.9 501.79 655.96 492.1 648.6 481.82 642.61 471.06 638.39 460.24 636.74 449.01 637.33 437.4 640.25 425.8 645.88 414.13 653.4 402.43 662.37 390.73 672.99 378.98 684.12 367.2 695.2 355.41 706.46 343.56 716.68 331.67 725.43 319.76 733.06 307.8 738.57 295.83 741.76 283.87 743.15 271.92 742.04 260.05 738.54 248.28 733.19 236.68 725.68 225.34 716.29 214.25 705.5 203.54 693.29 193.34 679.98 183.57 665.92 174.43 651.25 166.04 636.26 158.22 621.1 151.22 605.98 145.11 591.08 139.58 576.4 134.92 562.14 131.13 548.36 127.74 534.98 125.08 522.12 123.08 509.79 121.16 497.85 119.69 486.37 118.56 475.3 117.15 464.54 115.86 454.08 114.64 443.87 112.86 433.86 111.01 423.98 109.08 414.2 106.54 404.51 103.94 394.84 101.36 385.16 98.34 375.52 95.51 365.83 93 356.1 90.43 346.37 88.5 336.83 87.31 327.51 86.46 318.2 86.55 309.12 87.62 300.33 89.28 291.58 92 283.14 95.73 275.08 100.07 267.08 105.34 259.48 111.44 252.34 117.93 245.27 125.05 238.67 132.67 232.56 140.33 226.52 148.25 220.95 156.3 215.88 164.05 210.79 171.76 206.14 179.37 201.9 186.45 197.54 193.36 193.49 200.09 189.71 206.25 185.65 212.28 181.75 218.24 177.95 223.71 173.71 229.22 169.46 234.84 165.16 240.12 160.32 245.64 155.35 251.44 150.26 257.06 144.62 263.07 138.86 269.48 133.03 275.82 126.75 282.61 120.52 289.86 114.41 297.09 108.1 304.78 102.1 312.9 96.54 321.02 91.11 329.57 86.34 338.54 82.37 347.49 78.85 356.84 76.32 366.61 74.9" stroke-dasharray="0 0" transform="rotate(20.081632653061224, 400, 400)" opacity="0.17"></path><path d="M371.03 81.32C380.69 80.57 390.61 81 400.81 82.57 411.05 84.8 421.64 88.1 432.59 92.35 443.67 97.08 455.21 102.62 467.22 108.82 479.46 115.24 492.24 122.12 505.58 129.37 519.17 136.53 533.31 143.87 547.91 151.3 562.65 158.41 577.71 165.5 592.88 172.52 607.84 179.07 622.56 185.52 636.72 191.86 650.06 197.7 662.31 203.47 673.08 209.2 682.33 214.47 689.56 219.78 694.45 225.17 697.34 230.21 697.66 235.42 695.34 240.84 691.21 246.03 684.8 251.52 676.45 257.33 667.43 263.01 657.51 269.07 647.39 275.53 638.49 281.92 630.78 288.74 625.01 296 622.31 303.22 622.59 310.88 626.17 318.98 633.5 327.06 644.05 335.58 657.42 344.53 673.26 353.47 690.47 362.86 708.01 372.7 725.12 382.54 740.03 392.63 751.87 402.95 760.64 413.31 765.18 423.96 765.34 434.88 761.68 445.9 753.92 457.25 742.6 468.93 728.59 480.77 712.3 492.98 694.55 505.57 676.18 518.32 657.79 531.45 640.06 544.91 623.51 558.48 608.53 572.31 595.39 586.28 584.34 600.2 575.29 614.08 568.13 627.74 562.99 641.03 559.34 653.81 556.86 665.84 555.75 677.07 555.2 687.19 554.86 695.92 554.12 711.07 545.35 708.81 538.62 699.7 533.45 692.31 527.26 683.77 520.14 674.45 512.76 665.46 504.55 656.52 495.6 648.08 486.51 641.2 476.79 635.62 466.51 631.73 456.17 630.29 445.36 630.97 434.1 633.82 422.85 639.26 411.45 646.46 399.97 655.04 388.49 665.21 376.92 675.88 365.27 686.55 353.63 697.44 341.91 707.4 330.14 716.02 318.38 723.67 306.57 729.34 294.75 732.86 282.99 734.72 271.26 734.22 259.64 731.44 248.17 726.92 236.9 720.3 225.92 711.82 215.24 701.97 204.97 690.68 195.23 678.24 185.95 665 177.32 651.06 169.44 636.71 162.12 622.11 155.61 607.43 149.98 592.87 144.89 578.44 140.64 564.33 137.22 550.63 134.16 537.25 131.78 524.34 130.02 511.91 128.31 499.83 126.98 488.18 125.97 476.96 124.65 466.01 123.42 455.39 122.21 445.05 120.44 434.89 118.58 424.92 116.62 415.09 114.03 405.36 111.38 395.7 108.72 386.11 105.62 376.53 102.7 366.98 100.07 357.44 97.38 347.91 95.33 338.62 94 329.58 93.01 320.55 92.96 311.8 93.89 303.36 95.4 294.94 97.97 286.87 101.55 279.18 105.74 271.53 110.88 264.3 116.86 257.51 123.25 250.78 130.3 244.5 137.86 238.69 145.49 232.92 153.42 227.6 161.52 222.73 169.36 217.82 177.19 213.31 184.93 209.18 192.19 204.88 199.29 200.87 206.22 197.09 212.6 193 218.83 189.04 224.97 185.16 230.62 180.83 236.27 176.47 241.98 172.05 247.34 167.09 252.88 162.02 258.66 156.82 264.22 151.08 270.13 145.24 276.4 139.35 282.57 133.04 289.16 126.77 296.19 120.65 303.17 114.35 310.61 108.38 318.5 102.84 326.36 97.45 334.67 92.71 343.43 88.76 352.17 85.27 361.37 82.75 371.02 81.32" stroke-dasharray="0 0" transform="rotate(23.428571428571427, 400, 400)" opacity="0.19"></path><path d="M376.25 87.75C385.81 86.98 395.68 87.37 405.88 88.89 416.12 91.06 426.75 94.27 437.76 98.43 448.9 103.07 460.5 108.51 472.57 114.62 484.83 120.96 497.61 127.78 510.88 134.97 524.33 142.1 538.24 149.43 552.51 156.87 566.81 164.02 581.28 171.17 595.73 178.27 609.85 184.94 623.58 191.51 636.6 197.97 648.74 203.97 659.68 209.88 669.08 215.74 676.98 221.16 682.87 226.59 686.5 232.08 688.27 237.22 687.63 242.5 684.55 247.96 679.92 253.17 673.26 258.65 664.93 264.42 656.17 270.04 646.75 276.01 637.31 282.37 629.21 288.63 622.38 295.3 617.48 302.4 615.56 309.44 616.49 316.92 620.54 324.84 628.11 332.73 638.67 341.07 651.84 349.86 667.28 358.63 683.97 367.86 700.94 377.57 717.5 387.28 731.99 397.26 743.58 407.5 752.32 417.77 757.07 428.35 757.69 439.22 754.71 450.18 747.78 461.48 737.41 473.11 724.4 484.86 709.06 496.98 692.18 509.43 674.51 522.02 656.61 534.93 639.14 548.11 622.6 561.35 607.37 574.78 593.77 588.26 582.01 601.63 572.11 614.89 563.99 627.83 557.78 640.36 553.07 652.3 549.56 663.43 547.44 673.75 546 682.93 544.91 690.72 542.92 703.43 534.34 698.94 528.21 689.75 523.53 682.48 517.88 674.19 511.32 665.24 504.53 656.67 496.91 648.21 488.52 640.27 480 633.84 470.8 628.67 460.99 625.1 451.14 623.86 440.74 624.6 429.86 627.4 418.97 632.63 407.88 639.53 396.65 647.73 385.43 657.46 374.08 667.68 362.62 677.93 351.19 688.45 339.66 698.15 328.06 706.62 316.51 714.25 304.91 720.05 293.32 723.85 281.81 726.13 270.37 726.2 259.07 724.1 247.96 720.35 237.07 714.58 226.51 706.99 216.28 698.07 206.49 687.68 197.26 676.12 188.49 663.72 180.38 650.55 173.02 636.88 166.22 622.88 160.21 608.71 155.05 594.57 150.4 580.47 146.55 566.59 143.49 553.05 140.74 539.75 138.63 526.85 137.09 514.4 135.55 502.24 134.36 490.5 133.45 479.17 132.19 468.09 131 457.35 129.8 446.91 128.03 436.64 126.15 426.6 124.14 416.74 121.51 406.98 118.8 397.34 116.06 387.81 112.89 378.31 109.87 368.88 107.14 359.53 104.35 350.18 102.17 341.11 100.71 332.34 99.59 323.57 99.4 315.11 100.17 306.99 101.54 298.89 103.94 291.14 107.37 283.79 111.41 276.47 116.39 269.56 122.23 263.09 128.5 256.65 135.45 250.65 142.93 245.11 150.53 239.57 158.45 234.45 166.56 229.76 174.47 224.99 182.4 220.59 190.27 216.52 197.7 212.26 204.99 208.25 212.11 204.44 218.71 200.31 225.16 196.28 231.5 192.29 237.35 187.86 243.17 183.39 249.02 178.85 254.49 173.77 260.11 168.58 265.92 163.28 271.49 157.46 277.35 151.55 283.55 145.59 289.6 139.25 296.06 132.97 302.93 126.84 309.73 120.57 316.97 114.61 324.68 109.11 332.33 103.76 340.46 99.06 349.05 95.15 357.62 91.68 366.68 89.18 376.24 87.75" stroke-dasharray="0 0" transform="rotate(26.77551020408163, 400, 400)" opacity="0.21"></path><path d="M382.12 94.17C391.59 93.39 401.42 93.75 411.59 95.2 421.81 97.3 432.43 100.43 443.46 104.49 454.59 109.04 466.19 114.37 478.23 120.38 490.42 126.63 503.09 133.37 516.17 140.49 529.38 147.58 542.94 154.89 556.74 162.33 570.49 169.52 584.27 176.72 597.89 183.89 611.08 190.65 623.75 197.33 635.6 203.92 646.51 210.06 656.16 216.12 664.21 222.11 673.13 230.47 677.93 246.79 673.5 255 668.47 260.26 661.68 265.76 653.46 271.52 645.04 277.11 636.16 283.03 627.44 289.31 620.14 295.48 614.17 302.04 610.12 309 608.95 315.9 610.5 323.24 614.98 331 622.75 338.73 633.3 346.91 646.25 355.55 661.3 364.16 677.47 373.25 693.87 382.82 709.89 392.4 723.95 402.27 735.28 412.41 743.98 422.59 748.93 433.08 749.97 443.87 747.62 454.74 741.5 465.94 732.05 477.46 720.01 489.08 705.64 501.04 689.64 513.31 672.72 525.66 655.38 538.3 638.26 551.14 621.82 563.99 606.47 576.95 592.5 589.89 580.17 602.67 569.52 615.24 560.54 627.44 553.35 639.18 547.61 650.27 543.1 660.5 539.97 669.91 537.61 678.17 535.72 685.06 532.22 695.48 523.26 689.01 517.55 679.79 513.25 672.68 508.04 664.67 501.95 656.09 495.67 647.95 488.57 639.96 480.69 632.51 472.69 626.52 463.99 621.74 454.65 618.48 445.26 617.43 435.29 618.24 424.78 620.98 414.28 626.01 403.52 632.61 392.58 640.44 381.66 649.73 370.57 659.52 359.36 669.35 348.18 679.5 336.89 688.91 325.53 697.22 314.25 704.79 302.92 710.69 291.62 714.73 280.44 717.39 269.35 717.97 258.42 716.5 247.71 713.49 237.26 708.53 227.18 701.8 217.44 693.77 208.16 684.28 199.46 673.6 191.23 662.05 183.66 649.68 176.84 636.73 170.55 623.39 165.03 609.78 160.34 596.11 156.12 582.4 152.66 568.83 149.94 555.52 147.48 542.38 145.62 529.58 144.28 517.17 142.9 505.01 141.83 493.24 140.98 481.86 139.78 470.7 138.61 459.88 137.41 449.38 135.62 439.04 133.7 428.95 131.65 419.08 128.97 409.31 126.2 399.69 123.39 390.24 120.14 380.81 117.04 371.51 114.21 362.32 111.32 353.14 109.03 344.28 107.45 335.76 106.2 327.23 105.87 319.04 106.49 311.21 107.69 303.39 109.93 295.94 113.19 288.9 117.06 281.86 121.88 275.24 127.56 269.05 133.69 262.87 140.51 257.12 147.89 251.79 155.43 246.44 163.32 241.49 171.43 236.93 179.39 232.27 187.4 227.94 195.38 223.9 202.97 219.66 210.43 215.63 217.75 211.77 224.57 207.57 231.24 203.45 237.79 199.35 243.86 194.81 249.88 190.21 255.9 185.54 261.53 180.35 267.27 175.05 273.16 169.64 278.78 163.74 284.66 157.77 290.83 151.76 296.84 145.39 303.22 139.1 309.99 132.98 316.66 126.73 323.77 120.81 331.33 115.35 338.83 110.05 346.8 105.4 355.27 101.52 363.69 98.09 372.64 95.61 382.11 94.17" stroke-dasharray="0 0" transform="rotate(30.122448979591837, 400, 400)" opacity="0.22"></path><path d="M388.49 100.6C397.88 99.8 407.64 100.12 417.77 101.52 427.94 103.55 438.52 106.59 449.49 110.54 460.57 114.99 472.08 120.21 484 126.11 496.04 132.26 508.49 138.91 521.28 145.95 534.13 152.99 547.23 160.26 560.46 167.69 573.55 174.89 586.55 182.13 599.25 189.35 611.46 196.2 623.03 202.99 633.68 209.69 643.36 215.97 651.73 222.17 658.49 228.3 665.6 236.88 667.52 253.58 662.22 261.91 656.92 267.25 650.09 272.79 642.08 278.57 634.06 284.17 625.78 290.07 617.8 296.29 611.31 302.4 606.18 308.88 602.95 315.74 602.49 322.54 604.6 329.74 609.48 337.38 617.43 344.97 627.94 353.01 640.65 361.51 655.3 369.98 670.96 378.93 686.8 388.38 702.28 397.83 715.92 407.58 726.99 417.61 735.62 427.67 740.74 438.05 742.17 448.72 740.42 459.46 735.07 470.53 726.51 481.89 715.44 493.34 702.02 505.09 686.91 517.1 670.78 529.17 654.07 541.47 637.37 553.91 621.14 566.31 605.76 578.76 591.56 591.11 578.77 603.25 567.49 615.11 557.75 626.53 549.65 637.46 542.96 647.7 537.49 657.03 533.37 665.57 530.09 672.93 527.38 678.94 522.12 687.24 512.3 679.03 506.83 669.86 502.8 662.92 497.92 655.2 492.22 647.01 486.37 639.3 479.71 631.78 472.29 624.8 464.76 619.25 456.52 614.85 447.63 611.88 438.68 611 429.13 611.88 419.02 614.55 408.91 619.4 398.51 625.7 387.89 633.17 377.3 642.04 366.52 651.39 355.59 660.81 344.72 670.58 333.73 679.7 322.67 687.83 311.7 695.32 300.71 701.28 289.76 705.52 278.96 708.51 268.27 709.56 257.77 708.67 247.53 706.34 237.56 702.15 227.98 696.24 218.77 689.09 210.04 680.48 201.89 670.66 194.21 659.98 187.19 648.42 180.91 636.22 175.13 623.57 170.11 610.58 165.87 597.43 162.06 584.19 158.96 571 156.57 557.98 154.39 545.07 152.75 532.44 151.58 520.15 150.34 508.06 149.36 496.31 148.58 484.94 147.41 473.76 146.24 462.91 145.02 452.39 143.21 442.02 141.25 431.91 139.14 422.05 136.41 412.28 133.57 402.71 130.69 393.33 127.38 383.98 124.2 374.79 121.28 365.77 118.3 356.75 115.91 348.08 114.21 339.78 112.83 331.48 112.36 323.53 112.83 315.97 113.87 308.4 115.94 301.22 119.01 294.45 122.71 287.67 127.35 281.3 132.85 275.35 138.82 269.39 145.5 263.83 152.76 258.69 160.21 253.49 168.04 248.67 176.13 244.21 184.11 239.62 192.18 235.33 200.25 231.3 207.97 227.04 215.6 222.97 223.1 219.03 230.14 214.75 237.03 210.52 243.8 206.3 250.1 201.64 256.34 196.92 262.55 192.12 268.37 186.82 274.26 181.41 280.27 175.9 286 169.93 291.94 163.89 298.14 157.84 304.15 151.46 310.51 145.17 317.22 139.06 323.83 132.85 330.85 126.98 338.31 121.56 345.7 116.32 353.57 111.72 361.92 107.88 370.24 104.49 379.09 102.03 388.48 100.6" stroke-dasharray="0 0" transform="rotate(33.46938775510204, 400, 400)" opacity="0.24"></path><path d="M395.18 107.02C404.49 106.21 414.17 106.5 424.22 107.83 434.31 109.79 444.8 112.74 455.67 116.59 466.62 120.92 477.98 126.03 489.7 131.8 501.49 137.84 513.62 144.39 526.02 151.34 538.41 158.31 550.96 165.54 563.52 172.93 575.86 180.14 588.01 187.4 599.73 194.66 610.91 201.59 621.35 208.47 630.8 215.27 639.27 221.67 646.41 228.01 651.95 234.28 657.38 243.08 656.76 260.17 650.79 268.66 645.33 274.09 638.56 279.7 630.84 285.52 623.27 291.15 615.62 297.05 608.4 303.25 602.71 309.33 598.4 315.75 595.96 322.54 596.16 329.25 598.81 336.36 604.04 343.89 612.12 351.37 622.58 359.28 635.05 367.66 649.29 376 664.44 384.82 679.73 394.14 694.69 403.46 707.89 413.08 718.71 422.98 727.25 432.91 732.51 443.15 734.31 453.67 733.11 464.25 728.5 475.14 720.79 486.3 710.65 497.53 698.19 509.02 683.99 520.73 668.68 532.46 652.64 544.36 636.43 556.34 620.5 568.25 605.21 580.13 590.88 591.85 577.76 603.32 565.96 614.45 555.57 625.07 546.67 635.19 539.11 644.58 532.74 653.04 525.58 663.96 516.06 677.9 512.49 680.32 509.45 679.55 501.64 669.03 496.26 659.95 492.38 653.22 487.74 645.81 482.34 638.01 476.82 630.73 470.53 623.67 463.51 617.16 456.4 612.02 448.58 607.98 440.11 605.3 431.58 604.59 422.45 605.51 412.73 608.13 403.01 612.78 392.99 618.81 382.72 625.92 372.49 634.38 362.05 643.3 351.46 652.32 340.93 661.71 330.29 670.53 319.59 678.45 308.99 685.84 298.39 691.82 287.84 696.23 277.47 699.51 267.24 700.97 257.22 700.61 247.47 698.92 238.03 695.45 229 690.33 220.33 684.01 212.17 676.27 204.59 667.31 197.47 657.48 191 646.74 185.26 635.31 179.98 623.39 175.44 611.05 171.64 598.49 168.22 585.76 165.47 573 163.38 560.35 161.45 547.75 160.01 535.35 159 523.25 157.87 511.29 156.97 499.64 156.22 488.33 155.06 477.19 153.89 466.36 152.64 455.86 150.79 445.49 148.78 435.4 146.61 425.58 143.83 415.83 140.92 406.31 137.98 397.02 134.6 387.76 131.35 378.69 128.35 369.81 125.28 360.94 122.8 352.46 120.99 344.36 119.49 336.26 118.88 328.54 119.2 321.21 120.08 313.87 121.97 306.92 124.85 300.38 128.35 293.82 132.8 287.67 138.11 281.92 143.91 276.14 150.42 270.75 157.53 265.76 164.87 260.68 172.62 255.95 180.66 251.55 188.64 247 196.74 242.71 204.87 238.67 212.71 234.37 220.48 230.23 228.14 226.2 235.38 221.83 242.49 217.48 249.48 213.13 256.02 208.35 262.48 203.5 268.9 198.57 274.93 193.16 281 187.65 287.17 182.05 293.03 176.01 299.08 169.93 305.35 163.84 311.43 157.46 317.8 151.18 324.51 145.1 331.09 138.93 338.07 133.11 345.47 127.74 352.8 122.57 360.58 118.03 368.86 114.24 377.09 110.89 385.85 108.46 395.17 107.02" stroke-dasharray="0 0" transform="rotate(36.816326530612244, 400, 400)" opacity="0.26"></path><path d="M402 113.44C411.22 112.63 420.81 112.88 430.75 114.15 440.73 116.03 451.08 118.88 461.79 122.62 472.55 126.83 483.67 131.82 495.1 137.46 506.57 143.38 518.31 149.82 530.22 156.67 542.07 163.56 553.97 170.72 565.78 178.07 577.32 185.26 588.55 192.53 599.26 199.82 609.38 206.81 618.69 213.76 626.95 220.65 634.25 227.18 640.21 233.64 644.61 240.03 647.79 246.05 649.24 252.05 648.87 258.04 647.32 263.7 644.07 269.41 639.23 275.22 633.71 280.75 627.1 286.44 619.73 292.32 612.68 298 605.69 303.93 599.24 310.13 594.34 316.2 590.83 322.59 589.14 329.33 589.97 335.98 593.1 343.02 598.65 350.45 606.85 357.83 617.22 365.64 629.43 373.9 643.27 382.12 657.92 390.82 672.66 400 687.09 409.18 699.88 418.66 710.43 428.41 718.88 438.19 724.25 448.27 726.37 458.61 725.7 469 721.78 479.67 714.9 490.59 705.67 501.54 694.15 512.72 680.86 524.08 666.39 535.42 651.07 546.88 635.43 558.36 619.88 569.73 604.77 581.01 590.43 592.06 577.08 602.84 564.89 613.22 553.95 623.04 544.36 632.35 536.01 640.89 528.82 648.5 520.33 658.18 508.38 669.89 503.84 671.43 500.04 670.03 491.43 659.01 485.99 650.07 482.17 643.57 477.67 636.48 472.48 629.08 467.21 622.23 461.23 615.63 454.55 609.56 447.79 604.83 440.36 601.14 432.27 598.73 424.14 598.18 415.41 599.15 406.09 601.7 396.77 606.18 387.13 611.92 377.25 618.69 367.4 626.74 357.33 635.24 347.12 643.86 336.97 652.87 326.72 661.38 316.42 669.08 306.24 676.34 296.07 682.32 285.99 686.85 276.09 690.37 266.35 692.21 256.86 692.33 247.64 691.24 238.75 688.44 230.29 684.06 222.19 678.55 214.6 671.64 207.61 663.52 201.05 654.54 195.13 644.62 189.92 633.97 185.13 622.8 181.04 611.15 177.66 599.21 174.61 587.05 172.19 574.79 170.37 562.56 168.66 550.32 167.4 538.23 166.52 526.36 165.48 514.6 164.63 503.11 163.9 491.93 162.74 480.88 161.54 470.13 160.25 459.69 158.35 449.37 156.29 439.32 154.06 429.56 151.22 419.87 148.26 410.43 145.24 401.23 141.81 392.06 138.49 383.11 135.42 374.38 132.28 365.66 129.7 357.34 127.79 349.44 126.18 341.51 125.44 333.99 125.6 326.87 126.31 319.73 128.02 312.99 130.71 306.65 134.01 300.28 138.25 294.31 143.35 288.73 148.95 283.1 155.28 277.84 162.22 272.95 169.43 267.95 177.07 263.28 185.02 258.91 192.97 254.38 201.08 250.08 209.25 245.98 217.18 241.63 225.07 237.4 232.87 233.27 240.3 228.79 247.61 224.32 254.8 219.84 261.58 214.93 268.27 209.95 274.9 204.89 281.16 199.38 287.44 193.77 293.77 188.08 299.81 182 306 175.87 312.38 169.76 318.54 163.39 324.98 157.13 331.72 151.07 338.33 144.96 345.3 139.2 352.67 133.9 359.96 128.8 367.7 124.32 375.91 120.58 384.08 117.29 392.76 114.88 401.99 113.45" stroke-dasharray="0 0" transform="rotate(40.16326530612245, 400, 400)" opacity="0.28"></path><path d="M408.76 119.87C417.89 119.04 427.37 119.26 437.16 120.47 446.99 122.27 457.16 125.02 467.64 128.64 478.16 132.74 488.98 137.59 500.05 143.1 511.12 148.89 522.37 155.2 533.72 161.93 544.95 168.73 556.14 175.81 567.14 183.1 577.82 190.26 588.1 197.52 597.77 204.82 606.84 211.85 615.03 218.86 622.14 225.83 628.33 232.46 633.18 239.03 636.53 245.55 638.76 251.71 639.37 257.85 638.3 263.97 636.22 269.77 632.62 275.61 627.63 281.53 622.15 287.18 615.77 292.96 608.83 298.91 602.33 304.66 596.02 310.63 590.34 316.85 586.21 322.93 583.48 329.32 582.5 336.02 583.91 342.64 587.49 349.61 593.31 356.97 601.59 364.27 611.86 371.99 623.81 380.13 637.23 388.25 651.38 396.82 665.59 405.86 679.51 414.9 691.88 424.23 702.15 433.81 710.49 443.42 715.95 453.3 718.37 463.44 718.18 473.6 714.92 484.02 708.83 494.65 700.48 505.29 689.88 516.12 677.5 527.07 663.89 537.99 649.33 548.97 634.31 559.9 619.22 570.7 604.38 581.35 590.13 591.71 576.68 601.78 564.22 611.4 552.85 620.42 542.67 628.93 533.65 636.65 525.71 643.43 518.93 649.47 513.03 654.39 507.87 658.05 501.65 661.56 491.48 660.36 486.63 655.73 483.57 651.59 480.13 646.37 476.22 640.24 472.36 633.99 467.92 627.24 462.87 620.24 457.77 613.82 452.02 607.65 445.62 602.03 439.16 597.69 432.05 594.33 424.32 592.17 416.56 591.77 408.2 592.79 399.28 595.28 390.35 599.57 381.11 605.05 371.62 611.48 362.17 619.14 352.51 627.23 342.7 635.45 332.98 644.08 323.15 652.27 313.3 659.74 303.58 666.85 293.88 672.8 284.3 677.42 274.91 681.14 265.7 683.3 256.76 683.86 248.1 683.3 239.79 681.14 231.91 677.45 224.4 672.71 217.39 666.6 210.98 659.29 204.97 651.15 199.59 642.05 194.89 632.18 190.57 621.78 186.92 610.84 183.94 599.55 181.23 588 179.11 576.28 177.53 564.52 176.02 552.71 174.91 540.98 174.13 529.42 173.16 517.93 172.34 506.65 171.61 495.65 170.44 484.74 169.2 474.12 167.85 463.79 165.9 453.56 163.77 443.6 161.47 433.93 158.58 424.32 155.56 414.97 152.49 405.87 149 396.81 145.63 387.98 142.49 379.4 139.28 370.81 136.62 362.66 134.61 354.92 132.9 347.17 132.02 339.82 132.03 332.89 132.58 325.92 134.11 319.35 136.59 313.18 139.68 306.97 143.7 301.15 148.58 295.7 153.97 290.18 160.09 285.02 166.84 280.2 173.89 275.26 181.39 270.62 189.24 266.26 197.13 261.7 205.2 257.36 213.38 253.2 221.37 248.77 229.35 244.45 237.26 240.2 244.86 235.6 252.35 231 259.73 226.38 266.73 221.35 273.65 216.25 280.49 211.07 286.99 205.46 293.48 199.77 300 194 306.24 187.87 312.58 181.72 319.09 175.6 325.39 169.24 331.92 163.01 338.72 157 345.38 150.95 352.38 145.26 359.75 140.03 367.03 135 374.74 130.6 382.9 126.92 391.01 123.67 399.62 121.29 408.75 119.87" stroke-dasharray="0 0" transform="rotate(43.51020408163266, 400, 400)" opacity="0.30"></path><path d="M415.29 126.29C424.31 125.46 433.64 125.64 443.26 126.78 452.9 128.51 462.84 131.16 473.03 134.66 483.26 138.62 493.72 143.34 504.35 148.7 514.96 154.36 525.67 160.53 536.37 167.14 546.94 173.83 557.36 180.82 567.5 188.03 577.3 195.14 586.61 202.37 595.24 209.66 603.26 216.72 610.37 223.78 616.38 230.81 621.53 237.53 625.36 244.2 627.75 250.82 629.14 257.11 629.02 263.38 627.38 269.62 624.88 275.57 621.04 281.54 616.01 287.57 610.65 293.34 604.59 299.23 598.12 305.25 592.21 311.08 586.6 317.11 581.69 323.37 578.32 329.48 576.33 335.87 576.02 342.56 577.98 349.15 581.97 356.08 588.03 363.37 596.36 370.61 606.51 378.24 618.17 386.27 631.19 394.28 644.84 402.72 658.52 411.62 671.93 420.51 683.88 429.67 693.87 439.07 702.09 448.48 707.62 458.15 710.31 468.04 710.57 477.95 707.93 488.08 702.59 498.38 695.09 508.68 685.4 519.12 673.92 529.63 661.18 540.08 647.41 550.54 633.06 560.9 618.5 571.1 604.02 581.09 589.96 590.76 576.51 600.1 563.88 608.96 552.2 617.2 541.56 624.92 531.95 631.85 523.36 637.83 515.84 643.11 509.18 647.3 503.27 650.29 495.91 652.92 483.84 650.55 478.31 645.69 474.88 641.53 471.17 636.39 467.1 630.45 463.12 624.47 458.66 618.07 453.67 611.48 448.66 605.47 443.08 599.75 436.9 594.55 430.68 590.58 423.86 587.55 416.46 585.63 409.02 585.37 401.03 586.43 392.49 588.85 383.95 592.97 375.1 598.19 366.03 604.29 356.99 611.57 347.75 619.25 338.38 627.07 329.1 635.32 319.74 643.19 310.36 650.41 301.13 657.36 291.94 663.25 282.89 667.92 274.03 671.8 265.38 674.24 257.02 675.19 248.93 675.12 241.21 673.54 233.93 670.51 227 666.48 220.57 661.14 214.73 654.62 209.26 647.3 204.41 639 200.2 629.92 196.33 620.29 193.09 610.08 190.47 599.47 188.08 588.56 186.22 577.42 184.86 566.18 183.52 554.85 182.53 543.54 181.83 532.33 180.9 521.16 180.1 510.15 179.35 499.38 178.14 488.68 176.85 478.23 175.44 468.05 173.43 457.95 171.24 448.12 168.87 438.57 165.92 429.07 162.84 419.83 159.71 410.86 156.18 401.92 152.76 393.21 149.56 384.77 146.29 376.33 143.56 368.32 141.46 360.74 139.64 353.15 138.64 345.96 138.5 339.18 138.89 332.37 140.22 325.95 142.5 319.92 145.38 313.84 149.17 308.13 153.81 302.78 158.97 297.36 164.87 292.26 171.41 287.48 178.26 282.57 185.6 277.93 193.31 273.54 201.11 268.95 209.13 264.55 217.27 260.3 225.29 255.78 233.33 251.35 241.33 246.97 249.06 242.25 256.7 237.53 264.25 232.77 271.46 227.62 278.59 222.39 285.64 217.1 292.36 211.4 299.07 205.63 305.79 199.81 312.23 193.64 318.75 187.47 325.41 181.35 331.85 175.02 338.49 168.83 345.38 162.87 352.12 156.9 359.17 151.28 366.55 146.13 373.85 141.19 381.54 136.86 389.65 133.24 397.72 130.05 406.25 127.71 415.28 126.29" stroke-dasharray="0 0" transform="rotate(46.857142857142854, 400, 400)" opacity="0.32"></path><path d="M421.39 132.72C430.28 131.88 439.45 132.02 448.85 133.1 458.27 134.75 467.93 137.29 477.8 140.67 487.67 144.5 497.71 149.07 507.85 154.28 517.94 159.79 528.05 165.82 538.08 172.29 547.92 178.86 557.55 185.74 566.81 192.85 575.7 199.91 584.04 207.09 591.65 214.35 598.67 221.42 604.74 228.5 609.72 235.57 613.89 242.36 616.8 249.12 618.34 255.83 619.01 262.24 618.28 268.62 616.18 274.99 613.38 281.06 609.41 287.16 604.44 293.3 599.29 299.2 593.6 305.19 587.66 311.3 582.37 317.22 577.46 323.32 573.3 329.61 570.68 335.77 569.39 342.17 569.72 348.85 572.18 355.44 576.52 362.33 582.79 369.57 591.14 376.74 601.15 384.29 612.53 392.22 625.13 400.12 638.29 408.43 651.46 417.17 664.36 425.91 675.9 434.89 685.61 444.08 693.68 453.29 699.26 462.71 702.19 472.33 702.86 481.96 700.8 491.77 696.17 501.7 689.5 511.62 680.68 521.64 670.1 531.67 658.24 541.63 645.28 551.54 631.64 561.3 617.67 570.89 603.63 580.22 589.84 589.17 576.51 597.8 563.83 605.91 551.95 613.37 540.95 620.33 530.88 626.49 521.74 631.71 513.56 636.29 506.21 639.8 499.61 642.17 491.17 644.01 477.21 640.64 470.95 635.61 467.09 631.46 463.07 626.45 458.78 620.73 454.61 615.03 450.06 608.98 445.06 602.8 440.08 597.21 434.6 591.91 428.59 587.13 422.56 583.52 415.98 580.79 408.87 579.11 401.73 578.98 394.07 580.07 385.9 582.43 377.74 586.37 369.29 591.34 360.63 597.12 352.01 604.02 343.21 611.31 334.31 618.74 325.48 626.62 316.6 634.15 307.74 641.12 299.01 647.88 290.36 653.68 281.86 658.37 273.56 662.38 265.48 665.05 257.71 666.34 250.2 666.71 243.07 665.66 236.39 663.24 230.03 659.89 224.18 655.27 218.9 649.51 213.95 642.97 209.59 635.47 205.85 627.17 202.4 618.31 199.54 608.84 197.26 598.92 195.15 588.68 193.52 578.16 192.35 567.48 191.15 556.66 190.25 545.81 189.61 535.02 188.7 524.21 187.89 513.53 187.1 503.04 185.85 492.59 184.49 482.36 183.01 472.38 180.93 462.46 178.67 452.78 176.23 443.38 173.23 434.02 170.1 424.92 166.91 416.08 163.34 407.27 159.88 398.71 156.63 390.41 153.31 382.11 150.51 374.25 148.33 366.81 146.41 359.36 145.29 352.32 145.01 345.67 145.23 338.99 146.38 332.7 148.44 326.78 151.1 320.81 154.65 315.19 159.05 309.91 163.96 304.54 169.62 299.49 175.92 294.72 182.57 289.81 189.72 285.16 197.26 280.71 204.93 276.07 212.86 271.59 220.94 267.25 228.95 262.63 237 258.08 245.06 253.57 252.89 248.73 260.66 243.87 268.35 238.98 275.74 233.71 283.06 228.38 290.3 222.98 297.24 217.2 304.15 211.37 311.06 205.49 317.71 199.31 324.42 193.13 331.22 187.02 337.83 180.73 344.6 174.59 351.58 168.7 358.42 162.8 365.52 157.28 372.93 152.21 380.26 147.36 387.94 143.11 396 139.56 404.03 136.43 412.48 134.12 421.38 132.72" stroke-dasharray="0 0" transform="rotate(50.204081632653065, 400, 400)" opacity="0.34"></path><path d="M426.89 139.14C435.65 138.3 444.61 138.4 453.77 139.42 462.93 140.99 472.28 143.43 481.77 146.67 491.25 150.37 500.83 154.79 510.43 159.84 519.96 165.2 529.43 171.07 538.73 177.38 547.84 183.82 556.64 190.58 565.02 197.59 573.01 204.56 580.4 211.68 587.03 218.89 593.08 225.94 598.18 233.03 602.21 240.12 605.5 246.96 607.59 253.78 608.4 260.57 608.45 267.08 607.23 273.57 604.79 280.03 601.8 286.24 597.8 292.45 592.97 298.7 588.1 304.71 582.84 310.81 577.46 317 572.8 323.02 568.61 329.18 565.19 335.52 563.27 341.73 562.66 348.16 563.57 354.83 566.49 361.42 571.16 368.29 577.59 375.47 585.93 382.59 595.79 390.06 606.87 397.88 619.06 405.68 631.73 413.86 644.39 422.43 656.8 431 667.92 439.78 677.34 448.75 685.27 457.73 690.88 466.89 694.01 476.21 695.05 485.53 693.53 494.99 689.58 504.53 683.69 514.05 675.73 523.61 666.02 533.14 655.05 542.58 642.92 551.92 630.01 561.07 616.69 570.03 603.16 578.68 589.74 586.93 576.61 594.85 563.99 602.22 552.02 608.93 540.78 615.16 530.36 620.59 520.77 625.11 512.04 629.02 504.1 631.91 496.86 633.72 487.43 634.86 471.63 630.65 464.62 625.52 460.32 621.43 455.93 616.57 451.38 611.09 446.97 605.69 442.28 599.99 437.22 594.21 432.21 589.03 426.77 584.15 420.88 579.77 414.98 576.5 408.61 574.06 401.75 572.6 394.87 572.59 387.52 573.72 379.71 576 371.9 579.78 363.85 584.5 355.61 589.98 347.4 596.51 339.05 603.41 330.62 610.46 322.27 617.96 313.89 625.17 305.55 631.87 297.34 638.43 289.23 644.12 281.3 648.8 273.57 652.89 266.07 655.75 258.89 657.34 251.97 658.1 245.42 657.53 239.33 655.67 233.54 652.95 228.24 649.01 223.49 643.97 219.04 638.19 215.15 631.46 211.84 623.91 208.78 615.82 206.26 607.1 204.28 597.88 202.42 588.33 201 578.44 199.97 568.34 198.88 558.08 198.06 547.73 197.44 537.39 196.54 527 195.7 516.69 194.86 506.53 193.54 496.38 192.12 486.42 190.55 476.67 188.4 466.97 186.07 457.49 183.56 448.26 180.5 439.08 177.33 430.13 174.09 421.45 170.49 412.79 166.99 404.37 163.7 396.22 160.34 388.06 157.48 380.34 155.22 373.04 153.21 365.72 151.98 358.8 151.55 352.28 151.61 345.71 152.57 339.52 154.42 333.69 156.85 327.8 160.16 322.25 164.3 317.01 168.96 311.68 174.35 306.64 180.4 301.86 186.82 296.94 193.75 292.24 201.1 287.73 208.61 283.03 216.41 278.46 224.39 274 232.35 269.28 240.39 264.6 248.46 259.96 256.35 255 264.21 250.01 272.01 244.99 279.55 239.62 287.03 234.18 294.44 228.69 301.57 222.85 308.68 216.96 315.76 211.05 322.61 204.86 329.49 198.69 336.45 192.61 343.22 186.37 350.12 180.3 357.2 174.47 364.14 168.67 371.32 163.24 378.75 158.27 386.11 153.51 393.78 149.35 401.79 145.87 409.77 142.8 418.13 140.54 426.88 139.14" stroke-dasharray="0 0" transform="rotate(53.55102040816326, 400, 400)" opacity="0.36"></path><path d="M431.65 145.57C440.24 144.72 448.99 144.79 457.86 145.74 466.74 147.23 475.74 149.56 484.81 152.67 493.86 156.23 502.94 160.5 511.97 165.38 520.9 170.58 529.7 176.29 538.26 182.43 546.62 188.73 554.6 195.35 562.09 202.23 569.22 209.1 575.69 216.14 581.38 223.28 586.52 230.3 590.74 237.37 593.9 244.46 596.41 251.33 597.78 258.2 597.97 265.04 597.52 271.63 595.93 278.21 593.25 284.76 590.18 291.07 586.25 297.39 581.64 303.74 577.12 309.87 572.33 316.06 567.55 322.33 563.53 328.44 560.03 334.67 557.34 341.06 556.11 347.31 556.12 353.77 557.58 360.45 560.92 367.03 565.87 373.88 572.43 381.01 580.75 388.08 590.42 395.47 601.2 403.17 612.97 410.86 625.17 418.9 637.32 427.29 649.24 435.69 659.96 444.26 669.09 452.98 676.85 461.71 682.46 470.59 685.77 479.58 687.16 488.58 686.14 497.66 682.83 506.78 677.69 515.87 670.55 524.96 661.7 533.97 651.6 542.88 640.31 551.64 628.17 560.16 615.53 568.49 602.58 576.48 589.59 584.02 576.77 591.24 564.3 597.9 552.35 603.89 540.99 609.43 530.32 614.17 520.4 618.03 511.22 621.32 502.77 623.65 494.99 624.95 487.92 625.65 481.39 625.3 475.31 623.91 469.76 622.02 464.48 619.17 459.37 615.42 454.61 611.42 449.84 606.74 444.99 601.52 440.31 596.42 435.43 591.09 430.27 585.71 425.18 580.93 419.74 576.46 413.93 572.46 408.12 569.52 401.9 567.36 395.26 566.1 388.62 566.2 381.55 567.36 374.08 569.58 366.61 573.19 358.94 577.66 351.12 582.85 343.32 589.02 335.42 595.55 327.47 602.22 319.6 609.35 311.72 616.22 303.91 622.65 296.23 628.99 288.68 634.55 281.32 639.19 274.14 643.33 267.23 646.34 260.64 648.18 251.3 649.22 235.15 644.01 228.52 638 224.54 632.94 221.09 626.95 218.18 620.14 215.47 612.81 213.26 604.82 211.54 596.3 209.89 587.45 208.64 578.21 207.74 568.73 206.73 559.05 205.95 549.24 205.33 539.38 204.41 529.45 203.52 519.55 202.61 509.75 201.23 499.96 199.72 490.29 198.07 480.82 195.84 471.37 193.44 462.12 190.86 453.11 187.75 444.12 184.53 435.36 181.25 426.85 177.63 418.36 174.09 410.1 170.76 402.09 167.37 394.08 164.47 386.5 162.13 379.33 160.05 372.13 158.7 365.33 158.14 358.91 158.04 352.45 158.81 346.34 160.45 340.58 162.64 334.75 165.7 329.24 169.58 324.03 173.96 318.72 179.09 313.67 184.87 308.86 191.03 303.91 197.72 299.15 204.84 294.57 212.16 289.78 219.8 285.11 227.65 280.54 235.52 275.71 243.5 270.91 251.54 266.14 259.46 261.06 267.37 255.95 275.24 250.81 282.89 245.34 290.5 239.82 298.04 234.24 305.35 228.35 312.62 222.42 319.86 216.48 326.89 210.3 333.94 204.16 341.03 198.11 347.96 191.93 354.99 185.94 362.16 180.2 369.2 174.5 376.44 169.17 383.9 164.3 391.28 159.65 398.94 155.58 406.89 152.17 414.81 149.17 423.05 146.95 431.64 145.57" stroke-dasharray="0 0" transform="rotate(56.89795918367347, 400, 400)" opacity="0.38"></path><path d="M435.54 151.99C443.94 151.14 452.44 151.18 461 152.07 469.57 153.47 478.19 155.69 486.81 158.67 495.41 162.09 503.95 166.19 512.38 170.91 520.7 175.93 528.82 181.47 536.64 187.44 544.24 193.57 551.42 200.04 558.06 206.78 564.34 213.53 569.95 220.47 574.76 227.53 579.08 234.49 582.48 241.53 584.89 248.59 586.71 255.47 587.48 262.36 587.16 269.23 586.32 275.88 584.47 282.53 581.67 289.15 578.61 295.55 574.83 301.96 570.51 308.39 566.39 314.62 562.12 320.9 557.94 327.25 554.57 333.43 551.77 339.73 549.77 346.16 549.18 352.47 549.78 358.95 551.75 365.62 555.45 372.21 560.64 379.03 567.31 386.1 575.57 393.12 585.05 400.43 595.51 408.02 606.87 415.59 618.59 423.48 630.25 431.68 641.69 439.89 652.01 448.24 660.84 456.7 668.44 465.16 674.03 473.74 677.49 482.39 679.19 491.03 678.63 499.72 675.91 508.41 671.48 517.05 665.13 525.64 657.12 534.11 647.88 542.48 637.43 550.66 626.08 558.56 614.17 566.25 601.83 573.58 589.35 580.45 576.92 587 564.69 592.97 552.86 598.28 541.49 603.15 530.7 607.25 520.54 610.5 511.02 613.24 502.17 615.06 493.94 615.9 486.34 616.23 479.28 615.58 472.68 613.98 466.59 611.94 460.8 609.05 455.24 605.35 450.01 601.47 444.86 596.99 439.7 592.04 434.73 587.26 429.62 582.29 424.33 577.31 419.12 572.92 413.65 568.83 407.87 565.2 402.12 562.58 396.02 560.68 389.58 559.62 383.13 559.83 376.32 561 369.17 563.16 362.02 566.6 354.71 570.85 347.3 575.74 339.91 581.57 332.45 587.73 324.98 594.04 317.57 600.79 310.2 607.33 302.93 613.48 295.77 619.58 288.76 624.99 281.97 629.57 275.35 633.72 269 636.85 262.99 638.9 254.48 640.42 239.91 636.69 234 631.62 230.45 627.24 227.4 621.95 224.85 615.86 222.45 609.26 220.51 601.99 219.01 594.18 217.54 586.02 216.42 577.45 215.61 568.59 214.65 559.52 213.89 550.27 213.25 540.92 212.29 531.49 211.34 522.03 210.35 512.64 208.89 503.22 207.29 493.9 205.54 484.74 203.25 475.58 200.76 466.6 198.12 457.81 194.97 449.06 191.7 440.5 188.39 432.18 184.75 423.87 181.19 415.78 177.83 407.93 174.41 400.07 171.47 392.63 169.07 385.58 166.91 378.51 165.46 371.81 164.76 365.48 164.51 359.11 165.1 353.07 166.52 347.36 168.49 341.58 171.29 336.1 174.89 330.89 179 325.58 183.84 320.51 189.33 315.66 195.21 310.66 201.63 305.84 208.51 301.16 215.61 296.29 223.04 291.52 230.73 286.83 238.47 281.89 246.36 276.97 254.33 272.07 262.22 266.88 270.14 261.67 278.03 256.42 285.76 250.86 293.46 245.26 301.09 239.62 308.54 233.69 315.94 227.74 323.31 221.8 330.49 215.64 337.69 209.53 344.9 203.53 351.97 197.43 359.11 191.53 366.36 185.88 373.49 180.29 380.78 175.07 388.25 170.3 395.66 165.76 403.29 161.79 411.16 158.47 419 155.53 427.12 153.35 435.53 151.99" stroke-dasharray="0 0" transform="rotate(60.244897959183675, 400, 400)" opacity="0.40"></path><path d="M438.43 158.42C446.63 157.56 454.85 157.57 463.09 158.39 471.32 159.71 479.53 161.82 487.69 164.67 495.8 167.94 503.8 171.88 511.62 176.42 519.32 181.26 526.76 186.62 533.84 192.41 540.71 198.37 547.11 204.67 552.94 211.25 558.43 217.87 563.23 224.69 567.24 231.64 570.81 238.53 573.5 245.5 575.24 252.51 576.48 259.38 576.75 266.27 576.04 273.15 574.92 279.84 572.92 286.53 570.1 293.2 567.12 299.67 563.57 306.16 559.61 312.65 555.93 318.96 552.2 325.31 548.65 331.72 545.93 337.98 543.79 344.33 542.47 350.8 542.48 357.15 543.64 363.65 546.06 370.31 550.09 376.9 555.49 383.69 562.22 390.7 570.4 397.66 579.67 404.87 589.82 412.34 600.76 419.79 612.01 427.51 623.18 435.52 634.15 443.53 644.06 451.63 652.6 459.82 660.01 468 665.58 476.26 669.16 484.55 671.13 492.82 670.99 501.1 668.83 509.34 665.07 517.52 659.48 525.61 652.28 533.54 643.88 541.36 634.27 548.95 623.73 556.23 612.56 563.31 600.89 570 588.98 576.2 577 582.11 565.12 587.43 553.5 592.09 542.22 596.35 531.4 599.86 521.12 602.55 511.38 604.78 502.22 606.15 493.63 606.6 485.61 606.6 478.09 605.71 471.04 603.94 464.45 601.82 458.2 598.92 452.21 595.31 446.55 591.57 441.02 587.31 435.55 582.64 430.27 578.18 424.94 573.58 419.49 568.99 414.14 564.99 408.6 561.28 402.84 558 397.1 555.68 391.1 554.03 384.82 553.15 378.54 553.45 371.97 554.64 365.11 556.73 358.26 560.02 351.3 564.04 344.28 568.65 337.28 574.14 330.26 579.95 323.25 585.89 316.31 592.28 309.43 598.48 302.68 604.34 296.04 610.21 289.56 615.44 283.33 619.93 274.34 625.68 258.26 631.43 251.35 631.24 245.18 629.04 235.42 618.78 231.84 611.06 229.71 605.17 228 598.6 226.69 591.48 225.36 584.02 224.34 576.11 223.58 567.88 222.65 559.43 221.87 550.76 221.19 541.95 220.18 533.03 219.15 524.06 218.07 515.09 216.52 506.09 214.83 497.15 212.98 488.32 210.61 479.49 208.05 470.8 205.34 462.28 202.15 453.77 198.85 445.45 195.51 437.33 191.85 429.22 188.28 421.31 184.9 413.62 181.47 405.93 178.49 398.63 176.03 391.7 173.8 384.75 172.26 378.16 171.43 371.91 171.03 365.62 171.44 359.64 172.65 353.97 174.38 348.22 176.93 342.75 180.25 337.54 184.07 332.22 188.61 327.12 193.8 322.21 199.39 317.16 205.52 312.26 212.12 307.5 218.97 302.54 226.18 297.66 233.65 292.85 241.23 287.8 248.98 282.78 256.84 277.76 264.67 272.47 272.54 267.15 280.42 261.81 288.18 256.19 295.91 250.52 303.61 244.83 311.14 238.88 318.64 232.92 326.11 226.99 333.42 220.86 340.72 214.81 348.03 208.88 355.21 202.87 362.44 197.06 369.74 191.52 376.95 186.05 384.28 180.94 391.74 176.29 399.15 171.86 406.73 167.99 414.5 164.75 422.26 161.89 430.23 159.76 438.42 158.42" stroke-dasharray="0 0" transform="rotate(63.59183673469388, 400, 400)" opacity="0.42"></path><path d="M440.27 164.84C448.23 163.99 456.16 163.96 464.04 164.72 471.91 165.96 479.71 167.96 487.38 170.67 495 173.79 502.45 177.56 509.65 181.92 516.74 186.58 523.52 191.74 529.88 197.34 536.04 203.12 541.7 209.24 546.77 215.65 551.53 222.12 555.6 228.79 558.9 235.62 561.8 242.41 563.87 249.29 565.05 256.24 565.82 263.07 565.71 269.92 564.72 276.79 563.42 283.5 561.36 290.2 558.61 296.9 555.8 303.43 552.54 309.96 548.99 316.49 545.78 322.87 542.62 329.28 539.69 335.73 537.61 342.05 536.12 348.45 535.43 354.93 536.02 361.31 537.68 367.82 540.51 374.47 544.83 381.05 550.39 387.8 557.16 394.74 565.24 401.64 574.29 408.75 584.1 416.08 594.64 423.39 605.42 430.94 616.11 438.74 626.61 446.53 636.13 454.39 644.37 462.28 651.59 470.17 657.1 478.09 660.78 486.01 662.99 493.9 663.24 501.76 661.6 509.53 658.47 517.25 653.6 524.84 647.18 532.22 639.6 539.5 630.82 546.51 621.08 553.19 610.68 559.67 599.72 565.73 588.42 571.3 576.97 576.59 565.49 581.3 554.18 585.36 543.09 589.06 532.36 592.03 522.06 594.22 512.19 596 502.83 596.96 493.99 597.08 485.63 596.82 477.75 595.73 470.32 593.84 463.31 591.68 456.65 588.81 450.27 585.31 444.22 581.74 438.33 577.72 432.56 573.35 426.98 569.22 421.42 564.98 415.81 560.77 410.31 557.14 404.68 553.79 398.91 550.86 393.17 548.82 387.24 547.4 381.1 546.69 374.96 547.09 368.6 548.29 362.02 550.31 355.44 553.44 348.82 557.24 342.17 561.58 335.55 566.75 328.94 572.2 322.39 577.79 315.89 583.82 309.49 589.69 303.25 595.26 297.09 600.87 291.13 605.92 285.43 610.3 277.21 616.02 262.65 622.27 256.46 622.59 250.94 621.07 242.28 612.51 239.13 605.76 237.23 600.54 235.71 594.66 234.54 588.21 233.32 581.42 232.36 574.18 231.63 566.57 230.7 558.75 229.89 550.67 229.15 542.41 228.06 534.03 226.94 525.56 225.76 517.05 224.11 508.49 222.32 499.95 220.38 491.48 217.92 483.01 215.3 474.63 212.53 466.4 209.29 458.17 205.96 450.1 202.6 442.2 198.94 434.31 195.36 426.6 191.97 419.08 188.53 411.57 185.52 404.41 183.02 397.6 180.73 390.78 179.1 384.28 178.15 378.1 177.61 371.89 177.84 365.96 178.84 360.32 180.34 354.61 182.63 349.14 185.67 343.91 189.2 338.57 193.43 333.43 198.3 328.47 203.58 323.36 209.4 318.38 215.7 313.52 222.28 308.47 229.22 303.5 236.46 298.58 243.82 293.43 251.39 288.3 259.1 283.18 266.82 277.8 274.6 272.4 282.42 266.98 290.16 261.3 297.89 255.59 305.6 249.86 313.18 243.91 320.73 237.96 328.25 232.05 335.64 225.98 343.02 219.99 350.39 214.14 357.65 208.23 364.94 202.53 372.27 197.11 379.53 191.77 386.86 186.79 394.29 182.26 401.68 177.95 409.2 174.18 416.85 171.03 424.49 168.25 432.3 166.16 440.26 164.84" stroke-dasharray="0 0" transform="rotate(66.93877551020408, 400, 400)" opacity="0.44"></path><path d="M440.99 171.26C448.69 170.41 456.32 170.35 463.83 171.06 471.32 172.21 478.69 174.1 485.87 176.67 493 179.64 499.9 183.24 506.5 187.41 513 191.88 519.12 196.85 524.81 202.24 530.31 207.82 535.28 213.76 539.66 219.98 543.75 226.28 547.16 232.79 549.84 239.48 552.17 246.14 553.72 252.92 554.45 259.77 554.85 266.53 554.46 273.34 553.3 280.16 551.92 286.85 549.88 293.55 547.28 300.25 544.71 306.8 541.8 313.36 538.69 319.92 535.99 326.34 533.39 332.78 531.09 339.26 529.62 345.62 528.76 352.04 528.67 358.53 529.78 364.93 531.9 371.43 535.1 378.05 539.67 384.61 545.36 391.31 552.13 398.17 560.08 404.99 568.9 411.99 578.38 419.17 588.5 426.34 598.83 433.71 609.04 441.28 619.09 448.85 628.21 456.44 636.15 464.03 643.16 471.62 648.61 479.2 652.37 486.73 654.78 494.23 655.39 501.66 654.22 508.97 651.67 516.22 647.48 523.3 641.81 530.15 635.03 536.89 627.06 543.34 618.12 549.43 608.51 555.33 598.27 560.8 587.63 565.78 576.75 570.49 565.77 574.63 554.84 578.13 544.03 581.31 533.47 583.79 523.26 585.54 513.38 586.92 503.93 587.54 494.93 587.39 486.33 586.9 478.18 585.67 470.45 583.72 463.1 581.54 456.09 578.74 449.39 575.38 442.98 572 436.78 568.23 430.73 564.17 424.88 560.36 419.09 556.48 413.32 552.65 407.66 549.38 401.94 546.38 396.15 543.77 390.39 542 384.51 540.8 378.49 540.25 372.48 540.72 366.31 541.93 359.98 543.88 353.66 546.87 347.34 550.45 341.05 554.53 334.78 559.38 328.56 564.5 322.45 569.74 316.37 575.42 310.43 580.96 304.66 586.24 298.98 591.58 293.51 596.43 288.3 600.68 280.81 606.33 267.65 612.96 262.11 613.72 257.17 612.8 249.48 605.81 246.69 599.96 244.98 595.38 243.61 590.15 242.54 584.35 241.39 578.22 240.46 571.63 239.73 564.65 238.77 557.45 237.9 549.96 237.08 542.27 235.91 534.44 234.69 526.48 233.4 518.44 231.65 510.35 229.76 502.23 227.72 494.15 225.19 486.06 222.5 478.02 219.67 470.09 216.4 462.17 213.05 454.36 209.67 446.7 206.01 439.05 202.43 431.55 199.04 424.21 195.59 416.87 192.57 409.87 190.03 403.18 187.69 396.48 185.97 390.09 184.91 383.98 184.26 374.9 187.37 357.92 191.15 349.93 194.38 344.58 198.3 339.39 202.84 334.37 207.79 329.2 213.29 324.15 219.27 319.2 225.54 314.07 232.19 309.01 239.16 303.98 246.28 298.75 253.63 293.53 261.14 288.31 268.7 282.86 276.35 277.4 284.06 271.91 291.72 266.2 299.4 260.46 307.07 254.72 314.65 248.79 322.21 242.87 329.74 237 337.17 231 344.58 225.09 351.97 219.33 359.27 213.54 366.59 207.96 373.92 202.66 381.19 197.45 388.5 192.61 395.88 188.2 403.21 184.02 410.64 180.37 418.15 177.31 425.66 174.6 433.27 172.57 440.97 171.27" stroke-dasharray="0 0" transform="rotate(70.28571428571428, 400, 400)" opacity="0.46"></path><path d="M440.57 177.69C448 176.84 455.3 176.75 462.43 177.39 469.54 178.46 476.47 180.24 483.16 182.68 489.8 185.5 496.16 188.92 502.19 192.9 508.11 197.18 513.63 201.94 518.69 207.12 523.57 212.5 527.91 218.23 531.66 224.25 535.17 230.36 538.01 236.7 540.15 243.22 542.01 249.74 543.14 256.39 543.53 263.12 543.66 269.79 543.08 276.52 541.84 283.28 540.46 289.93 538.54 296.6 536.15 303.27 533.88 309.81 531.36 316.37 528.73 322.93 526.55 329.36 524.53 335.82 522.84 342.3 521.97 348.68 521.7 355.1 522.17 361.58 523.76 367.98 526.29 374.47 529.82 381.04 534.59 387.56 540.37 394.19 547.12 400.95 554.93 407.68 563.49 414.56 572.64 421.58 582.35 428.6 592.22 435.77 601.97 443.1 611.57 450.44 620.3 457.75 627.93 465.03 634.74 472.3 640.1 479.53 643.91 486.66 646.5 493.78 647.42 500.78 646.69 507.63 644.69 514.41 641.14 520.99 636.18 527.32 630.16 533.53 622.99 539.43 614.85 544.96 606.02 550.31 596.53 555.22 586.57 559.64 576.32 563.81 565.88 567.43 555.4 570.43 544.96 573.13 534.67 575.18 524.63 576.54 514.84 577.58 505.4 577.91 496.34 577.54 487.61 576.88 479.28 575.55 471.34 573.57 463.72 571.42 456.45 568.72 449.48 565.53 442.78 562.36 436.31 558.85 430.02 555.1 423.93 551.62 417.94 548.09 412.02 544.62 406.21 541.69 400.41 539.03 394.58 536.73 388.8 535.21 382.96 534.22 377.05 533.82 371.14 534.36 365.14 535.57 359.05 537.46 352.96 540.29 346.93 543.67 340.98 547.49 335.03 552.04 329.19 556.83 323.48 561.74 317.8 567.07 312.28 572.28 306.97 577.27 301.72 582.34 296.7 586.98 291.96 591.08 279.19 600.07 263.87 604.26 260.2 602.21 257 598.69 252.3 587.4 250.67 579.91 249.55 574.42 248.63 568.45 247.86 562.09 246.85 555.5 245.91 548.61 245 541.47 243.73 534.2 242.4 526.76 240.99 519.21 239.13 511.6 237.14 503.93 235.01 496.25 232.41 488.55 229.65 480.88 226.77 473.27 223.48 465.67 220.11 458.15 216.72 450.74 213.06 443.34 209.5 436.06 206.11 428.92 202.67 421.77 199.63 414.92 197.07 408.37 194.68 401.8 192.89 395.5 191.72 389.47 190.86 380.49 193.34 363.58 196.7 355.57 199.63 350.2 203.23 344.97 207.45 339.89 212.06 334.67 217.22 329.55 222.86 324.52 228.8 319.32 235.13 314.17 241.79 309.06 248.64 303.76 255.73 298.46 263.01 293.16 270.36 287.66 277.83 282.14 285.38 276.62 292.92 270.89 300.5 265.15 308.08 259.41 315.61 253.51 323.13 247.64 330.61 241.83 338.03 235.91 345.43 230.1 352.8 224.45 360.1 218.78 367.4 213.34 374.69 208.17 381.93 203.11 389.19 198.41 396.48 194.13 403.74 190.08 411.04 186.54 418.39 183.57 425.73 180.94 433.12 178.97 440.56 177.69" stroke-dasharray="0 0" transform="rotate(73.63265306122449, 400, 400)" opacity="0.48"></path><path d="M439.02 184.11C446.17 183.27 453.12 183.15 459.87 183.73 466.6 184.72 473.09 186.39 479.31 188.69 485.47 191.35 491.32 194.6 496.8 198.39 502.18 202.46 507.14 207.01 511.62 211.98 515.93 217.14 519.72 222.66 522.92 228.46 525.91 234.38 528.28 240.52 529.98 246.86 531.46 253.21 532.26 259.71 532.41 266.3 532.36 272.86 531.7 279.48 530.46 286.14 529.17 292.72 527.43 299.33 525.32 305.94 523.39 312.46 521.29 318.98 519.16 325.51 517.5 331.94 516.05 338.38 514.95 344.84 514.65 351.21 514.93 357.62 515.92 364.07 517.96 370.45 520.86 376.89 524.66 383.4 529.59 389.86 535.43 396.42 542.13 403.07 549.77 409.69 558.08 416.43 566.88 423.28 576.18 430.13 585.61 437.09 594.9 444.18 604.05 451.26 612.4 458.29 619.73 465.25 626.32 472.2 631.59 479.07 635.42 485.81 638.16 492.53 639.35 499.11 639.02 505.49 637.52 511.82 634.57 517.91 630.29 523.73 625 529.44 618.6 534.82 611.23 539.81 603.19 544.64 594.45 549.03 585.2 552.93 575.62 556.61 565.76 559.75 555.8 562.3 545.79 564.59 535.85 566.25 526.09 567.27 516.48 568.02 507.14 568.13 498.12 567.57 489.36 566.8 480.95 565.41 472.89 563.44 465.1 561.36 457.63 558.78 450.47 555.78 443.54 552.83 436.85 549.59 430.38 546.15 424.08 543 417.92 539.81 411.88 536.69 405.94 534.1 400.06 531.75 394.21 529.74 385.51 528.07 368.06 528.61 359.26 531.03 353.38 533.73 347.61 536.9 341.97 540.48 336.33 544.74 330.82 549.21 325.49 553.79 320.18 558.78 315.06 563.67 310.16 568.36 303.01 575.37 290.16 586.91 284.56 591.02 269.99 592.95 260.45 581.5 258.88 574.9 257.77 570.01 256.83 564.65 256 558.88 254.92 552.9 253.89 546.58 252.87 540 251.49 533.29 250.04 526.38 248.51 519.32 246.56 512.19 244.47 504.98 242.24 497.72 239.56 490.43 236.75 483.13 233.83 475.87 230.51 468.6 227.13 461.38 223.75 454.24 220.1 447.11 216.56 440.06 213.18 433.12 209.75 426.17 206.72 419.49 204.13 413.07 201.7 406.64 199.84 400.45 198.58 394.49 197.51 385.61 199.38 368.79 202.34 360.76 204.97 355.38 208.25 350.12 212.13 344.98 216.39 339.72 221.2 334.55 226.48 329.44 232.07 324.19 238.07 318.97 244.4 313.78 250.93 308.42 257.73 303.07 264.73 297.72 271.83 292.18 279.08 286.64 286.43 281.09 293.8 275.36 301.22 269.64 308.66 263.93 316.08 258.08 323.51 252.27 330.9 246.54 338.26 240.73 345.59 235.03 352.89 229.5 360.15 223.97 367.38 218.67 374.6 213.65 381.77 208.73 388.95 204.18 396.11 200.04 403.25 196.12 410.41 192.7 417.56 189.83 424.71 187.29 431.87 185.36 439.01 184.11" stroke-dasharray="0 0" transform="rotate(76.9795918367347, 400, 400)" opacity="0.50"></path><path d="M436.4 190.54C443.24 189.7 449.85 189.56 456.21 190.08 462.55 190.99 468.62 192.54 474.37 194.7 480.08 197.21 485.44 200.29 490.41 203.88 495.29 207.75 499.73 212.08 503.69 216.82 507.51 221.76 510.81 227.05 513.54 232.63 516.1 238.33 518.07 244.27 519.43 250.4 521.64 262.76 521.5 275.65 519.24 288.77 517.02 301.66 513.66 314.68 509.99 327.69 508.86 334.08 507.96 340.49 507.43 346.9 507.67 353.24 508.47 359.6 509.93 365.99 512.36 372.33 515.58 378.7 519.62 385.13 524.67 391.52 530.54 397.97 537.15 404.5 544.61 411 552.65 417.59 561.11 424.25 570 430.91 578.99 437.66 587.83 444.48 596.55 451.3 604.51 458.04 611.54 464.67 617.91 471.3 623.06 477.81 626.9 484.16 629.75 490.49 631.19 496.64 631.22 502.58 630.18 508.45 627.78 514.08 624.13 519.41 619.55 524.63 613.88 529.52 607.28 534.01 600 538.36 592.02 542.26 583.5 545.69 565.41 551.96 546.42 556.06 527.53 557.77 509 558.6 491.37 557.07 474.97 553.34 467.1 551.35 459.53 548.92 452.25 546.12 445.16 543.41 438.33 540.45 431.72 537.33 425.26 534.49 418.97 531.64 412.84 528.86 406.8 526.59 400.86 524.54 395 522.81 386.3 521.45 369.12 522.26 360.59 524.61 354.91 527.16 349.39 530.15 344.02 533.49 338.66 537.46 333.48 541.62 328.48 545.89 323.51 550.54 318.75 555.11 314.22 559.51 307.62 566.13 295.86 577.2 290.79 581.27 286.12 584.32 275.18 585.65 270.69 579.75 267.81 573.62 265.7 565.21 264.13 555.02 262.96 549.62 261.82 543.87 260.68 537.84 259.19 531.68 257.62 525.28 255.97 518.73 253.91 512.09 251.72 505.33 249.4 498.5 246.66 491.63 243.8 484.72 240.84 477.81 237.51 470.89 234.13 463.99 230.75 457.13 227.13 450.28 223.6 443.47 220.25 436.74 216.84 430.01 213.81 423.51 211.21 417.23 208.76 410.94 206.84 404.86 205.49 398.99 204.23 390.23 205.51 373.51 208.07 365.48 210.4 360.09 213.36 354.81 216.9 349.63 220.81 344.34 225.25 339.12 230.17 333.96 240.9 323.23 253.13 312.57 266.36 301.98 280.1 290.73 294.39 279.45 308.88 268.28 316.14 262.5 323.41 256.78 330.67 251.15 337.91 245.45 345.13 239.88 352.32 234.48 359.48 229.1 366.61 223.95 373.7 219.09 380.77 214.33 387.81 209.93 394.81 205.93 401.81 202.15 408.78 198.85 415.72 196.08 422.65 193.62 429.55 191.76 436.39 190.54" stroke-dasharray="0 0" transform="rotate(80.3265306122449, 400, 400)" opacity="0.52"></path><path d="M432.76 196.96C439.29 196.13 445.55 195.96 451.53 196.43 457.49 197.25 463.14 198.7 468.46 200.72 478.96 205.75 487.91 212.86 495.05 221.66 501.71 231.25 506.29 242.12 508.65 253.87 510.49 265.84 510.27 278.37 508.26 291.18 506.51 303.83 503.91 316.65 501.25 329.48 500.56 342.05 501.28 354.69 504.18 367.36 510.62 379.83 520 392.47 532.2 405.23 539.46 411.6 547.21 418.01 555.32 424.48 563.81 430.94 572.36 437.45 580.77 444.01 589.05 450.56 596.63 457 603.36 463.31 609.49 469.6 614.52 475.75 618.34 481.71 623.29 493.57 622.95 504.56 617.73 514.38 609.04 523.83 596.56 531.79 581.42 537.96 564.71 543.45 546.88 546.87 528.87 548.08 510.98 548.57 493.72 546.92 477.48 543.3 461.95 539.55 447.43 534.49 433.92 528.63 420.95 523.91 408.63 519.48 396.87 515.92 388.2 514.85 371.3 515.91 363.02 518.18 357.52 520.6 352.22 523.4 347.11 526.51 342 530.2 337.1 534.07 332.42 538.03 323.08 546.99 314.7 555.36 307.43 562.48 297.3 571.78 283.22 576.88 279.01 572.15 276.16 566.99 273.97 559.64 272.21 550.53 269.39 540.65 266.5 529.46 263.34 517.4 258.63 505.03 253.42 492.13 247.8 479.05 244.46 472.49 241.09 465.91 237.72 459.34 234.14 452.78 230.65 446.23 227.32 439.73 223.94 433.22 220.93 426.91 218.32 420.78 215.85 414.65 213.88 408.69 212.45 402.91 210.46 391.27 210.96 380.21 213.9 369.67 218.37 358.84 225.17 348.32 233.95 338.04 243.92 327.28 255.41 316.58 267.95 305.94 281.06 294.73 294.8 283.53 308.79 272.47 322.91 261.03 337.1 249.9 351.14 239.4 365.15 229.03 379.03 219.69 392.66 211.81 399.47 208.18 406.23 205 412.92 202.33 419.61 199.96 426.23 198.16 432.75 196.96" stroke-dasharray="0 0" transform="rotate(83.6734693877551, 400, 400)" opacity="0.53"></path><path d="M428.22 203.39C440.62 202.1 451.83 203.29 461.7 206.76 471.39 211.46 479.52 218.16 485.86 226.5 491.81 235.62 495.8 245.99 497.77 257.26 499.41 268.8 499.25 280.94 497.61 293.38 496.41 305.75 494.63 318.31 492.96 330.89 493.25 343.28 494.94 355.73 498.67 368.17 505.63 380.46 515.21 392.85 527.25 405.29 541.89 417.68 557.8 430.21 573.7 442.77 589.16 455.33 601.48 467.3 609.77 478.5 614.94 489.6 615.27 499.75 611.07 508.7 603.67 517.3 592.63 524.42 578.94 529.81 563.64 534.6 547.04 537.46 530.03 538.26 512.92 538.5 496.19 536.8 480.28 533.36 464.89 529.91 450.4 525.32 436.88 520.07 423.81 515.95 411.45 512.12 399.75 509.09 388.23 508.4 377.12 509.23 366.47 511.76 355.82 516.97 346.06 523.31 337.24 530.23 328.43 538.55 320.62 546.35 313.93 553.05 298 564.95 283.36 556.71 280.22 545.41 277.18 536.6 274.04 526.44 270.62 515.34 265.74 503.93 260.4 491.9 254.71 479.55 247.79 467.14 240.86 454.56 234.39 442.02 227.73 429.48 222.66 417.53 219.46 406.2 217.25 394.78 217.39 383.83 219.84 373.32 223.71 362.54 229.82 352.01 237.85 341.69 247.04 330.94 257.75 320.23 269.53 309.6 281.95 298.48 295.05 287.4 308.47 276.5 322.09 265.3 335.82 254.45 349.43 244.26 363.07 234.24 376.56 225.25 389.72 217.68 402.92 210.92 415.82 206.04 428.21 203.39" stroke-dasharray="0 0" transform="rotate(87.02040816326532, 400, 400)" opacity="0.55"></path><path d="M422.9 209.81C434.63 208.52 445.12 209.59 454.23 212.8 463.18 217.18 470.57 223.47 476.25 231.33 481.62 239.97 485.17 249.84 486.92 260.6 488.49 271.68 488.53 283.37 487.36 295.41 486.77 307.43 485.81 319.67 485.13 331.95 486.34 344.09 488.91 356.3 493.38 368.46 500.76 380.51 510.47 392.61 522.3 404.67 536.41 416.71 551.57 428.79 566.63 440.78 581.29 452.78 593.06 464.09 601.17 474.55 606.51 484.91 607.43 494.27 604.17 502.4 597.98 510.22 588.32 516.58 576.05 521.27 562.16 525.46 546.84 527.84 530.91 528.34 514.71 528.4 498.66 526.73 483.23 523.51 468.15 520.39 453.84 516.29 440.44 511.64 427.4 508.1 415.09 504.84 403.5 502.31 392.08 501.92 381.17 502.88 370.85 505.34 360.52 510.23 351.18 516.1 342.85 522.48 334.51 530.18 327.2 537.41 320.99 543.67 306.03 555.45 291.61 549.6 288.14 539.69 284.87 531.87 281.47 522.7 277.81 512.53 272.77 502.06 267.32 490.88 261.57 479.27 254.7 467.59 247.85 455.63 241.46 443.58 234.89 431.53 229.83 419.93 226.53 408.83 224.12 397.66 223.92 386.85 225.89 376.4 229.18 365.72 234.61 355.22 241.88 344.9 250.28 334.21 260.18 323.55 271.18 312.97 282.84 301.99 295.23 291.08 307.99 280.38 321.03 269.46 334.22 258.93 347.3 249.07 360.47 239.42 373.48 230.78 386.13 223.53 398.83 217.06 411.15 212.38 422.89 209.81" stroke-dasharray="0 0" transform="rotate(90.3673469387755, 400, 400)" opacity="0.57"></path><path d="M416.94 216.24C428.01 214.95 437.81 215.89 446.22 218.85 454.51 222.91 461.26 228.79 466.4 236.18 471.32 244.32 474.58 253.67 476.24 263.91 477.86 274.48 478.2 285.7 477.58 297.27 477.64 308.9 477.51 320.76 477.77 332.68 479.84 344.52 483.21 356.42 488.32 368.25 496.03 380.01 505.79 391.76 517.36 403.42 530.92 415.07 545.33 426.67 559.56 438.09 573.44 449.51 584.66 460.16 592.55 469.91 598.01 479.57 599.44 488.18 597.03 495.55 591.96 502.66 583.61 508.33 572.72 512.43 560.24 516.1 546.23 518.1 531.45 518.38 516.27 518.34 501.02 516.75 486.2 513.8 471.6 511.03 457.61 507.43 444.45 503.36 431.57 500.37 419.4 497.64 407.99 495.57 396.72 495.46 386.05 496.54 376.04 498.91 366.02 503.49 357.07 508.92 349.16 514.78 341.22 521.87 334.32 528.56 328.51 534.37 314.26 545.88 299.77 542.05 295.93 533.4 292.43 526.51 288.78 518.27 284.88 508.99 279.71 499.43 274.17 489.08 268.38 478.2 261.57 467.26 254.83 455.93 248.53 444.38 242.07 432.84 237.03 421.61 233.65 410.78 231.07 399.87 230.55 389.24 232.07 378.89 234.8 368.35 239.56 357.93 246.08 347.66 253.68 337.08 262.75 326.52 272.93 316.05 283.79 305.27 295.41 294.56 307.45 284.11 319.81 273.51 332.37 263.33 344.86 253.82 357.47 244.56 369.93 236.3 382.01 229.36 394.14 223.19 405.87 218.71 416.94 216.24" stroke-dasharray="0 0" transform="rotate(93.71428571428571, 400, 400)" opacity="0.59"></path><path d="M410.51 222.66C420.92 221.38 430.06 222.19 437.85 224.91 445.53 228.66 451.76 234.13 456.48 241.05 461.06 248.68 464.15 257.49 465.85 267.18 467.62 277.23 468.34 287.93 468.32 299.01 469.05 310.19 469.74 321.62 470.88 333.13 473.73 344.61 477.81 356.14 483.45 367.58 491.41 378.99 501.15 390.37 512.43 401.58 525.41 412.8 539.07 423.9 552.49 434.73 565.59 445.56 576.27 455.57 583.91 464.64 589.44 473.62 591.31 481.53 589.66 488.21 585.63 494.67 578.51 499.74 568.94 503.32 557.84 506.57 545.15 508.26 531.57 508.4 517.48 508.32 503.15 506.87 489.07 504.22 475.07 501.83 461.55 498.72 448.74 495.22 436.15 492.75 424.22 490.53 413.05 488.89 402.01 489.02 391.59 490.2 381.89 492.49 372.19 496.77 363.58 501.76 356.04 507.12 348.44 513.63 341.89 519.77 336.38 525.14 322.6 536.24 307.82 534.07 303.59 526.57 299.84 520.53 295.95 513.17 291.84 504.73 286.55 496.04 280.94 486.5 275.14 476.35 268.42 466.13 261.78 455.43 255.6 444.41 249.26 433.39 244.27 422.57 240.82 412.02 238.09 401.43 237.28 391.01 238.38 380.81 240.57 370.44 244.68 360.16 250.47 349.99 257.27 339.57 265.5 329.17 274.84 318.87 284.85 308.32 295.66 297.88 306.92 287.71 318.54 277.47 330.4 267.65 342.22 258.53 354.2 249.68 366.03 241.79 377.49 235.19 389.01 229.32 400.1 225.04 410.51 222.66" stroke-dasharray="0 0" transform="rotate(97.06122448979592, 400, 400)" opacity="0.61"></path><path d="M403.79 229.08C413.54 227.82 422.07 228.51 429.3 231 436.45 234.43 442.24 239.5 446.66 245.93 451 253.06 454.03 261.33 455.87 270.45 457.87 279.95 459.03 290.1 459.64 300.64 461.03 311.33 462.49 322.29 464.46 333.33 468.01 344.39 472.7 355.49 478.78 366.51 486.91 377.52 496.55 388.46 507.49 399.2 519.88 409.95 532.79 420.53 545.42 430.77 557.76 441.01 567.88 450.39 575.26 458.8 580.8 467.13 583.04 474.4 582.07 480.46 578.98 486.33 573.01 490.88 564.71 494.03 554.94 496.92 543.57 498.4 531.21 498.46 518.27 498.41 504.95 497.13 491.69 494.81 478.42 492.8 465.49 490.17 453.15 487.22 440.96 485.24 429.37 483.49 418.51 482.25 407.75 482.61 397.63 483.86 388.24 486.06 378.85 490.05 370.56 494.64 363.34 499.52 356.04 505.46 349.77 511.07 344.48 516 330.99 526.57 315.7 525.73 311.07 519.24 307.1 513.98 302.98 507.42 298.67 499.78 293.28 491.91 287.64 483.15 281.85 473.72 275.23 464.21 268.72 454.15 262.66 443.67 256.47 433.18 251.54 422.79 248.05 412.57 245.2 402.31 244.12 392.16 244.82 382.15 246.51 372.01 249.99 361.91 255.06 351.9 261.08 341.69 268.48 331.5 276.96 321.42 286.11 311.16 296.06 301.02 306.5 291.19 317.32 281.34 328.42 271.92 339.51 263.2 350.79 254.77 361.94 247.27 372.73 241.01 383.6 235.44 394.04 231.37 403.79 229.08" stroke-dasharray="0 0" transform="rotate(100.40816326530613, 400, 400)" opacity="0.63"></path><path d="M396.97 235.51C406.08 234.26 414.03 234.84 420.78 237.09 427.46 240.22 432.9 244.88 437.12 250.85 441.3 257.47 444.36 265.17 446.42 273.72 448.71 282.65 450.34 292.22 451.59 302.2 453.61 312.34 455.81 322.78 458.52 333.32 462.67 343.9 467.87 354.53 474.29 365.08 482.49 375.63 491.99 386.09 502.54 396.33 514.33 406.59 526.5 416.62 538.35 426.27 549.94 435.92 559.51 444.68 566.61 452.48 573.38 463.54 569.58 479.77 560.01 484.63 551.53 487.24 541.45 488.56 530.32 488.62 518.56 488.63 506.3 487.57 493.96 485.6 481.52 483.97 469.28 481.81 457.51 479.38 445.83 477.86 434.67 476.54 424.19 475.65 413.78 476.21 403.99 477.52 394.92 479.64 385.85 483.35 377.86 487.54 370.9 491.97 363.87 497.37 357.81 502.46 352.68 506.95 339.3 516.9 323.38 517.06 318.35 511.47 314.17 506.9 309.86 501.09 305.37 494.19 299.92 487.09 294.25 479.08 288.5 470.33 282 461.52 275.65 452.09 269.73 442.16 263.69 432.23 258.84 422.28 255.34 412.42 252.38 402.54 251.07 392.68 251.4 382.92 252.62 373.05 255.5 363.19 259.89 353.4 265.14 343.45 271.71 333.53 279.34 323.73 287.6 313.8 296.68 304.02 306.27 294.56 316.25 285.12 326.53 276.14 336.86 267.84 347.38 259.84 357.81 252.74 367.91 246.83 378.09 241.55 387.85 237.7 396.97 235.51" stroke-dasharray="0 0" transform="rotate(103.75510204081633, 400, 400)" opacity="0.65"></path><path d="M390.22 241.93C398.71 240.7 406.14 241.17 412.45 243.2 418.73 246.04 423.9 250.3 427.99 255.8 432.1 261.9 435.25 269.05 437.59 277.01 440.2 285.35 442.31 294.32 444.18 303.71 446.81 313.28 449.66 323.15 453.03 333.14 457.7 343.2 463.31 353.32 469.97 363.34 478.17 373.4 487.46 383.35 497.59 393.05 508.77 402.78 520.2 412.25 531.28 421.31 542.14 430.37 551.15 438.54 557.94 445.75 564.75 455.96 562.82 470.78 554.84 475.17 547.58 477.56 538.75 478.79 528.84 478.89 518.28 479.01 507.12 478.19 495.76 476.57 484.22 475.32 472.76 473.62 461.65 471.68 450.58 470.59 439.93 469.67 429.89 469.1 419.9 469.83 410.47 471.19 401.74 473.21 393 476.65 385.3 480.47 378.58 484.46 371.78 489.35 365.9 493.94 360.87 497.99 353.45 504.01 341.51 510.45 336.46 510.23 330.83 508.11 318.81 496.78 311.94 488 306.45 481.61 300.79 474.3 295.09 466.23 288.74 458.1 282.55 449.29 276.8 439.92 270.93 430.55 266.18 421.08 262.68 411.61 259.64 402.14 258.13 392.62 258.13 383.15 258.91 373.6 261.23 364.03 264.96 354.52 269.47 344.89 275.24 335.29 282.02 325.81 289.41 316.26 297.6 306.88 306.33 297.83 315.43 288.84 324.87 280.3 334.4 272.44 344.12 264.89 353.79 258.2 363.18 252.63 372.64 247.66 381.73 244.02 390.22 241.93" stroke-dasharray="0 0" transform="rotate(107.10204081632652, 400, 400)" opacity="0.67"></path><path d="M383.75 248.36C391.64 247.15 398.57 247.52 404.52 249.33 410.45 251.88 415.4 255.76 419.43 260.79 423.52 266.39 426.82 272.98 429.46 280.34 432.41 288.07 435 296.43 437.45 305.2 440.62 314.17 444.06 323.44 447.99 332.84 453.08 342.33 458.99 351.89 465.8 361.37 473.93 370.88 482.94 380.29 492.63 389.43 503.17 398.61 513.88 407.51 524.21 415.98 534.35 424.45 542.81 432.05 549.27 438.71 556.05 448.13 555.74 461.71 549.22 465.73 543.1 467.96 535.47 469.15 526.73 469.34 517.37 469.59 507.33 469.03 496.98 467.77 486.41 466.89 475.8 465.61 465.42 464.13 455.03 463.44 444.97 462.87 435.42 462.6 425.91 463.47 416.9 464.86 408.51 466.79 400.12 469.97 392.7 473.43 386.19 477.01 379.61 481.4 373.86 485.51 368.89 489.13 361.52 494.59 349.3 500.62 343.93 500.6 338 498.94 325.41 489.11 318.36 481.27 312.86 475.53 307.25 468.89 301.63 461.47 295.45 453.98 289.45 445.79 283.87 436.98 278.19 428.18 273.55 419.2 270.07 410.17 266.99 401.13 265.3 392 265.01 382.86 265.38 373.69 267.19 364.46 270.3 355.28 274.1 346.02 279.09 336.79 285.06 327.69 291.58 318.57 298.89 309.62 306.74 301.01 314.96 292.49 323.54 284.43 332.25 277.02 341.15 269.92 350.04 263.65 358.71 258.43 367.45 253.77 375.86 250.35 383.75 248.36" stroke-dasharray="0 0" transform="rotate(110.44897959183673, 400, 400)" opacity="0.69"></path><path d="M377.73 254.78C385.05 253.61 391.52 253.88 397.15 255.48 402.76 257.75 407.55 261.25 411.57 265.83 415.68 270.92 419.15 276.95 422.11 283.72 425.39 290.85 428.42 298.57 431.4 306.71 435.05 315.05 438.99 323.7 443.38 332.49 448.79 341.38 454.91 350.34 461.78 359.23 469.75 368.17 478.45 377 487.66 385.57 497.57 394.17 507.56 402.49 517.16 410.38 526.58 418.27 534.48 425.31 540.61 431.46 547.81 446.4 534.83 459.08 523.98 459.99 515.78 460.4 506.85 460.09 497.53 459.19 487.97 458.66 478.25 457.79 468.65 456.74 459.02 456.4 449.6 456.15 440.6 456.14 431.62 457.13 423.06 458.53 415.05 460.36 407.03 463.29 399.89 466.42 393.58 469.6 387.2 473.52 381.57 477.18 376.65 480.38 369.29 485.27 356.75 490.81 351.09 490.91 344.88 489.6 331.8 481.06 324.63 474.05 319.16 468.92 313.62 462.9 308.12 456.09 302.12 449.22 296.32 441.64 290.94 433.4 285.46 425.17 280.96 416.71 277.52 408.13 274.42 399.56 272.6 390.85 272.04 382.11 272.06 373.35 273.38 364.52 275.91 355.72 279.05 346.88 283.3 338.06 288.48 329.4 294.16 320.73 300.61 312.25 307.6 304.12 314.93 296.1 322.65 288.53 330.54 281.59 338.61 274.95 346.71 269.09 354.66 264.23 362.67 259.87 370.42 256.66 377.73 254.78" stroke-dasharray="0 0" transform="rotate(113.79591836734694, 400, 400)" opacity="0.71"></path><path d="M372.33 261.21C382.12 260.15 398.16 265.22 404.53 270.92 408.67 275.52 412.32 281 415.59 287.18 419.16 293.69 422.6 300.77 426.05 308.26 430.09 315.96 434.43 323.96 439.18 332.11 444.8 340.37 451.04 348.71 457.88 356.99 465.64 365.32 473.97 373.55 482.66 381.53 491.93 389.54 501.21 397.28 510.09 404.59 518.81 411.91 526.17 418.41 531.94 424.08 539.55 437.87 529.8 449.81 520.56 450.88 513.48 451.45 505.65 451.41 497.35 450.85 488.8 450.65 480.01 450.15 471.23 449.49 462.39 449.47 453.67 449.51 445.26 449.72 436.86 450.8 428.79 452.21 421.16 453.94 413.54 456.62 406.69 459.43 400.58 462.25 391.64 467.33 376.65 476.07 370.26 478.96 363.8 481.03 351.43 480.13 345.13 477.03 340.39 474.46 335.59 470.91 330.76 466.43 325.35 461.84 319.91 456.4 314.54 450.17 308.75 443.9 303.18 436.9 298.01 429.24 292.75 421.58 288.4 413.65 285.03 405.56 281.94 397.49 280 389.24 279.22 380.94 278.92 372.63 279.82 364.24 281.82 355.87 284.35 347.5 287.9 339.15 292.33 330.95 297.2 322.78 302.82 314.8 308.98 307.17 315.44 299.67 322.3 292.6 329.38 286.14 336.62 279.97 343.95 274.53 351.17 270.02 358.46 265.97 365.57 262.98 372.33 261.21" stroke-dasharray="0 0" transform="rotate(117.14285714285714, 400, 400)" opacity="0.73"></path><path d="M367.69 267.63C376.76 266.58 392.04 270.98 398.39 276.07 402.57 280.19 406.38 285.13 409.93 290.72 413.77 296.62 417.54 303.07 421.37 309.9 425.73 316.94 430.37 324.28 435.37 331.77 441.11 339.38 447.35 347.08 454.08 354.72 461.56 362.42 469.48 370.03 477.65 377.42 486.27 384.82 494.84 391.98 503.02 398.72 511.06 405.47 517.87 411.47 523.28 416.69 531.13 429.45 524.22 440.8 516.46 442.04 510.44 442.79 503.66 443 496.37 442.77 488.83 442.87 480.97 442.71 473.04 442.4 465.02 442.65 457.03 442.94 449.25 443.34 441.46 444.49 433.9 445.89 426.7 447.52 419.49 449.96 412.94 452.47 407.03 454.95 398.37 459.4 383.49 467 376.98 469.51 370.38 471.35 357.62 470.61 351.15 467.88 346.36 465.64 341.54 462.5 336.72 458.49 331.41 454.39 326.11 449.47 320.91 443.8 315.36 438.08 310.02 431.66 305.08 424.57 300.06 417.48 295.88 410.09 292.59 402.52 289.54 394.96 287.52 387.21 286.56 379.39 285.99 371.57 286.5 363.67 288.02 355.78 289.99 347.91 292.9 340.06 296.63 332.37 300.74 324.73 305.56 317.29 310.92 310.18 316.54 303.21 322.58 296.66 328.87 290.69 335.3 284.99 341.86 279.98 348.39 275.81 354.98 272.07 361.46 269.3 367.69 267.63" stroke-dasharray="0 0" transform="rotate(120.48979591836735, 400, 400)" opacity="0.75"></path><path d="M363.95 274.06C372.33 273.01 386.9 276.78 393.23 281.29 401.74 288.98 409.57 299.48 417.35 311.66 426.98 324.58 437.97 338.57 450.38 352.5 457.53 359.56 465 366.54 472.61 373.32 480.58 380.12 488.46 386.68 495.95 392.88 503.32 399.07 509.59 404.58 514.62 409.38 520.64 416.19 522.62 430.15 511.69 433.51 501.19 435.5 488.06 435.93 473.96 435.45 466.79 435.94 459.55 436.44 452.41 437 445.26 438.2 438.25 439.57 431.49 441.09 424.72 443.31 418.5 445.53 412.81 447.69 407.08 450.35 401.82 452.76 396.99 454.82 386.97 459.71 378.11 462.23 370.15 461.84 360.84 461.3 351.6 457.41 342.53 450.29 337.36 446.62 332.22 442.2 327.22 437.04 321.92 431.86 316.84 425.99 312.15 419.47 307.38 412.95 303.39 406.12 300.22 399.08 297.22 392.06 295.17 384.84 294.05 377.53 292.85 362.97 295.53 348.06 301.41 333.71 308.55 319.62 318.17 306.42 329.09 295.24 334.74 290.01 340.57 285.42 346.44 281.6 352.34 278.17 358.22 275.61 363.95 274.06" stroke-dasharray="0 0" transform="rotate(123.83673469387755, 400, 400)" opacity="0.77"></path><path d="M361.21 280.48C371.71 278.88 380.99 281.16 389.08 286.57 397.58 293.32 405.74 302.66 413.98 313.56 423.76 325.15 434.74 337.77 446.76 350.4 460.69 363.27 475.29 375.84 488.88 387.15 502.1 398.46 510.94 407.28 514.88 413.51 516.56 419.75 513.34 423.6 506.25 425.32 497.62 427.6 486.38 428.55 473.95 428.66 461.17 430.48 448.01 432.45 435.41 434.67 422.8 439.24 411.84 443.38 402.46 446.55 392.64 450.71 383.74 452.78 375.6 452.31 366.32 451.8 357.12 448.33 348.18 441.92 337.91 435.33 327.94 425.95 319.22 414.03 310.25 402.12 304.35 388.96 301.69 375.43 300.07 361.98 301.91 348.2 306.67 334.97 312.47 322.05 320.61 309.98 330.13 299.79 340.06 290.54 350.71 283.77 361.21 280.48" stroke-dasharray="0 0" transform="rotate(127.18367346938776, 400, 400)" opacity="0.79"></path><path d="M359.54 286.9C369.12 285.35 377.95 287.24 385.98 291.94 394.38 297.79 402.71 305.98 411.2 315.63 420.96 325.9 431.72 337.17 443.21 348.51 456.17 360.07 469.52 371.4 481.81 381.66 493.79 391.91 501.95 399.98 505.86 405.8 507.99 411.65 505.83 415.47 500.17 417.47 493.22 420 483.75 421.39 472.92 422.01 461.77 424.07 449.97 426.14 438.34 428.24 426.72 432.3 416.3 435.82 407.13 438.39 397.6 441.86 388.76 443.49 380.56 442.91 371.43 442.37 362.38 439.23 353.66 433.48 343.89 427.59 334.48 419.15 326.29 408.35 317.88 397.54 312.24 385.54 309.49 373.15 307.54 360.86 308.67 348.27 312.44 336.21 317.04 324.47 323.83 313.55 332.03 304.37 340.55 296.02 349.96 289.91 359.54 286.9" stroke-dasharray="0 0" transform="rotate(130.53061224489795, 400, 400)" opacity="0.81"></path><path d="M359 293.33C367.69 291.83 376.03 293.37 383.91 297.39 392.11 302.38 400.44 309.48 408.97 317.92 418.52 326.9 428.88 336.82 439.7 346.88 451.63 357.13 463.72 367.25 474.74 376.48 485.51 385.7 492.95 393.05 496.76 398.49 498.53 405.87 484.09 413.6 470.87 415.5 461.28 417.73 450.83 419.85 440.22 421.82 429.61 425.38 419.81 428.33 410.94 430.37 401.8 433.19 393.14 434.39 385.01 433.68 376.14 433.08 367.37 430.21 358.99 425.04 349.78 419.78 340.98 412.23 333.36 402.52 325.55 392.81 320.22 381.97 317.45 370.77 315.27 359.67 315.8 348.31 318.71 337.46 322.25 326.92 327.83 317.14 334.82 308.96 342.06 301.5 350.3 296.04 359 293.33" stroke-dasharray="0 0" transform="rotate(133.87755102040816, 400, 400)" opacity="0.83"></path><path d="M359.58 299.75C367.43 298.33 375.23 299.54 382.85 302.93 390.74 307.12 398.89 313.17 407.26 320.44 416.4 328.17 426.19 336.79 436.23 345.59 447.06 354.56 457.89 363.48 467.67 371.71 477.25 379.93 483.96 386.59 487.58 391.65 489.85 398.64 478.84 406.78 467.79 409.14 459.67 411.45 450.55 413.57 440.98 415.39 431.41 418.5 422.31 420.93 413.86 422.49 405.21 424.71 396.86 425.51 388.94 424.68 380.47 423.98 372.1 421.33 364.15 416.69 355.58 412 347.45 405.29 340.43 396.65 333.25 388 328.27 378.34 325.54 368.35 323.24 358.46 323.3 348.36 325.47 338.74 328.11 329.41 332.61 320.78 338.51 313.58 344.58 307.01 351.74 302.18 359.58 299.75" stroke-dasharray="0 0" transform="rotate(137.22448979591837, 400, 400)" opacity="0.84"></path><path d="M361.29 306.18C368.29 304.84 375.52 305.77 382.75 308.56 390.19 312 397.99 317.07 406 323.23 414.57 329.76 423.64 337.12 432.77 344.7 442.47 352.43 452.04 360.18 460.6 367.43 472 377.67 480.9 391.89 478.4 396.24 475.32 399.15 470.24 401.34 463.7 402.91 456.94 405.24 449.1 407.3 440.6 408.97 432.1 411.63 423.78 413.6 415.87 414.73 407.82 416.41 399.92 416.86 392.37 415.91 384.42 415.11 376.57 412.66 369.16 408.51 361.3 404.34 353.88 398.43 347.49 390.83 340.99 383.24 336.41 374.76 333.78 365.99 331.45 357.32 331.15 348.49 332.72 340.09 334.61 331.96 338.18 324.47 343.09 318.24 348.13 312.52 354.29 308.32 361.29 306.18" stroke-dasharray="0 0" transform="rotate(140.57142857142856, 400, 400)" opacity="0.86"></path><path d="M364.08 312.6C370.25 311.37 376.81 312.04 383.53 314.3 390.41 317.05 397.68 321.2 405.12 326.31 412.97 331.71 421.17 337.86 429.32 344.27 437.83 350.8 446.15 357.43 453.53 363.72 467.56 379.17 465.96 393.99 458.64 396.82 453.14 399.1 446.51 401.05 439.1 402.54 431.69 404.8 424.22 406.34 416.97 407.11 409.63 408.32 402.33 408.46 395.3 407.43 387.99 406.54 380.78 404.27 374.01 400.59 366.93 396.9 360.28 391.75 354.56 385.18 348.75 378.6 344.61 371.29 342.16 363.75 339.88 356.3 339.35 348.72 340.43 341.56 341.71 334.61 344.49 328.23 348.54 322.93 352.66 318.06 357.9 314.46 364.08 312.6" stroke-dasharray="0 0" transform="rotate(143.91836734693877, 400, 400)" opacity="0.88"></path><path d="M367.85 319.03C378.54 317.28 391.42 321.66 404.57 329.7 418.76 338.61 434.03 349.93 446.46 360.64 458.55 371.35 463.47 379.29 461.42 384.13 458.14 389.86 449.14 394.06 436.52 396.12 423.88 400.37 410.26 401.54 397.74 399.24 384.5 397.43 371.48 390.92 361.63 379.78 351.51 368.64 347.25 355.26 348.57 343.16 350.37 331.76 357.16 322.64 367.85 319.03" stroke-dasharray="0 0" transform="rotate(147.26530612244898, 400, 400)" opacity="0.90"></path><path d="M372.52 325.45C381.53 323.84 392.79 327.13 404.27 333.42 416.39 340.33 429.18 349.36 439.39 358.25 451.51 370.62 446.82 385.89 432.92 389.7 422.48 393.05 410.71 393.64 399.72 391.38 388.31 389.51 377.11 383.92 368.7 374.74 360.09 365.54 356.3 354.68 357.11 344.94 358.16 335.73 363.5 328.38 372.52 325.45" stroke-dasharray="0 0" transform="rotate(150.6122448979592, 400, 400)" opacity="0.92"></path><path d="M377.95 331.88C385.27 330.45 394.62 332.79 404.15 337.5 414.03 342.6 424.27 349.5 432.33 356.58 442 366.61 439.24 379.96 428.41 383.27 420.14 385.81 410.45 385.97 401.26 383.87 391.87 382.06 382.66 377.41 375.77 370.13 368.75 362.84 365.53 354.41 366 346.93 366.55 339.81 370.63 334.15 377.95 331.88" stroke-dasharray="0 0" transform="rotate(153.9591836734694, 400, 400)" opacity="0.94"></path><path d="M383.99 338.3C395.13 336.47 413.4 345.07 425.26 355.67 436.78 366.27 435.36 374.86 423.11 376.85 410.86 380.94 393.24 376.87 382.84 366.05 372.14 355.21 372.85 342.07 383.99 338.3" stroke-dasharray="0 0" transform="rotate(157.30612244897958, 400, 400)" opacity="0.96"></path><path d="M390.48 344.72C398.03 343.26 410.38 348.46 418.19 355.54 414.31 368.52 382.77 351.22 390.48 344.72" stroke-dasharray="0 0" transform="rotate(160.6530612244898, 400, 400)" opacity="0.98"></path></g></svg>