<svg xmlns="http://www.w3.org/2000/svg" version="1.1" xmlns:xlink="http://www.w3.org/1999/xlink" xmlns:svgjs="http://svgjs.dev/svgjs" viewBox="0 0 640 800"><g fill="hsl(314, 100%, 50%)" transform="matrix(1,0,0,1,0,0)"><circle r="1.5" cx="325" cy="400" opacity="1.00"></circle><circle r="1.5" cx="325" cy="403" opacity="1.00"></circle><circle r="1.5" cx="323" cy="406" opacity="1.00"></circle><circle r="1.5" cx="319" cy="407" opacity="1.00"></circle><circle r="1.5" cx="316" cy="406" opacity="0.99"></circle><circle r="1.5" cx="313" cy="403" opacity="0.99"></circle><circle r="1.5" cx="312" cy="398" opacity="0.99"></circle><circle r="1.5" cx="314" cy="394" opacity="0.99"></circle><circle r="1.5" cx="318" cy="391" opacity="0.99"></circle><circle r="1.5" cx="323" cy="390" opacity="0.99"></circle><circle r="1.5" cx="328" cy="393" opacity="0.99"></circle><circle r="1.5" cx="331" cy="399" opacity="0.99"></circle><circle r="1.5" cx="331" cy="405" opacity="0.98"></circle><circle r="1.5" cx="327" cy="410" opacity="0.98"></circle><circle r="1.5" cx="320" cy="413" opacity="0.98"></circle><circle r="1.5" cx="313" cy="411" opacity="0.98"></circle><circle r="1.5" cx="308" cy="406" opacity="0.98"></circle><circle r="1.5" cx="306" cy="399" opacity="0.98"></circle><circle r="1.5" cx="308" cy="391" opacity="0.98"></circle><circle r="1.5" cx="315" cy="385" opacity="0.97"></circle><circle r="1.5" cx="323" cy="384" opacity="0.97"></circle><circle r="1.5" cx="332" cy="388" opacity="0.97"></circle><circle r="1.5" cx="337" cy="396" opacity="0.97"></circle><circle r="1.5" cx="337" cy="406" opacity="0.97"></circle><circle r="1.5" cx="332" cy="414" opacity="0.97"></circle><circle r="1.5" cx="323" cy="419" opacity="0.97"></circle><circle r="1.5" cx="312" cy="418" opacity="0.96"></circle><circle r="1.5" cx="303" cy="411" opacity="0.96"></circle><circle r="1.5" cx="299" cy="401" opacity="0.96"></circle><circle r="1.5" cx="302" cy="389" opacity="0.96"></circle><circle r="1.5" cx="310" cy="381" opacity="0.96"></circle><circle r="1.5" cx="322" cy="378" opacity="0.96"></circle><circle r="1.5" cx="334" cy="382" opacity="0.96"></circle><circle r="1.5" cx="342" cy="392" opacity="0.96"></circle><circle r="1.5" cx="344" cy="405" opacity="0.95"></circle><circle r="1.5" cx="338" cy="417" opacity="0.95"></circle><circle r="1.5" cx="326" cy="424" opacity="0.95"></circle><circle r="1.5" cx="312" cy="425" opacity="0.95"></circle><circle r="2" cx="300" cy="417" opacity="0.95"></circle><circle r="2" cx="293" cy="404" opacity="0.95"></circle><circle r="2" cx="295" cy="389" opacity="0.95"></circle><circle r="2" cx="304" cy="377" opacity="0.94"></circle><circle r="2" cx="319" cy="372" opacity="0.94"></circle><circle r="2" cx="334" cy="375" opacity="0.94"></circle><circle r="2" cx="346" cy="386" opacity="0.94"></circle><circle r="2" cx="350" cy="402" opacity="0.94"></circle><circle r="2" cx="345" cy="418" opacity="0.94"></circle><circle r="2" cx="332" cy="429" opacity="0.94"></circle><circle r="2" cx="314" cy="431" opacity="0.93"></circle><circle r="2" cx="298" cy="424" opacity="0.93"></circle><circle r="2" cx="288" cy="409" opacity="0.93"></circle><circle r="2" cx="288" cy="391" opacity="0.93"></circle><circle r="2" cx="297" cy="374" opacity="0.93"></circle><circle r="2" cx="314" cy="366" opacity="0.93"></circle><circle r="2" cx="334" cy="367" opacity="0.93"></circle><circle r="2" cx="349" cy="379" opacity="0.93"></circle><circle r="2" cx="356" cy="398" opacity="0.92"></circle><circle r="2" cx="352" cy="418" opacity="0.92"></circle><circle r="2" cx="338" cy="433" opacity="0.92"></circle><circle r="2" cx="318" cy="438" opacity="0.92"></circle><circle r="2" cx="298" cy="432" opacity="0.92"></circle><circle r="2" cx="284" cy="415" opacity="0.92"></circle><circle r="2" cx="281" cy="394" opacity="0.92"></circle><circle r="2" cx="290" cy="373" opacity="0.91"></circle><circle r="2" cx="308" cy="361" opacity="0.91"></circle><circle r="2" cx="331" cy="360" opacity="0.91"></circle><circle r="2" cx="351" cy="372" opacity="0.91"></circle><circle r="2" cx="362" cy="392" opacity="0.91"></circle><circle r="2" cx="360" cy="416" opacity="0.91"></circle><circle r="2" cx="346" cy="435" opacity="0.91"></circle><circle r="2" cx="323" cy="444" opacity="0.91"></circle><circle r="2" cx="299" cy="439" opacity="0.90"></circle><circle r="2" cx="281" cy="423" opacity="0.90"></circle><circle r="2" cx="274" cy="398" opacity="0.90"></circle><circle r="2" cx="282" cy="374" opacity="0.90"></circle><circle r="2" cx="301" cy="357" opacity="0.90"></circle><circle r="2" cx="327" cy="353" opacity="0.90"></circle><circle r="2" cx="351" cy="363" opacity="0.90"></circle><circle r="2" cx="366" cy="386" opacity="0.89"></circle><circle r="2" cx="368" cy="413" opacity="0.89"></circle><circle r="2" cx="354" cy="436" opacity="0.89"></circle><circle r="2" cx="330" cy="449" opacity="0.89"></circle><circle r="2" cx="302" cy="448" opacity="0.89"></circle><circle r="2" cx="279" cy="431" opacity="0.89"></circle><circle r="2" cx="268" cy="404" opacity="0.89"></circle><circle r="2" cx="273" cy="376" opacity="0.88"></circle><circle r="2" cx="293" cy="354" opacity="0.88"></circle><circle r="2" cx="321" cy="346" opacity="0.88"></circle><circle r="2" cx="350" cy="355" opacity="0.88"></circle><circle r="2" cx="370" cy="377" opacity="0.88"></circle><circle r="2" cx="375" cy="407" opacity="0.88"></circle><circle r="2" cx="363" cy="436" opacity="0.88"></circle><circle r="2" cx="338" cy="454" opacity="0.88"></circle><circle r="2" cx="306" cy="455" opacity="0.87"></circle><circle r="2" cx="279" cy="440" opacity="0.87"></circle><circle r="2" cx="263" cy="412" opacity="0.87"></circle><circle r="2" cx="265" cy="380" opacity="0.87"></circle><circle r="2" cx="284" cy="353" opacity="0.87"></circle><circle r="2" cx="314" cy="340" opacity="0.87"></circle><circle r="2" cx="347" cy="346" opacity="0.87"></circle><circle r="2" cx="372" cy="368" opacity="0.86"></circle><circle r="2.5" cx="382" cy="401" opacity="0.86"></circle><circle r="2.5" cx="372" cy="434" opacity="0.86"></circle><circle r="2.5" cx="347" cy="457" opacity="0.86"></circle><circle r="2.5" cx="312" cy="463" opacity="0.86"></circle><circle r="2.5" cx="280" cy="450" opacity="0.86"></circle><circle r="2.5" cx="259" cy="421" opacity="0.86"></circle><circle r="2.5" cx="257" cy="385" opacity="0.85"></circle><circle r="2.5" cx="274" cy="353" opacity="0.85"></circle><circle r="2.5" cx="306" cy="336" opacity="0.85"></circle><circle r="2.5" cx="342" cy="337" opacity="0.85"></circle><circle r="2.5" cx="373" cy="358" opacity="0.85"></circle><circle r="2.5" cx="387" cy="392" opacity="0.85"></circle><circle r="2.5" cx="382" cy="430" opacity="0.85"></circle><circle r="2.5" cx="357" cy="458" opacity="0.85"></circle><circle r="2.5" cx="320" cy="469" opacity="0.84"></circle><circle r="2.5" cx="283" cy="459" opacity="0.84"></circle><circle r="2.5" cx="257" cy="431" opacity="0.84"></circle><circle r="2.5" cx="249" cy="392" opacity="0.84"></circle><circle r="2.5" cx="264" cy="356" opacity="0.84"></circle><circle r="2.5" cx="296" cy="332" opacity="0.84"></circle><circle r="2.5" cx="336" cy="329" opacity="0.84"></circle><circle r="2.5" cx="371" cy="348" opacity="0.83"></circle><circle r="2.5" cx="392" cy="383" opacity="0.83"></circle><circle r="2.5" cx="391" cy="424" opacity="0.83"></circle><circle r="2.5" cx="367" cy="458" opacity="0.83"></circle><circle r="2.5" cx="329" cy="475" opacity="0.83"></circle><circle r="2.5" cx="288" cy="469" opacity="0.83"></circle><circle r="2.5" cx="256" cy="442" opacity="0.83"></circle><circle r="2.5" cx="243" cy="401" opacity="0.83"></circle><circle r="2.5" cx="253" cy="360" opacity="0.82"></circle><circle r="2.5" cx="285" cy="330" opacity="0.82"></circle><circle r="2.5" cx="327" cy="321" opacity="0.82"></circle><circle r="2.5" cx="368" cy="337" opacity="0.82"></circle><circle r="2.5" cx="395" cy="372" opacity="0.82"></circle><circle r="2.5" cx="399" cy="416" opacity="0.82"></circle><circle r="2.5" cx="379" cy="456" opacity="0.82"></circle><circle r="2.5" cx="340" cy="479" opacity="0.81"></circle><circle r="2.5" cx="295" cy="478" opacity="0.81"></circle><circle r="2.5" cx="257" cy="453" opacity="0.81"></circle><circle r="2.5" cx="237" cy="412" opacity="0.81"></circle><circle r="2.5" cx="243" cy="366" opacity="0.81"></circle><circle r="2.5" cx="273" cy="330" opacity="0.81"></circle><circle r="2.5" cx="317" cy="315" opacity="0.81"></circle><circle r="2.5" cx="363" cy="326" opacity="0.80"></circle><circle r="2.5" cx="396" cy="360" opacity="0.80"></circle><circle r="2.5" cx="406" cy="407" opacity="0.80"></circle><circle r="2.5" cx="390" cy="452" opacity="0.80"></circle><circle r="2.5" cx="352" cy="482" opacity="0.80"></circle><circle r="2.5" cx="303" cy="487" opacity="0.80"></circle><circle r="2.5" cx="259" cy="465" opacity="0.80"></circle><circle r="2.5" cx="234" cy="423" opacity="0.80"></circle><circle r="2.5" cx="234" cy="374" opacity="0.79"></circle><circle r="2.5" cx="261" cy="331" opacity="0.79"></circle><circle r="2.5" cx="306" cy="310" opacity="0.79"></circle><circle r="2.5" cx="356" cy="316" opacity="0.79"></circle><circle r="2.5" cx="396" cy="347" opacity="0.79"></circle><circle r="2.5" cx="413" cy="396" opacity="0.79"></circle><circle r="2.5" cx="401" cy="446" opacity="0.79"></circle><circle r="2.5" cx="365" cy="483" opacity="0.78"></circle><circle r="2.5" cx="314" cy="494" opacity="0.78"></circle><circle r="2.5" cx="264" cy="477" opacity="0.78"></circle><circle r="2.5" cx="231" cy="436" opacity="0.78"></circle><circle r="3" cx="225" cy="383" opacity="0.78"></circle><circle r="3" cx="248" cy="335" opacity="0.78"></circle><circle r="3" cx="293" cy="306" opacity="0.78"></circle><circle r="3" cx="347" cy="306" opacity="0.77"></circle><circle r="3" cx="394" cy="334" opacity="0.77"></circle><circle r="3" cx="418" cy="383" opacity="0.77"></circle><circle r="3" cx="412" cy="438" opacity="0.77"></circle><circle r="3" cx="378" cy="482" opacity="0.77"></circle><circle r="3" cx="326" cy="501" opacity="0.77"></circle><circle r="3" cx="271" cy="489" opacity="0.77"></circle><circle r="3" cx="231" cy="450" opacity="0.77"></circle><circle r="3" cx="218" cy="395" opacity="0.76"></circle><circle r="3" cx="236" cy="341" opacity="0.76"></circle><circle r="3" cx="280" cy="305" opacity="0.76"></circle><circle r="3" cx="337" cy="297" opacity="0.76"></circle><circle r="3" cx="389" cy="321" opacity="0.76"></circle><circle r="3" cx="421" cy="370" opacity="0.76"></circle><circle r="3" cx="422" cy="428" opacity="0.76"></circle><circle r="3" cx="392" cy="478" opacity="0.75"></circle><circle r="3" cx="339" cy="505" opacity="0.75"></circle><circle r="3" cx="280" cy="500" opacity="0.75"></circle><circle r="3" cx="233" cy="464" opacity="0.75"></circle><circle r="3" cx="212" cy="408" opacity="0.75"></circle><circle r="3" cx="224" cy="349" opacity="0.75"></circle><circle r="3" cx="265" cy="305" opacity="0.75"></circle><circle r="3" cx="324" cy="290" opacity="0.74"></circle><circle r="3" cx="382" cy="308" opacity="0.74"></circle><circle r="3" cx="422" cy="355" opacity="0.74"></circle><circle r="3" cx="431" cy="416" opacity="0.74"></circle><circle r="3" cx="406" cy="473" opacity="0.74"></circle><circle r="3" cx="354" cy="508" opacity="0.74"></circle><circle r="3" cx="291" cy="510" opacity="0.74"></circle><circle r="3" cx="237" cy="478" opacity="0.74"></circle><circle r="3" cx="207" cy="422" opacity="0.73"></circle><circle r="3" cx="212" cy="359" opacity="0.73"></circle><circle r="3" cx="250" cy="308" opacity="0.73"></circle><circle r="3" cx="310" cy="284" opacity="0.73"></circle><circle r="3" cx="373" cy="296" opacity="0.73"></circle><circle r="3" cx="421" cy="340" opacity="0.73"></circle><circle r="3" cx="438" cy="403" opacity="0.73"></circle><circle r="3" cx="419" cy="465" opacity="0.72"></circle><circle r="3" cx="370" cy="508" opacity="0.72"></circle><circle r="3" cx="304" cy="519" opacity="0.72"></circle><circle r="3" cx="243" cy="493" opacity="0.72"></circle><circle r="3" cx="205" cy="438" opacity="0.72"></circle><circle r="3" cx="202" cy="371" opacity="0.72"></circle><circle r="3" cx="235" cy="312" opacity="0.72"></circle><circle r="3" cx="294" cy="280" opacity="0.72"></circle><circle r="3" cx="362" cy="284" opacity="0.71"></circle><circle r="3" cx="418" cy="324" opacity="0.71"></circle><circle r="3" cx="444" cy="388" opacity="0.71"></circle><circle r="3" cx="432" cy="455" opacity="0.71"></circle><circle r="3" cx="386" cy="507" opacity="0.71"></circle><circle r="3" cx="319" cy="526" opacity="0.71"></circle><circle r="3" cx="252" cy="507" opacity="0.71"></circle><circle r="3" cx="205" cy="454" opacity="0.70"></circle><circle r="3" cx="193" cy="385" opacity="0.70"></circle><circle r="3" cx="220" cy="320" opacity="0.70"></circle><circle r="3" cx="278" cy="278" opacity="0.70"></circle><circle r="3" cx="349" cy="274" opacity="0.70"></circle><circle r="3" cx="412" cy="308" opacity="0.70"></circle><circle r="3" cx="447" cy="371" opacity="0.70"></circle><circle r="3" cx="444" cy="443" opacity="0.69"></circle><circle r="3.5" cx="402" cy="503" opacity="0.69"></circle><circle r="3.5" cx="335" cy="531" opacity="0.69"></circle><circle r="3.5" cx="263" cy="520" opacity="0.69"></circle><circle r="3.5" cx="207" cy="471" opacity="0.69"></circle><circle r="3.5" cx="186" cy="401" opacity="0.69"></circle><circle r="3.5" cx="206" cy="329" opacity="0.69"></circle><circle r="3.5" cx="261" cy="279" opacity="0.69"></circle><circle r="3.5" cx="334" cy="265" opacity="0.68"></circle><circle r="3.5" cx="404" cy="293" opacity="0.68"></circle><circle r="3.5" cx="448" cy="354" opacity="0.68"></circle><circle r="3.5" cx="454" cy="429" opacity="0.68"></circle><circle r="3.5" cx="419" cy="496" opacity="0.68"></circle><circle r="3.5" cx="353" cy="534" opacity="0.68"></circle><circle r="3.5" cx="276" cy="532" opacity="0.68"></circle><circle r="3.5" cx="212" cy="489" opacity="0.67"></circle><circle r="3.5" cx="181" cy="418" opacity="0.67"></circle><circle r="3.5" cx="192" cy="341" opacity="0.67"></circle><circle r="3.5" cx="243" cy="282" opacity="0.67"></circle><circle r="3.5" cx="317" cy="258" opacity="0.67"></circle><circle r="3.5" cx="393" cy="278" opacity="0.67"></circle><circle r="3.5" cx="447" cy="335" opacity="0.67"></circle><circle r="3.5" cx="463" cy="413" opacity="0.66"></circle><circle r="3.5" cx="435" cy="487" opacity="0.66"></circle><circle r="3.5" cx="371" cy="535" opacity="0.66"></circle><circle r="3.5" cx="291" cy="542" opacity="0.66"></circle><circle r="3.5" cx="220" cy="506" opacity="0.66"></circle><circle r="3.5" cx="178" cy="436" opacity="0.66"></circle><circle r="3.5" cx="180" cy="355" opacity="0.66"></circle><circle r="3.5" cx="225" cy="288" opacity="0.66"></circle><circle r="3.5" cx="299" cy="254" opacity="0.65"></circle><circle r="3.5" cx="380" cy="264" opacity="0.65"></circle><circle r="3.5" cx="443" cy="317" opacity="0.65"></circle><circle r="3.5" cx="469" cy="395" opacity="0.65"></circle><circle r="3.5" cx="450" cy="475" opacity="0.65"></circle><circle r="3.5" cx="390" cy="533" opacity="0.65"></circle><circle r="3.5" cx="309" cy="551" opacity="0.65"></circle><circle r="3.5" cx="230" cy="522" opacity="0.64"></circle><circle r="3.5" cx="178" cy="456" opacity="0.64"></circle><circle r="3.5" cx="170" cy="372" opacity="0.64"></circle><circle r="3.5" cx="207" cy="296" opacity="0.64"></circle><circle r="3.5" cx="280" cy="251" opacity="0.64"></circle><circle r="3.5" cx="365" cy="252" opacity="0.64"></circle><circle r="3.5" cx="437" cy="298" opacity="0.64"></circle><circle r="3.5" cx="474" cy="376" opacity="0.64"></circle><circle r="3.5" cx="464" cy="461" opacity="0.63"></circle><circle r="3.5" cx="409" cy="529" opacity="0.63"></circle><circle r="3.5" cx="327" cy="557" opacity="0.63"></circle><circle r="3.5" cx="243" cy="538" opacity="0.63"></circle><circle r="3.5" cx="181" cy="476" opacity="0.63"></circle><circle r="3.5" cx="161" cy="390" opacity="0.63"></circle><circle r="3.5" cx="190" cy="307" opacity="0.63"></circle><circle r="3.5" cx="259" cy="252" opacity="0.62"></circle><circle r="3.5" cx="347" cy="242" opacity="0.62"></circle><circle r="3.5" cx="428" cy="280" opacity="0.62"></circle><circle r="3.5" cx="476" cy="355" opacity="0.62"></circle><circle r="3.5" cx="476" cy="445" opacity="0.62"></circle><circle r="3.5" cx="429" cy="521" opacity="0.62"></circle><circle r="3.5" cx="348" cy="561" opacity="0.62"></circle><circle r="3.5" cx="258" cy="552" opacity="0.61"></circle><circle r="3.5" cx="186" cy="496" opacity="0.61"></circle><circle r="3.5" cx="155" cy="410" opacity="0.61"></circle><circle r="3.5" cx="174" cy="321" opacity="0.61"></circle><circle r="4" cx="239" cy="255" opacity="0.61"></circle><circle r="4" cx="328" cy="233" opacity="0.61"></circle><circle r="4" cx="416" cy="263" opacity="0.61"></circle><circle r="4" cx="475" cy="334" opacity="0.61"></circle><circle r="4" cx="486" cy="426" opacity="0.60"></circle><circle r="4" cx="447" cy="511" opacity="0.60"></circle><circle r="4" cx="369" cy="562" opacity="0.60"></circle><circle r="4" cx="275" cy="564" opacity="0.60"></circle><circle r="4" cx="194" cy="516" opacity="0.60"></circle><circle r="4" cx="152" cy="431" opacity="0.60"></circle><circle r="4" cx="160" cy="337" opacity="0.60"></circle><circle r="4" cx="218" cy="261" opacity="0.59"></circle><circle r="4" cx="307" cy="227" opacity="0.59"></circle><circle r="4" cx="401" cy="246" opacity="0.59"></circle><circle r="4" cx="471" cy="313" opacity="0.59"></circle><circle r="4" cx="495" cy="406" opacity="0.59"></circle><circle r="4" cx="465" cy="498" opacity="0.59"></circle><circle r="4" cx="391" cy="561" opacity="0.59"></circle><circle r="4" cx="295" cy="575" opacity="0.58"></circle><circle r="4" cx="206" cy="535" opacity="0.58"></circle><circle r="4" cx="151" cy="454" opacity="0.58"></circle><circle r="4" cx="148" cy="356" opacity="0.58"></circle><circle r="4" cx="197" cy="270" opacity="0.58"></circle><circle r="4" cx="285" cy="224" opacity="0.58"></circle><circle r="4" cx="384" cy="232" opacity="0.58"></circle><circle r="4" cx="464" cy="291" opacity="0.58"></circle><circle r="4" cx="500" cy="384" opacity="0.57"></circle><circle r="4" cx="482" cy="482" opacity="0.57"></circle><circle r="4" cx="414" cy="556" opacity="0.57"></circle><circle r="4" cx="316" cy="582" opacity="0.57"></circle><circle r="4" cx="220" cy="553" opacity="0.57"></circle><circle r="4" cx="153" cy="477" opacity="0.57"></circle><circle r="4" cx="137" cy="376" opacity="0.57"></circle><circle r="4" cx="177" cy="283" opacity="0.56"></circle><circle r="4" cx="261" cy="224" opacity="0.56"></circle><circle r="4" cx="364" cy="219" opacity="0.56"></circle><circle r="4" cx="454" cy="270" opacity="0.56"></circle><circle r="4" cx="503" cy="361" opacity="0.56"></circle><circle r="4" cx="496" cy="464" opacity="0.56"></circle><circle r="4" cx="436" cy="548" opacity="0.56"></circle><circle r="4" cx="339" cy="588" opacity="0.56"></circle><circle r="4" cx="237" cy="570" opacity="0.55"></circle><circle r="4" cx="159" cy="500" opacity="0.55"></circle><circle r="4" cx="130" cy="399" opacity="0.55"></circle><circle r="4" cx="159" cy="298" opacity="0.55"></circle><circle r="4" cx="238" cy="227" opacity="0.55"></circle><circle r="4" cx="342" cy="209" opacity="0.55"></circle><circle r="4" cx="440" cy="250" opacity="0.55"></circle><circle r="4" cx="502" cy="336" opacity="0.54"></circle><circle r="4" cx="509" cy="443" opacity="0.54"></circle><circle r="4" cx="458" cy="537" opacity="0.54"></circle><circle r="4" cx="364" cy="590" opacity="0.54"></circle><circle r="4" cx="256" cy="585" opacity="0.54"></circle><circle r="4" cx="167" cy="523" opacity="0.54"></circle><circle r="4" cx="125" cy="423" opacity="0.54"></circle><circle r="4" cx="142" cy="316" opacity="0.53"></circle><circle r="4" cx="214" cy="233" opacity="0.53"></circle><circle r="4" cx="318" cy="202" opacity="0.53"></circle><circle r="4" cx="424" cy="231" opacity="0.53"></circle><circle r="4" cx="499" cy="312" opacity="0.53"></circle><circle r="4" cx="519" cy="420" opacity="0.53"></circle><circle r="4" cx="478" cy="523" opacity="0.53"></circle><circle r="4" cx="389" cy="589" opacity="0.53"></circle><circle r="4.5" cx="278" cy="597" opacity="0.52"></circle><circle r="4.5" cx="179" cy="545" opacity="0.52"></circle><circle r="4.5" cx="123" cy="448" opacity="0.52"></circle><circle r="4.5" cx="127" cy="336" opacity="0.52"></circle><circle r="4.5" cx="190" cy="243" opacity="0.52"></circle><circle r="4.5" cx="293" cy="197" opacity="0.52"></circle><circle r="4.5" cx="405" cy="214" opacity="0.52"></circle><circle r="4.5" cx="492" cy="287" opacity="0.51"></circle><circle r="4.5" cx="526" cy="395" opacity="0.51"></circle><circle r="4.5" cx="497" cy="506" opacity="0.51"></circle><circle r="4.5" cx="414" cy="584" opacity="0.51"></circle><circle r="4.5" cx="302" cy="607" opacity="0.51"></circle><circle r="4.5" cx="194" cy="566" opacity="0.51"></circle><circle r="4.5" cx="125" cy="474" opacity="0.51"></circle><circle r="4.5" cx="115" cy="359" opacity="0.50"></circle><circle r="4.5" cx="167" cy="256" opacity="0.50"></circle><circle r="4.5" cx="267" cy="196" opacity="0.50"></circle><circle r="4.5" cx="384" cy="199" opacity="0.50"></circle><circle r="4.5" cx="481" cy="263" opacity="0.50"></circle><circle r="4.5" cx="530" cy="369" opacity="0.50"></circle><circle r="4.5" cx="515" cy="486" opacity="0.50"></circle><circle r="4.5" cx="440" cy="577" opacity="0.50"></circle><circle r="4.5" cx="328" cy="614" opacity="0.49"></circle><circle r="4.5" cx="213" cy="586" opacity="0.49"></circle><circle r="4.5" cx="130" cy="501" opacity="0.49"></circle><circle r="4.5" cx="105" cy="384" opacity="0.49"></circle><circle r="4.5" cx="146" cy="272" opacity="0.49"></circle><circle r="4.5" cx="240" cy="199" opacity="0.49"></circle><circle r="4.5" cx="359" cy="186" opacity="0.49"></circle><circle r="4.5" cx="467" cy="240" opacity="0.48"></circle><circle r="4.5" cx="531" cy="342" opacity="0.48"></circle><circle r="4.5" cx="530" cy="463" opacity="0.48"></circle><circle r="4.5" cx="465" cy="565" opacity="0.48"></circle><circle r="4.5" cx="355" cy="617" opacity="0.48"></circle><circle r="4.5" cx="234" cy="603" opacity="0.48"></circle><circle r="4.5" cx="139" cy="527" opacity="0.48"></circle><circle r="4.5" cx="99" cy="411" opacity="0.48"></circle><circle r="4.5" cx="126" cy="291" opacity="0.47"></circle><circle r="4.5" cx="213" cy="205" opacity="0.47"></circle><circle r="4.5" cx="333" cy="177" opacity="0.47"></circle><circle r="4.5" cx="450" cy="218" opacity="0.47"></circle><circle r="4.5" cx="528" cy="314" opacity="0.47"></circle><circle r="4.5" cx="542" cy="438" opacity="0.47"></circle><circle r="4.5" cx="488" cy="550" opacity="0.47"></circle><circle r="4.5" cx="383" cy="617" opacity="0.46"></circle><circle r="4.5" cx="258" cy="618" opacity="0.46"></circle><circle r="4.5" cx="151" cy="552" opacity="0.46"></circle><circle r="4.5" cx="96" cy="439" opacity="0.46"></circle><circle r="4.5" cx="108" cy="314" opacity="0.46"></circle><circle r="4.5" cx="186" cy="214" opacity="0.46"></circle><circle r="4.5" cx="305" cy="171" opacity="0.46"></circle><circle r="4.5" cx="430" cy="198" opacity="0.45"></circle><circle r="4.5" cx="521" cy="286" opacity="0.45"></circle><circle r="4.5" cx="551" cy="410" opacity="0.45"></circle><circle r="4.5" cx="511" cy="532" opacity="0.45"></circle><circle r="4.5" cx="412" cy="614" opacity="0.45"></circle><circle r="4.5" cx="284" cy="630" opacity="0.45"></circle><circle r="4.5" cx="167" cy="576" opacity="0.45"></circle><circle r="4.5" cx="96" cy="468" opacity="0.45"></circle><circle r="4.5" cx="94" cy="339" opacity="0.44"></circle><circle r="4.5" cx="160" cy="227" opacity="0.44"></circle><circle r="4.5" cx="276" cy="168" opacity="0.44"></circle><circle r="4.5" cx="406" cy="180" opacity="0.44"></circle><circle r="5" cx="510" cy="259" opacity="0.44"></circle><circle r="5" cx="557" cy="382" opacity="0.44"></circle><circle r="5" cx="531" cy="510" opacity="0.44"></circle><circle r="5" cx="440" cy="606" opacity="0.43"></circle><circle r="5" cx="313" cy="639" opacity="0.43"></circle><circle r="5" cx="186" cy="599" opacity="0.43"></circle><circle r="5" cx="101" cy="498" opacity="0.43"></circle><circle r="5" cx="82" cy="366" opacity="0.43"></circle><circle r="5" cx="136" cy="244" opacity="0.43"></circle><circle r="5" cx="246" cy="170" opacity="0.43"></circle><circle r="5" cx="380" cy="165" opacity="0.42"></circle><circle r="5" cx="496" cy="232" opacity="0.42"></circle><circle r="5" cx="559" cy="351" opacity="0.42"></circle><circle r="5" cx="549" cy="486" opacity="0.42"></circle><circle r="5" cx="468" cy="595" opacity="0.42"></circle><circle r="5" cx="342" cy="644" opacity="0.42"></circle><circle r="5" cx="209" cy="619" opacity="0.42"></circle><circle r="5" cx="109" cy="527" opacity="0.42"></circle><circle r="5" cx="73" cy="396" opacity="0.41"></circle><circle r="5" cx="113" cy="265" opacity="0.41"></circle><circle r="5" cx="216" cy="175" opacity="0.41"></circle><circle r="5" cx="351" cy="153" opacity="0.41"></circle><circle r="5" cx="478" cy="207" opacity="0.41"></circle><circle r="5" cx="557" cy="320" opacity="0.41"></circle><circle r="5" cx="563" cy="458" opacity="0.41"></circle><circle r="5" cx="496" cy="579" opacity="0.40"></circle><circle r="5" cx="374" cy="646" opacity="0.40"></circle><circle r="5" cx="235" cy="637" opacity="0.40"></circle><circle r="5" cx="121" cy="556" opacity="0.40"></circle><circle r="5" cx="68" cy="427" opacity="0.40"></circle><circle r="5" cx="92" cy="289" opacity="0.40"></circle><circle r="5" cx="186" cy="184" opacity="0.40"></circle><circle r="5" cx="321" cy="145" opacity="0.40"></circle><circle r="5" cx="456" cy="184" opacity="0.39"></circle><circle r="5" cx="551" cy="289" opacity="0.39"></circle><circle r="5" cx="575" cy="429" opacity="0.39"></circle><circle r="5" cx="521" cy="560" opacity="0.39"></circle><circle r="5" cx="405" cy="643" opacity="0.39"></circle><circle r="5" cx="263" cy="652" opacity="0.39"></circle><circle r="5" cx="138" cy="584" opacity="0.39"></circle><circle r="5" cx="68" cy="459" opacity="0.38"></circle><circle r="5" cx="74" cy="316" opacity="0.38"></circle><circle r="5" cx="156" cy="198" opacity="0.38"></circle><circle r="5" cx="289" cy="141" opacity="0.38"></circle><circle r="5" cx="431" cy="163" opacity="0.38"></circle><circle r="5" cx="541" cy="258" opacity="0.38"></circle><circle r="5" cx="583" cy="397" opacity="0.38"></circle><circle r="5" cx="544" cy="537" opacity="0.37"></circle><circle r="5" cx="437" cy="636" opacity="0.37"></circle><circle r="5" cx="294" cy="663" opacity="0.37"></circle><circle r="5" cx="158" cy="609" opacity="0.37"></circle><circle r="5" cx="71" cy="492" opacity="0.37"></circle><circle r="5" cx="60" cy="345" opacity="0.37"></circle><circle r="5" cx="128" cy="215" opacity="0.37"></circle><circle r="5" cx="256" cy="141" opacity="0.37"></circle><circle r="5" cx="403" cy="146" opacity="0.36"></circle><circle r="5" cx="526" cy="228" opacity="0.36"></circle><circle r="5" cx="586" cy="364" opacity="0.36"></circle><circle r="5" cx="565" cy="511" opacity="0.36"></circle><circle r="5" cx="469" cy="625" opacity="0.36"></circle><circle r="5" cx="327" cy="670" opacity="0.36"></circle><circle r="5" cx="182" cy="633" opacity="0.36"></circle><circle r="5.5" cx="79" cy="524" opacity="0.35"></circle><circle r="5.5" cx="49" cy="377" opacity="0.35"></circle><circle r="5.5" cx="102" cy="236" opacity="0.35"></circle><circle r="5.5" cx="222" cy="145" opacity="0.35"></circle><circle r="5.5" cx="373" cy="131" opacity="0.35"></circle><circle r="5.5" cx="508" cy="200" opacity="0.35"></circle><circle r="5.5" cx="586" cy="330" opacity="0.35"></circle><circle r="5.5" cx="583" cy="482" opacity="0.34"></circle><circle r="5.5" cx="499" cy="610" opacity="0.34"></circle><circle r="5.5" cx="361" cy="674" opacity="0.34"></circle><circle r="5.5" cx="209" cy="654" opacity="0.34"></circle><circle r="5.5" cx="91" cy="556" opacity="0.34"></circle><circle r="5.5" cx="42" cy="411" opacity="0.34"></circle><circle r="5.5" cx="78" cy="261" opacity="0.34"></circle><circle r="5.5" cx="189" cy="153" opacity="0.34"></circle><circle r="5.5" cx="340" cy="121" opacity="0.33"></circle><circle r="5.5" cx="485" cy="173" opacity="0.33"></circle><circle r="5.5" cx="581" cy="296" opacity="0.33"></circle><circle r="5.5" cx="597" cy="450" opacity="0.33"></circle><circle r="5.5" cx="528" cy="590" opacity="0.33"></circle><circle r="5.5" cx="396" cy="672" opacity="0.33"></circle><circle r="5.5" cx="239" cy="672" opacity="0.33"></circle><circle r="5.5" cx="107" cy="588" opacity="0.32"></circle><circle r="5.5" cx="39" cy="446" opacity="0.32"></circle><circle r="5.5" cx="57" cy="289" opacity="0.32"></circle><circle r="5.5" cx="156" cy="166" opacity="0.32"></circle><circle r="5.5" cx="305" cy="114" opacity="0.32"></circle><circle r="5.5" cx="459" cy="149" opacity="0.32"></circle><circle r="5.5" cx="572" cy="261" opacity="0.32"></circle><circle r="5.5" cx="607" cy="416" opacity="0.31"></circle><circle r="5.5" cx="555" cy="567" opacity="0.31"></circle><circle r="5.5" cx="431" cy="667" opacity="0.31"></circle><circle r="5.5" cx="272" cy="686" opacity="0.31"></circle><circle r="5.5" cx="127" cy="617" opacity="0.31"></circle><circle r="5.5" cx="41" cy="482" opacity="0.31"></circle><circle r="5.5" cx="40" cy="321" opacity="0.31"></circle><circle r="5.5" cx="124" cy="184" opacity="0.31"></circle><circle r="5.5" cx="269" cy="112" opacity="0.30"></circle><circle r="5.5" cx="430" cy="129" opacity="0.30"></circle><circle r="5.5" cx="558" cy="228" opacity="0.30"></circle><circle r="5.5" cx="613" cy="380" opacity="0.30"></circle><circle r="5.5" cx="579" cy="540" opacity="0.30"></circle><circle r="5.5" cx="466" cy="656" opacity="0.30"></circle><circle r="5.5" cx="307" cy="695" opacity="0.30"></circle><circle r="5.5" cx="152" cy="644" opacity="0.29"></circle><circle r="5.5" cx="48" cy="518" opacity="0.29"></circle><circle r="5.5" cx="26" cy="355" opacity="0.29"></circle><circle r="5.5" cx="94" cy="205" opacity="0.29"></circle><circle r="5.5" cx="232" cy="115" opacity="0.29"></circle><circle r="5.5" cx="397" cy="111" opacity="0.29"></circle><circle r="5.5" cx="539" cy="196" opacity="0.29"></circle><circle r="5.5" cx="615" cy="343" opacity="0.29"></circle><circle r="5.5" cx="600" cy="509" opacity="0.28"></circle><circle r="5.5" cx="500" cy="642" opacity="0.28"></circle><circle r="5.5" cx="344" cy="701" opacity="0.28"></circle><circle r="5.5" cx="181" cy="668" opacity="0.28"></circle><circle r="5.5" cx="59" cy="553" opacity="0.28"></circle><circle r="5.5" cx="17" cy="391" opacity="0.28"></circle><circle r="5.5" cx="67" cy="231" opacity="0.28"></circle><circle r="5.5" cx="195" cy="122" opacity="0.27"></circle><circle r="5.5" cx="362" cy="98" opacity="0.27"></circle><circle r="5.5" cx="516" cy="166" opacity="0.27"></circle><circle r="5.5" cx="611" cy="306" opacity="0.27"></circle><circle r="6" cx="618" cy="475" opacity="0.27"></circle><circle r="6" cx="533" cy="622" opacity="0.27"></circle><circle r="6" cx="382" cy="702" opacity="0.27"></circle><circle r="6" cx="212" cy="689" opacity="0.26"></circle><circle r="6" cx="75" cy="588" opacity="0.26"></circle><circle r="6" cx="12" cy="429" opacity="0.26"></circle><circle r="6" cx="43" cy="261" opacity="0.26"></circle><circle r="6" cx="159" cy="134" opacity="0.26"></circle><circle r="6" cx="325" cy="89" opacity="0.26"></circle><circle r="6" cx="490" cy="138" opacity="0.26"></circle><circle r="6" cx="603" cy="268" opacity="0.26"></circle><circle r="6" cx="631" cy="439" opacity="0.25"></circle><circle r="6" cx="563" cy="598" opacity="0.25"></circle><circle r="6" cx="421" cy="697" opacity="0.25"></circle><circle r="6" cx="247" cy="706" opacity="0.25"></circle><circle r="6" cx="95" cy="621" opacity="0.25"></circle><circle r="6" cx="12" cy="468" opacity="0.25"></circle><circle r="6" cx="22" cy="294" opacity="0.25"></circle><circle r="6" cx="124" cy="151" opacity="0.24"></circle><circle r="6" cx="286" cy="84" opacity="0.24"></circle><circle r="6" cx="459" cy="114" opacity="0.24"></circle><circle r="6" cx="590" cy="231" opacity="0.24"></circle><circle r="6" cx="639" cy="400" opacity="0.24"></circle><circle r="6" cx="591" cy="570" opacity="0.24"></circle><circle r="6" cx="459" cy="688" opacity="0.24"></circle><circle r="6" cx="285" cy="719" opacity="0.23"></circle><circle r="6" cx="120" cy="652" opacity="0.23"></circle><circle r="6" cx="17" cy="508" opacity="0.23"></circle><circle r="6" cx="5" cy="330" opacity="0.23"></circle><circle r="6" cx="90" cy="173" opacity="0.23"></circle><circle r="6" cx="246" cy="85" opacity="0.23"></circle><circle r="6" cx="425" cy="93" opacity="0.23"></circle><circle r="6" cx="572" cy="195" opacity="0.23"></circle><circle r="6" cx="643" cy="360" opacity="0.22"></circle><circle r="6" cx="615" cy="538" opacity="0.22"></circle><circle r="6" cx="497" cy="674" opacity="0.22"></circle><circle r="6" cx="324" cy="727" opacity="0.22"></circle><circle r="6" cx="150" cy="680" opacity="0.22"></circle><circle r="6" cx="27" cy="547" opacity="0.22"></circle><circle r="6" cx="-7" cy="369" opacity="0.22"></circle><circle r="6" cx="59" cy="199" opacity="0.21"></circle><circle r="6" cx="205" cy="91" opacity="0.21"></circle><circle r="6" cx="387" cy="77" opacity="0.21"></circle><circle r="6" cx="549" cy="161" opacity="0.21"></circle><circle r="6" cx="642" cy="319" opacity="0.21"></circle><circle r="6" cx="636" cy="503" opacity="0.21"></circle><circle r="6" cx="533" cy="655" opacity="0.21"></circle><circle r="6" cx="365" cy="730" opacity="0.21"></circle><circle r="6" cx="183" cy="704" opacity="0.20"></circle><circle r="6" cx="42" cy="585" opacity="0.20"></circle><circle r="6" cx="-15" cy="409" opacity="0.20"></circle><circle r="6" cx="31" cy="230" opacity="0.20"></circle><circle r="6" cx="165" cy="102" opacity="0.20"></circle><circle r="6" cx="348" cy="65" opacity="0.20"></circle><circle r="6" cx="522" cy="130" opacity="0.20"></circle><circle r="6" cx="635" cy="278" opacity="0.19"></circle><circle r="6" cx="652" cy="464" opacity="0.19"></circle><circle r="6" cx="568" cy="631" opacity="0.19"></circle><circle r="6" cx="407" cy="728" opacity="0.19"></circle><circle r="6" cx="219" cy="725" opacity="0.19"></circle><circle r="6" cx="62" cy="622" opacity="0.19"></circle><circle r="6" cx="-17" cy="451" opacity="0.19"></circle><circle r="6.5" cx="7" cy="264" opacity="0.18"></circle><circle r="6.5" cx="126" cy="118" opacity="0.18"></circle><circle r="6.5" cx="306" cy="58" opacity="0.18"></circle><circle r="6.5" cx="490" cy="102" opacity="0.18"></circle><circle r="6.5" cx="623" cy="238" opacity="0.18"></circle><circle r="6.5" cx="664" cy="423" opacity="0.18"></circle><circle r="6.5" cx="599" cy="603" opacity="0.18"></circle><circle r="6.5" cx="449" cy="720" opacity="0.18"></circle><circle r="6.5" cx="259" cy="741" opacity="0.17"></circle><circle r="6.5" cx="87" cy="657" opacity="0.17"></circle><circle r="6.5" cx="-14" cy="494" opacity="0.17"></circle><circle r="6.5" cx="-14" cy="302" opacity="0.17"></circle><circle r="6.5" cx="89" cy="139" opacity="0.17"></circle><circle r="6.5" cx="263" cy="56" opacity="0.17"></circle><circle r="6.5" cx="455" cy="78" opacity="0.17"></circle><circle r="6.5" cx="606" cy="198" opacity="0.16"></circle><circle r="6.5" cx="670" cy="381" opacity="0.16"></circle><circle r="6.5" cx="627" cy="570" opacity="0.16"></circle><circle r="6.5" cx="490" cy="708" opacity="0.16"></circle><circle r="6.5" cx="301" cy="752" opacity="0.16"></circle><circle r="6.5" cx="117" cy="688" opacity="0.16"></circle><circle r="6.5" cx="-6" cy="537" opacity="0.16"></circle><circle r="6.5" cx="-29" cy="342" opacity="0.15"></circle><circle r="6.5" cx="54" cy="165" opacity="0.15"></circle><circle r="6.5" cx="219" cy="60" opacity="0.15"></circle><circle r="6.5" cx="416" cy="58" opacity="0.15"></circle><circle r="6.5" cx="583" cy="160" opacity="0.15"></circle><circle r="6.5" cx="671" cy="337" opacity="0.15"></circle><circle r="6.5" cx="652" cy="533" opacity="0.15"></circle><circle r="6.5" cx="531" cy="689" opacity="0.15"></circle><circle r="6.5" cx="345" cy="758" opacity="0.14"></circle><circle r="6.5" cx="151" cy="717" opacity="0.14"></circle><circle r="6.5" cx="8" cy="579" opacity="0.14"></circle><circle r="6.5" cx="-40" cy="386" opacity="0.14"></circle><circle r="6.5" cx="22" cy="196" opacity="0.14"></circle><circle r="6.5" cx="176" cy="69" opacity="0.14"></circle><circle r="6.5" cx="374" cy="42" opacity="0.14"></circle><circle r="6.5" cx="556" cy="125" opacity="0.13"></circle><circle r="6.5" cx="666" cy="292" opacity="0.13"></circle><circle r="6.5" cx="671" cy="493" opacity="0.13"></circle><circle r="6.5" cx="569" cy="666" opacity="0.13"></circle><circle r="6.5" cx="390" cy="758" opacity="0.13"></circle><circle r="6.5" cx="189" cy="741" opacity="0.13"></circle><circle r="6.5" cx="27" cy="619" opacity="0.13"></circle><circle r="6.5" cx="-45" cy="430" opacity="0.13"></circle><circle r="6.5" cx="-6" cy="232" opacity="0.12"></circle><circle r="6.5" cx="133" cy="84" opacity="0.12"></circle><circle r="6.5" cx="330" cy="32" opacity="0.12"></circle><circle r="6.5" cx="524" cy="93" opacity="0.12"></circle><circle r="6.5" cx="656" cy="248" opacity="0.12"></circle><circle r="6.5" cx="686" cy="450" opacity="0.12"></circle><circle r="6.5" cx="604" cy="637" opacity="0.12"></circle><circle r="6.5" cx="435" cy="752" opacity="0.11"></circle><circle r="6.5" cx="230" cy="760" opacity="0.11"></circle><circle r="6.5" cx="52" cy="658" opacity="0.11"></circle><circle r="6.5" cx="-44" cy="476" opacity="0.11"></circle><circle r="6.5" cx="-30" cy="271" opacity="0.11"></circle><circle r="6.5" cx="92" cy="104" opacity="0.11"></circle><circle r="6.5" cx="284" cy="28" opacity="0.11"></circle><circle r="6.5" cx="487" cy="65" opacity="0.10"></circle><circle r="6.5" cx="640" cy="205" opacity="0.10"></circle><circle r="6.5" cx="696" cy="405" opacity="0.10"></circle><circle r="6.5" cx="636" cy="604" opacity="0.10"></circle></g></svg>