<svg width="165" height="144" viewBox="0 0 165 144" fill="none" xmlns="http://www.w3.org/2000/svg">
<circle cx="27.5" cy="27.5" r="20" stroke="black" stroke-width="15"/>
<path d="M110 116.5C110 131.688 97.6878 144 82.5 144C67.3122 144 55 131.688 55 116.5C55 101.312 67.3122 89 82.5 89C97.6878 89 110 101.312 110 116.5Z" fill="black"/>
<path d="M110 116.5C110 131.688 97.6878 144 82.5 144C67.3122 144 55 131.688 55 116.5C55 101.312 67.3122 89 82.5 89C97.6878 89 110 101.312 110 116.5Z" fill="black"/>
<circle cx="46.5" cy="72.5" r="8.5" fill="black"/>
<circle cx="118.5" cy="72.5" r="8.5" fill="black"/>
<circle cx="137.5" cy="27.5" r="20" stroke="black" stroke-width="15"/>
</svg>
