<svg fill="none" height="24" viewBox="0 0 24 24" width="24" xmlns="http://www.w3.org/2000/svg"><g fill="#000"><path d="m19.7695 11.6455c-.7305-.8531-1.0624-1.5923-1.0624-2.84822v-.42703c0-1.63659-.3767-2.69106-1.1956-3.74553-1.2622-1.63761-3.3871-2.6246-5.4673-2.6246h-.0884c-2.03645 0-4.09474.94167-5.3788 2.5128-.86367 1.07563-1.28407 2.17542-1.28407 3.85733v.42703c0 1.25592-.31009 1.99512-1.06244 2.84822-.55358.6284-.73049 1.4361-.73049 2.3103 0 .8752.28723 1.7041.86367 2.3779.75235.8077 1.81479 1.3233 2.90008 1.413 1.5713.1793 3.14255.2467 4.73675.2467 1.5932 0 3.1645-.1128 4.7367-.2467 1.0843-.0897 2.1468-.6053 2.8991-1.413.5755-.6738.8637-1.5027.8637-2.3779 0-.8742-.1769-1.6819-.7305-2.3103z"/><path d="m14.0088 19.2285c-.5-.1068-3.5461-.1068-4.04605 0-.42736.0987-.88951.3283-.88951.8319.02485.4804.30611.9044.69571 1.1733l-.001.001c.50385.3928 1.09525.6425 1.71445.7322.3299.0453.6658.0433 1.0077 0 .6182-.0897 1.2096-.3394 1.7135-.7322l-.001-.001c.3896-.2689.6708-.6929.6957-1.1733 0-.5036-.4622-.7332-.8895-.8319z" opacity=".4"/></g></svg>