<svg width="430" height="611" viewBox="0 0 430 611" fill="none" xmlns="http://www.w3.org/2000/svg">
<g clip-path="url(#clip0_358_141)">
<g clip-path="url(#clip1_358_141)" filter="url(#filter0_d_358_141)">
<g filter="url(#filter1_d_358_141)">
<path d="M420.634 379.101C420.634 493.531 328.265 586.114 214.259 586.114C100.277 586.114 7.8418 493.527 7.8418 379.101C7.8418 264.849 100.275 172.216 214.259 172.216C328.257 172.219 420.634 264.846 420.634 379.101Z" fill="url(#paint0_radial_358_141)"/>
</g>
<path d="M360.541 233.143C360.531 233.139 360.533 233.139 360.522 233.135C360.215 233.035 337.723 225.639 328.028 218.838C325.903 217.348 323.517 216.111 320.93 215.91L303.914 214.585C301.83 214.423 299.782 215.198 298.328 216.7L297.569 217.484C296.078 219.024 295.648 221.303 296.474 223.28L297.092 224.758C297.552 225.858 298.627 226.574 299.819 226.574V226.574C301.341 226.574 302.615 227.731 302.761 229.246L302.784 229.487C303.023 231.97 300.34 233.672 298.196 232.398V232.398C296.727 231.525 294.829 232.031 293.988 233.518L291.265 238.336C290.681 239.37 289.433 239.828 288.318 239.418V239.418C288.05 239.32 287.767 239.269 287.482 239.269H286.417C285.35 239.269 284.515 238.648 283.453 238.547V238.547C283.157 238.519 282.799 238.782 282.513 238.703V238.703C280.759 238.217 279.589 236.135 277.799 236.463L276.969 236.615C276.511 236.699 276.09 236.919 275.761 237.248V237.248C274.961 238.048 273.696 238.145 272.784 237.475L272.068 236.951C271.498 236.533 270.808 236.307 270.1 236.307H267.24C266.554 236.307 265.943 236.741 265.718 237.389L265.513 237.976C265.281 238.642 265.722 239.353 266.422 239.441V239.441C267.286 239.551 267.693 240.568 267.142 241.244L265.896 242.77C265.639 243.084 265.601 243.524 265.8 243.879V243.879C266.148 244.498 265.745 245.254 265.036 245.212C261.081 244.979 255.977 242.728 255.381 242.46C255.34 242.442 255.304 242.425 255.262 242.409C254.914 242.277 253.119 241.683 250.636 242.434C248.18 243.148 245.224 246.928 244.309 248.166C244.116 248.427 243.913 248.677 243.691 248.913L242.805 249.853C240.821 251.959 240.901 255.269 242.984 257.278V257.278C243.969 258.227 245.283 258.757 246.65 258.757H247.153C247.791 258.757 248.425 258.851 249.036 259.035L252.148 259.973C252.658 260.126 253.078 260.491 253.3 260.975V260.975C253.617 261.663 254.32 262.09 255.077 262.054L260.115 261.815C262.086 261.722 263.976 261.006 265.515 259.772L268.86 257.089C270.116 256.082 271.597 255.392 273.177 255.08L275.283 254.664C277.169 254.291 279.122 254.47 280.908 255.178L282.918 255.975C284.664 256.667 286.567 256.843 288.423 256.556C289.666 256.364 291.03 256.18 291.865 256.149C292.535 256.125 292.391 256.744 292.592 257.383C293.102 259.001 295.094 262 296.142 263.514C296.571 264.134 296.943 264.79 297.238 265.484L299.808 271.545C300.063 272.147 300.377 272.722 300.744 273.263L302.827 276.325C303.178 276.843 303.403 277.437 303.481 278.057L303.745 280.148C303.885 281.263 304.932 282.033 306.039 281.834V281.834C306.224 281.801 306.412 281.795 306.599 281.815L309.584 282.141C311.42 282.341 312.669 280.323 311.67 278.769V278.769C311.511 278.521 311.303 278.307 311.059 278.141L309.352 276.979C307.668 275.832 306.375 274.199 305.645 272.297L303.362 266.351L301.773 262.466C301.366 261.471 301.859 260.336 302.863 259.953V259.953C303.759 259.613 304.769 259.987 305.226 260.83L307.182 264.439L308.914 266.995C309.847 268.371 311.117 269.484 312.604 270.228L314.893 271.373C316.775 272.315 317.963 274.238 317.963 276.342V276.342C317.963 277.404 318.272 278.451 318.845 279.345V279.345C319.506 280.378 320.493 281.174 321.645 281.596L323.168 282.153C325.793 283.115 328.702 282.934 331.187 281.653L332.874 280.784C333.515 280.454 334.052 279.952 334.426 279.335L335.155 278.13C335.527 277.514 335.493 276.734 335.069 276.153V276.153C334.208 274.973 335.05 273.314 336.511 273.314H338.718C339.529 273.314 340.303 273.653 340.854 274.249L344.425 278.113C345.251 279.007 346.233 279.743 347.324 280.284L352.313 282.76C353.936 283.566 354.872 285.311 354.645 287.109V287.109C354.479 288.415 354.928 289.725 355.859 290.655L358.699 293.494C359.465 294.26 359.466 295.501 358.7 296.268V296.268C358.13 296.84 357.267 297.003 356.527 296.68L346.118 292.138L339.142 288.26C337.473 287.333 335.573 286.902 333.668 287.02L324.368 287.593C321.655 287.761 319.587 290.088 319.739 292.802V292.802C319.827 294.378 320.663 295.817 321.988 296.674L329.934 301.814C330.433 302.137 330.96 302.415 331.509 302.645L342.304 307.157L346.906 309.881C349.775 311.579 351.369 314.813 350.969 318.123L350.911 318.602C350.829 319.279 350.626 319.937 350.313 320.544L350.138 320.883C348.672 323.721 345.074 324.668 342.402 322.92V322.92C342.065 322.7 341.755 322.443 341.475 322.154L330.702 311C330.033 310.307 329.067 309.985 328.116 310.137V310.137C327.31 310.266 326.487 310.055 325.842 309.554L317.629 303.177C316.896 302.608 315.994 302.299 315.065 302.299H314.578C312.963 302.299 311.552 303.388 311.144 304.95L310.777 306.353C310.531 307.292 309.623 307.899 308.661 307.767V307.767C307.792 307.647 307.115 306.951 307.019 306.078L306.916 305.14C306.82 304.275 306.368 303.488 305.668 302.97L292.009 292.858C289.812 291.231 289.473 288.073 291.276 286.017L291.479 285.785C291.922 285.281 292.497 284.91 293.14 284.715L293.757 284.528C295.787 283.913 296.627 281.498 295.419 279.755V279.755C294.835 278.913 293.875 278.411 292.85 278.411H292.476C291.703 278.411 290.948 278.178 290.309 277.742L286.251 274.97C284.359 273.677 282.001 273.261 279.781 273.829V273.829C277.319 274.458 274.705 273.876 272.743 272.262L269.154 269.31C267.191 267.696 264.687 266.89 262.151 267.055L260.899 267.137C260.294 267.176 259.687 267.16 259.085 267.09L254.233 266.522C253.395 266.423 252.573 266.22 251.787 265.916L248.024 264.459C246.571 263.897 245.008 263.682 243.457 263.831L239.55 264.207C237.823 264.373 236.169 264.986 234.751 265.984L229.48 269.695C228.247 270.563 226.834 271.141 225.346 271.386L220.804 272.133C219.43 272.359 218.119 272.869 216.954 273.631L215.735 274.428C214.908 274.968 214.005 275.384 213.056 275.66L211.073 276.237C209.986 276.553 209.027 277.204 208.333 278.098V278.098C207.254 279.486 205.565 280.258 203.81 280.165L202.149 280.077C199.877 279.957 197.651 280.747 195.964 282.273L192.216 285.66C190.593 287.127 189.496 289.085 189.093 291.235L188.844 292.562L187.604 297.46C187.181 299.131 186.333 300.665 185.143 301.912L180.316 306.967C179.122 308.219 178.272 309.758 177.851 311.436L177.737 311.886C177.537 312.683 177.436 313.501 177.436 314.323V317.719C177.436 318.995 177.68 320.259 178.155 321.443L180.833 328.116L185.065 336.564L193.274 351.472C194.001 352.793 195.06 353.902 196.347 354.689V354.689C197.551 355.426 198.916 355.858 200.325 355.947L202.079 356.059C204.091 356.187 206.017 356.92 207.605 358.163L211.642 361.321C213.216 362.552 215.123 363.284 217.117 363.421L227.607 364.144C228.803 364.226 229.889 364.87 230.536 365.878L230.838 366.349C231.442 367.291 232.534 367.802 233.644 367.662V367.662C234.614 367.54 235.579 367.914 236.214 368.656L239.93 373.003C240.699 373.903 241.882 374.337 243.051 374.148V374.148C244.921 373.845 246.677 375.133 246.95 377.008L247.663 381.909C247.971 384.027 247.446 386.181 246.198 387.92L244.678 390.037C244.257 390.623 243.771 391.16 243.23 391.637V391.637C240.75 393.824 239.571 397.134 240.109 400.396L241.167 406.801L242.506 424.008C242.589 425.069 242.504 426.135 242.228 427.162C241.857 428.537 241.291 430.507 240.788 431.708C240.524 432.338 240.038 432.823 239.476 433.211C238.513 433.876 236.994 434.873 235.635 435.756C233.723 436.999 232.279 438.845 231.552 441.007L224.232 462.789C223.668 464.468 223.559 466.266 223.918 468L225.899 477.579C226.137 478.729 226.171 479.913 225.998 481.076L224.814 489.031C224.563 490.723 223.882 492.321 222.836 493.674L220.605 496.561C219.377 498.15 218.656 500.071 218.536 502.075L218.32 505.654C218.299 506.008 218.233 506.358 218.126 506.695V506.695C217.403 508.969 218.677 511.399 220.96 512.091V512.091C221.962 512.395 223.041 512.321 223.992 511.882L226.588 510.686C227.901 510.081 229.329 509.768 230.774 509.768H235.938C236.983 509.768 238.022 509.932 239.017 510.254L246.663 512.729C249.215 513.555 251.991 513.321 254.369 512.081L260.4 508.933L271.76 502.14C272.645 501.611 273.631 501.277 274.655 501.158V501.158C278.064 500.764 280.733 498.038 281.055 494.621L281.322 491.777C281.476 490.143 282.135 488.597 283.206 487.354V487.354C284.483 485.873 286.264 484.917 288.205 484.672L290.753 484.35C292.626 484.114 294.394 483.352 295.852 482.153L297.892 480.475C299.119 479.466 300.659 478.914 302.247 478.914V478.914C303.935 478.914 305.563 478.292 306.821 477.166L320.874 464.58C322.299 463.304 323.341 461.649 323.781 459.787C324.153 458.214 324.529 456.391 324.529 455.447C324.529 454.241 325.486 449.914 326.053 447.455C326.319 446.301 326.799 445.212 327.458 444.229L330.661 439.452C332.399 436.86 335.247 435.228 338.361 435.039L338.615 435.024C339.797 434.952 340.957 434.671 342.041 434.194L346.996 432.01C347.664 431.716 348.298 431.35 348.886 430.917L360.781 422.177C361.869 421.378 362.783 420.367 363.47 419.205L368.564 410.581L369.252 409.347C370.121 407.787 369.402 405.819 367.732 405.187L367.239 405C366.389 404.679 365.43 404.921 364.834 405.607V405.607C364.067 406.49 362.738 406.606 361.83 405.868L357.017 401.957C356.876 401.843 356.664 401.917 356.625 402.094V402.094C356.566 402.366 356.171 402.342 356.144 402.066L355.478 395.168C355.44 394.771 355.59 394.379 355.796 394.037C356.283 393.228 356.805 391.558 354.386 389.883C351.423 387.73 349.219 381.557 348.913 380.665C348.887 380.59 348.863 380.52 348.836 380.446L346.983 375.249C346.691 374.432 346.507 373.579 346.436 372.714L345.807 365.117C345.727 364.144 345.789 363.165 345.993 362.21L346.262 360.945C346.449 360.068 346.517 359.169 346.464 358.274L346.119 352.426L346.447 341.313C346.497 339.624 348.079 338.404 349.725 338.784V338.784C351.048 339.09 351.933 340.338 351.782 341.688L350.679 351.604C350.479 353.399 350.769 355.214 351.518 356.858L352.643 359.325C353.237 360.628 353.544 362.042 353.544 363.473V372.742L354.266 379.452C354.345 380.181 354.503 380.899 354.738 381.593L357.2 388.854C357.568 389.939 358.119 390.953 358.831 391.851L363.728 398.036C364.889 399.503 367.015 399.763 368.495 398.619V398.619C369.094 398.157 369.828 397.906 370.584 397.906H371.903C373.957 397.906 375.915 397.039 377.296 395.519L392.05 379.264C393.166 378.035 393.908 376.513 394.19 374.877V374.877C394.589 372.558 394.035 370.175 392.653 368.269L391.01 366.003L385.91 359.393C385.515 358.881 384.903 358.58 384.256 358.58V358.58C383.819 358.58 383.394 358.717 383.04 358.97L382.969 359.02C381.523 360.055 379.495 359.178 379.259 357.415L378.998 355.478C378.937 355.022 378.788 354.582 378.558 354.184L378.409 353.925C377.052 351.568 373.424 349.456 373.619 346.744C373.624 346.668 373.63 346.592 373.637 346.513C373.896 343.621 374.225 341.473 374.449 340.209C374.597 339.376 375.126 338.67 375.865 338.257V338.257C377.462 337.366 379.477 338.103 380.123 339.814L382.086 345.016L383.145 348.643C383.703 350.551 384.817 352.25 386.344 353.522L389.096 355.814L394.806 360.905L401.222 367.151C402.425 368.322 403.314 369.778 403.806 371.383L406.037 378.655L407.503 386.055C407.765 387.377 408.697 388.466 409.963 388.928V388.928C411.519 389.496 412.539 390.995 412.495 392.652L412.18 404.467L410.765 426.369C410.701 427.362 411.045 428.339 411.718 429.072V429.072C412.269 429.673 412.726 429.586 412.977 428.81C416.773 417.061 443.926 320.397 360.634 233.21C360.608 233.183 360.576 233.159 360.541 233.143V233.143Z" fill="url(#paint1_radial_358_141)"/>
<path d="M224.14 172.582C279.709 175 316.5 200 316.5 200L304.092 199.316L279.709 187.591L274.726 192.427L257.813 193.793L251.582 190.696L230.351 181.206L227.245 184.286L226.054 190.009L219.824 188.097L220.508 179.304L224.129 172.582H224.14Z" fill="url(#paint2_radial_358_141)"/>
<path d="M269.019 229.074C268.232 230.964 269.677 233.03 271.722 232.938L276.336 232.73C279.633 232.581 281.904 229.363 280.94 226.207V226.207L279.459 222.725C279.179 222.068 278.975 221.38 278.85 220.676L278.049 216.157C277.924 215.449 277.414 214.871 276.728 214.659V214.659C275.429 214.258 274.137 215.298 274.251 216.652L274.574 220.49C274.677 221.724 274.27 222.947 273.447 223.872L269.511 228.292C269.305 228.524 269.139 228.788 269.019 229.074V229.074Z" fill="url(#paint3_radial_358_141)"/>
<path d="M302.213 500.21C302.201 500.21 302.195 500.196 302.204 500.188L307.868 495.141C308.2 494.845 308.456 494.474 308.615 494.058L309.252 492.386C309.924 490.626 311.078 489.091 312.584 487.958L313.631 487.171C315.181 486.004 317.037 485.314 318.973 485.184L324.302 484.827C325.738 484.73 327.111 484.199 328.238 483.302L332.977 479.533C334.386 478.413 336.477 478.986 337.117 480.668V480.668C337.49 481.648 337.253 482.755 336.512 483.495L333.782 486.223C332.772 487.231 331.466 487.89 330.055 488.103V488.103C328.535 488.332 327.14 489.079 326.106 490.216L320.322 496.58L308.652 509.656C307.258 511.218 305.327 512.2 303.243 512.406L298.154 512.91C295.965 513.126 294.067 511.407 294.067 509.208V509.208C294.067 508.301 294.399 507.426 294.999 506.746L295.944 505.675C297.111 504.353 296.675 502.654 296.675 500.89V500.89V500.89C296.675 501.281 296.992 501.596 297.383 501.582C298.872 501.525 302.198 501.279 302.226 500.223C302.226 500.216 302.22 500.21 302.213 500.21V500.21Z" fill="url(#paint4_radial_358_141)"/>
<path d="M39.4274 490.375L36.0718 466.573C35.7816 464.515 35.112 462.528 34.0969 460.714V460.714C33.5192 459.681 33.052 458.59 32.7034 457.459L32.1511 455.667C31.5989 453.876 31.4446 451.986 31.6992 450.128L32.1676 446.711C32.3922 445.072 33.3365 443.62 34.7429 442.749V442.749C36.4594 441.687 37.4629 439.775 37.3627 437.759L37.2076 434.639C37.0734 431.938 38.2967 429.348 40.4683 427.736V427.736C42.5258 426.209 43.7389 423.776 43.7389 421.214V421.214C43.7389 419.421 44.3285 417.663 45.4169 416.239L57.949 399.837C59.1633 398.247 61.237 397.579 63.1506 398.161V398.161C64.9817 398.718 66.9685 398.132 68.204 396.67L68.4167 396.419C68.6527 396.139 68.8591 395.837 69.0327 395.515L82.9973 369.633C84.6668 366.539 87.6276 364.349 91.075 363.659L92.6453 363.344C94.1883 363.035 95.5854 362.224 96.6182 361.036L96.688 360.956C98.0111 359.435 98.6013 357.411 98.303 355.417V355.417C98.1866 354.639 97.938 353.887 97.5678 353.194L93.8861 346.294C92.9269 344.497 91.5086 342.985 89.7756 341.914L89.174 341.542C86.1484 339.671 84.3069 336.367 84.3069 332.81V332.81C84.3069 329.017 82.2151 325.533 78.8671 323.749L78.5554 323.583C74.9067 321.64 72.6788 317.792 72.8093 313.661L73.0346 306.525C73.0684 305.455 73.3433 304.407 73.8389 303.458L74.1084 302.942C75.0902 301.063 75.0207 298.808 73.9249 296.993V296.993C73.3753 296.082 72.5961 295.332 71.6654 294.818L70.4643 294.153C67.7233 292.638 65.7418 290.044 65.0004 287L64.9573 286.824C64.6461 285.546 64.5539 284.226 64.6845 282.918L65.2481 277.275C65.5245 274.508 64.7393 271.739 63.0516 269.53V269.53C60.0877 265.649 54.915 264.196 50.3641 265.966L49.9622 266.122C48.8357 266.56 47.6375 266.785 46.4288 266.785V266.785C43.1339 266.785 40.076 268.431 38.3908 271.262C31.8055 282.326 15.4693 312.071 12.2886 339.771C11.6649 343.583 11.1913 346.488 10.8402 348.652C10.2026 352.583 15.3082 355.402 16.2928 359.261V359.261L18.6237 371.415C19.1418 374.117 19.3542 376.868 19.2569 379.617L19.0796 384.626C18.9598 388.012 19.7653 391.366 21.4096 394.328V394.328C23.783 398.603 24.3804 403.64 23.0732 408.351L22.6972 409.707C22.2358 411.37 21.9711 413.081 21.9085 414.806L21.5955 423.441C21.4012 428.802 22.2281 434.152 24.0321 439.204V439.204C24.7527 441.222 25.3189 443.292 25.726 445.396L27.518 454.659L28.224 458.903C29.0112 463.635 30.7112 468.17 33.2293 472.253V472.253" fill="url(#paint5_radial_358_141)"/>
<path d="M195.761 173.664C197.946 173.668 199.254 176.026 198.181 177.93V177.93C197.697 178.788 196.816 179.347 195.833 179.418L192.808 179.638C189.86 179.852 187.229 181.567 185.843 184.177L183.376 188.819C182.713 190.067 181.91 191.233 180.959 192.279C178.527 194.955 173.922 199.857 174.979 197.393C176.174 194.309 173.558 193.794 173.558 191.882C173.558 190.821 170.404 190.36 167.659 190.159C165.133 189.974 162.72 191.101 161.055 193.011V193.011C159.55 194.738 157.428 195.807 155.144 195.989L141.98 197.039C139.01 197.276 136.059 197.791 133.276 198.851C131.727 199.441 130.165 200.12 129.394 200.704L129.196 200.827C128.076 201.526 126.783 201.897 125.464 201.897H125.294C125.018 201.897 124.079 202.031 123.807 202.076V202.076C122.126 202.357 121.046 203.147 119.845 204.355L119.043 205.16C118.801 205.403 118.577 205.664 118.373 205.94L117.587 207.002C117.041 207.739 116.597 208.546 116.267 209.401L115.594 211.146C115.575 211.195 115.442 211.353 115.407 211.391V211.391C115.073 211.753 110.244 213.297 109.76 213.21L102.555 211.919C102.48 211.906 102.403 211.899 102.327 211.899H91.2251C91.2292 211.899 144.133 173.564 195.761 173.664Z" fill="url(#paint6_radial_358_141)"/>
<path d="M103.142 554.038C103.141 554.039 103.142 554.041 103.143 554.041L160.001 571.804C160.755 572.04 161.436 572.465 161.98 573.04V573.04C164.85 576.075 162.764 579.669 158.751 578.509C144.692 574.448 120.343 566.24 103.145 554.037C103.144 554.037 103.142 554.037 103.142 554.038V554.038Z" fill="url(#paint7_radial_358_141)"/>
<circle cx="10" cy="224" r="8" fill="white" fill-opacity="0.12"/>
<circle cx="418" cy="223" r="8" fill="white" fill-opacity="0.12"/>
</g>
<g filter="url(#filter2_bd_358_141)">
<g clip-path="url(#clip2_358_141)">
<rect x="25" y="144" width="50" height="50" rx="25" fill="white"/>
<path d="M32.0308 144H67.637V194.319H32.0308V144Z" fill="white"/>
<path d="M14.2324 144H32.0307V194.319H14.2324V144ZM67.6369 144H85.4352V194.319H67.6468L67.6369 144ZM37.3672 168.314L35.9716 168.786L42.4089 174.437C42.9002 175.882 42.2418 176.304 41.8192 177.071L48.797 176.186L48.6299 183.213L50.0844 183.174L49.7601 176.196L56.7575 177.031C56.3251 176.117 55.9418 175.636 56.3349 174.181L62.7623 168.825L61.642 168.412C60.7181 167.705 62.0351 165.002 62.2316 163.292C62.2316 163.292 58.4872 164.58 58.2415 163.901L57.2784 162.064L53.8681 165.818C53.4947 165.906 53.3374 165.759 53.249 165.444L54.8214 157.602L52.3252 159.007C52.1188 159.105 51.9124 159.027 51.7748 158.781L49.367 153.965L46.8904 158.968C46.7036 159.145 46.5169 159.164 46.3597 159.046L43.9813 157.71L45.4162 165.484C45.2982 165.798 45.0231 165.877 44.7086 165.71L41.4359 162.005C41.0133 162.693 40.7283 163.803 40.1583 164.059C39.5981 164.295 37.7013 163.587 36.4335 163.312C36.866 164.874 38.2222 167.469 37.3672 168.324V168.314Z" fill="#D52B1E"/>
</g>
</g>
<g filter="url(#filter3_bd_358_141)">
<g clip-path="url(#clip3_358_141)">
<rect x="85" y="81" width="68" height="68" rx="34" fill="white"/>
<path fill-rule="evenodd" clip-rule="evenodd" d="M74.4482 78.6553H163.552V154.862H74.4482V78.6553Z" fill="white"/>
<path fill-rule="evenodd" clip-rule="evenodd" d="M133.841 78.6553H163.552V154.862H133.841V78.6553ZM74.4482 78.6553H104.145V154.862H74.4482V78.6553Z" fill="#008753"/>
</g>
</g>
<g filter="url(#filter4_bd_358_141)">
<g clip-path="url(#clip4_358_141)">
<rect x="173" y="31" width="84" height="84" rx="42" fill="white"/>
<path d="M162.522 17.0659H267.901V122.445H162.522V17.0659Z" fill="#006B3F"/>
<path d="M162.522 17.0659H267.901V87.3184H162.522V17.0659Z" fill="#FCD116"/>
<path d="M162.541 15.9385H267.92V51.5024H162.541V15.9385Z" fill="#CE1126"/>
<path d="M214.529 56.9736L224.684 84.3305L198.105 67.4205H230.933L204.374 84.3305L214.529 56.9736Z" fill="black"/>
</g>
</g>
<g filter="url(#filter5_bd_358_141)">
<g clip-path="url(#clip5_358_141)">
<rect x="355" y="144" width="50" height="50" rx="25" fill="white"/>
<path fill-rule="evenodd" clip-rule="evenodd" d="M345.451 143.519H414.483V195.293H345.451V143.519Z" fill="white"/>
<path fill-rule="evenodd" clip-rule="evenodd" d="M345.451 143.519H368.458V195.293H345.451V143.519Z" fill="#00267F"/>
<path fill-rule="evenodd" clip-rule="evenodd" d="M391.476 143.519H414.483V195.293H391.476V143.519Z" fill="#F31830"/>
</g>
</g>
<g filter="url(#filter6_bd_358_141)">
<g clip-path="url(#clip6_358_141)">
<rect x="277" y="79" width="68" height="68" rx="34" fill="white"/>
<path d="M268.518 67.7197H353.825V153.026H268.518V67.7197Z" fill="#006B3F"/>
<path d="M268.518 67.7197H353.825V124.591H268.518V67.7197Z" fill="#FCD116"/>
<path d="M268.534 66.8071H353.84V95.597H268.534V66.8071Z" fill="#CE1126"/>
<path d="M310.619 100.026L318.84 122.172L297.323 108.483H323.899L302.398 122.172L310.619 100.026Z" fill="black"/>
<path fill-rule="evenodd" clip-rule="evenodd" d="M255.193 79H399.115V85.135H255.193V79ZM255.193 91.27H399.115V97.4051H255.193V91.27ZM255.193 103.525H399.115V109.675H255.193V103.525ZM255.193 115.795H399.115V121.93H255.193V115.795ZM255.193 128.065H399.115V134.2H255.193V128.065ZM255.193 140.319H399.115V146.454H255.193V140.319ZM255.193 152.589H399.115V158.724H255.193V152.589Z" fill="#BD3D44"/>
<path fill-rule="evenodd" clip-rule="evenodd" d="M255.193 85.1353H399.115V91.2703H255.193V85.1353ZM255.193 97.4053H399.115V103.525H255.193V97.4053ZM255.193 109.66H399.115V115.795H255.193V109.66ZM255.193 121.93H399.115V128.065H255.193V121.93ZM255.193 134.2H399.115V140.335H255.193V134.2ZM255.193 146.454H399.115V152.589H255.193V146.454Z" fill="white"/>
<path fill-rule="evenodd" clip-rule="evenodd" d="M255.193 79H312.759V121.93H255.193V79Z" fill="#192F5D"/>
<path fill-rule="evenodd" clip-rule="evenodd" d="M259.987 80.8379L260.519 82.5351H262.206L260.845 83.5784L261.363 85.2912L259.987 84.2324L258.626 85.2757L259.143 83.5784L257.768 82.5351H259.484L259.987 80.8379ZM269.588 80.8379L270.106 82.5351H271.808L270.432 83.5784L270.95 85.2912L269.588 84.2324L268.213 85.2757L268.73 83.5784L267.369 82.5351H269.056L269.588 80.8379ZM279.175 80.8379L279.708 82.5351H281.38L280.019 83.5784L280.536 85.2912L279.161 84.2324L277.799 85.2757L278.317 83.5784L276.941 82.5351H278.643L279.175 80.8379ZM288.777 80.8379L289.295 82.5351H290.996L289.62 83.5784L290.153 85.2912L288.777 84.2324L287.401 85.2757L287.934 83.5784L286.558 82.5351H288.244L288.777 80.8379ZM298.364 80.8379L298.897 82.5351H300.583L299.222 83.5784L299.74 85.2912L298.364 84.2324L297.003 85.2757L297.521 83.5784L296.16 82.5351H297.846L298.364 80.8379ZM307.966 80.8379L308.483 82.5351H310.185L308.809 83.5784L309.342 85.2912L307.966 84.2324L306.59 85.2757L307.122 83.5784L305.746 82.5351H307.448L307.966 80.8379ZM264.795 85.1355L265.313 86.8328H267.014L265.638 87.876L266.141 89.5733L264.81 88.53L263.434 89.5733L263.922 87.876L262.591 86.8328H264.277L264.795 85.1355ZM274.382 85.1355L274.915 86.8328H276.601L275.225 87.876L275.758 89.5733L274.382 88.53L273.006 89.5733L273.539 87.876L272.163 86.8328H273.864L274.382 85.1355ZM283.984 85.1355L284.501 86.8328H286.203L284.827 87.876L285.345 89.5733L283.984 88.53L282.608 89.5733L283.126 87.876L281.764 86.8328H283.451L283.984 85.1355ZM293.571 85.1355L294.103 86.8328H295.79L294.414 87.876L294.946 89.5733L293.571 88.53L292.209 89.5733L292.727 87.876L291.351 86.8328H293.068L293.571 85.1355ZM303.172 85.1355L303.69 86.8328H305.391L304.016 87.876L304.533 89.5733L303.172 88.53L301.796 89.5733L302.314 87.876L300.953 86.8328H302.64L303.172 85.1355ZM259.987 89.4176L260.519 91.146H262.206L260.845 92.1892L261.363 93.8865L259.987 92.8277L258.626 93.8865L259.143 92.1737L257.768 91.1304H259.484L259.987 89.4176ZM269.588 89.4176L270.106 91.1304H271.808L270.432 92.1737L270.95 93.8709L269.588 92.8121L268.213 93.8709L268.73 92.1581L267.369 91.1148H269.056L269.588 89.4176ZM279.175 89.4176L279.708 91.1304H281.38L280.019 92.1737L280.536 93.8709L279.161 92.8121L277.799 93.8709L278.317 92.1581L276.941 91.1148H278.643L279.175 89.4176ZM288.777 89.4176L289.295 91.1304H290.996L289.62 92.1737L290.153 93.8709L288.777 92.8121L287.401 93.8709L287.934 92.1581L286.558 91.1148H288.244L288.777 89.4176ZM298.364 89.4176L298.897 91.1304H300.583L299.222 92.1737L299.74 93.8709L298.364 92.8121L297.003 93.8709L297.521 92.1581L296.16 91.1148H297.846L298.364 89.4176ZM307.966 89.4176L308.483 91.1304H310.185L308.809 92.1737L309.342 93.8709L307.966 92.8121L306.59 93.8709L307.122 92.1581L305.746 91.1148H307.448L307.966 89.4176ZM264.795 93.7152L265.313 95.4125H267.014L265.638 96.4557L266.156 98.1685L264.795 97.1097L263.419 98.153L263.937 96.4557L262.576 95.4125H264.262L264.795 93.7152ZM274.382 93.7152L274.915 95.4125H276.601L275.225 96.4557L275.758 98.1685L274.382 97.1097L273.006 98.153L273.539 96.4557L272.163 95.4125H273.864L274.382 93.7152ZM283.984 93.7152L284.501 95.4125H286.203L284.827 96.4557L285.345 98.1685L283.984 97.1097L282.608 98.153L283.126 96.4557L281.764 95.4125H283.451L283.984 93.7152ZM293.571 93.7152L294.103 95.4125H295.79L294.429 96.4557L294.946 98.1685L293.571 97.1097L292.209 98.153L292.727 96.4557L291.351 95.4125H293.068L293.571 93.7152ZM303.172 93.7152L303.69 95.4125H305.391L304.016 96.4557L304.533 98.1685L303.172 97.1097L301.796 98.153L302.314 96.4557L300.953 95.4125H302.64L303.172 93.7152ZM259.987 98.0128L260.519 99.7101H262.206L260.845 100.753L261.363 102.466L259.987 101.407L258.626 102.451L259.143 100.753L257.768 99.7101H259.484L259.987 98.0128ZM269.588 98.0128L270.106 99.7101H271.808L270.432 100.753L270.95 102.451L269.588 101.407L268.213 102.451L268.73 100.753L267.369 99.7101H269.056L269.588 98.0128ZM279.175 98.0128L279.708 99.7101H281.38L280.019 100.753L280.536 102.466L279.161 101.407L277.799 102.451L278.317 100.753L276.941 99.7101H278.643L279.175 98.0128ZM288.777 98.0128L289.295 99.7101H290.996L289.62 100.753L290.153 102.466L288.777 101.407L287.401 102.451L287.934 100.753L286.558 99.7101H288.244L288.777 98.0128ZM298.364 98.0128L298.897 99.7101H300.583L299.222 100.753L299.74 102.466L298.364 101.407L297.003 102.451L297.521 100.753L296.16 99.7101H297.846L298.364 98.0128ZM307.966 98.0128L308.483 99.7101H310.185L308.809 100.753L309.342 102.466L307.966 101.407L306.59 102.451L307.122 100.753L305.746 99.7101H307.448L307.966 98.0128ZM264.795 102.31L265.313 104.008H267.014L265.638 105.051L266.156 106.748L264.795 105.689L263.419 106.748L263.937 105.035L262.576 103.992H264.262L264.795 102.31ZM274.382 102.31L274.915 104.008H276.601L275.225 105.051L275.758 106.748L274.382 105.689L273.006 106.748L273.539 105.035L272.163 103.992H273.864L274.382 102.31ZM283.984 102.31L284.501 104.008H286.203L284.827 105.051L285.345 106.748L283.984 105.689L282.608 106.748L283.126 105.035L281.764 103.992H283.451L283.984 102.31ZM293.571 102.31L294.103 104.008H295.79L294.429 105.051L294.946 106.748L293.571 105.689L292.209 106.748L292.727 105.035L291.351 103.992H293.068L293.571 102.31ZM303.172 102.31L303.69 104.008H305.391L304.016 105.051L304.533 106.748L303.172 105.689L301.796 106.748L302.314 105.035L300.953 103.992H302.64L303.172 102.31ZM259.987 106.593L260.519 108.305H262.206L260.845 109.349L261.363 111.03L259.987 109.987L258.626 111.03L259.143 109.333L257.768 108.29H259.484L259.987 106.593ZM269.588 106.593L270.106 108.305H271.808L270.432 109.349L270.964 111.03L269.588 109.987L268.213 111.03L268.745 109.333L267.369 108.29H269.056L269.588 106.593ZM279.175 106.593L279.708 108.305H281.38L280.019 109.349L280.536 111.03L279.161 109.987L277.799 111.03L278.317 109.333L276.941 108.29H278.643L279.175 106.593ZM288.777 106.593L289.295 108.305H290.996L289.62 109.349L290.153 111.03L288.777 109.987L287.401 111.03L287.934 109.333L286.558 108.29H288.244L288.777 106.593ZM298.364 106.593L298.897 108.305H300.583L299.222 109.349L299.74 111.03L298.364 109.987L297.003 111.03L297.521 109.333L296.16 108.29H297.846L298.364 106.593ZM307.966 106.593L308.483 108.305H310.185L308.809 109.349L309.342 111.03L307.966 109.987L306.59 111.03L307.122 109.333L305.746 108.29H307.448L307.966 106.593ZM264.795 110.89L265.313 112.587H267.014L265.638 113.631L266.156 115.343L264.795 114.285L263.419 115.328L263.937 113.631L262.576 112.587H264.262L264.795 110.89ZM274.382 110.89L274.915 112.587H276.601L275.225 113.631L275.758 115.343L274.382 114.285L273.006 115.328L273.539 113.631L272.163 112.587H273.864L274.382 110.89ZM283.984 110.89L284.501 112.587H286.203L284.827 113.631L285.345 115.343L283.984 114.285L282.608 115.328L283.126 113.631L281.764 112.587H283.451L283.984 110.89ZM293.571 110.89L294.103 112.587H295.79L294.429 113.631L294.946 115.343L293.571 114.285L292.209 115.328L292.727 113.631L291.351 112.587H293.068L293.571 110.89ZM303.172 110.89L303.69 112.587H305.391L304.016 113.631L304.533 115.343L303.172 114.285L301.796 115.328L302.314 113.631L300.953 112.587H302.64L303.172 110.89ZM259.987 115.188L260.519 116.885H262.206L260.845 117.928L261.363 119.626L259.987 118.582L258.626 119.626L259.143 117.913L257.768 116.869H259.484L259.987 115.188ZM269.588 115.188L270.106 116.885H271.808L270.432 117.928L270.964 119.626L269.588 118.582L268.213 119.626L268.745 117.913L267.369 116.869H269.056L269.588 115.188ZM279.175 115.188L279.708 116.885H281.38L280.048 117.928L280.566 119.626L279.19 118.582L277.829 119.626L278.347 117.913L276.971 116.869H278.672L279.175 115.188ZM288.777 115.188L289.295 116.885H290.996L289.62 117.928L290.153 119.626L288.777 118.582L287.401 119.626L287.934 117.913L286.558 116.869H288.244L288.777 115.188ZM298.364 115.188L298.897 116.885H300.583L299.222 117.928L299.74 119.626L298.364 118.582L297.003 119.626L297.521 117.913L296.16 116.869H297.846L298.364 115.188ZM307.966 115.188L308.483 116.885H310.185L308.809 117.928L309.342 119.626L307.966 118.582L306.59 119.626L307.122 117.913L305.746 116.869H307.448L307.966 115.188Z" fill="white"/>
</g>
</g>
</g>
<defs>
<filter id="filter0_d_358_141" x="-26" y="142" width="479" height="487" filterUnits="userSpaceOnUse" color-interpolation-filters="sRGB">
<feFlood flood-opacity="0" result="BackgroundImageFix"/>
<feColorMatrix in="SourceAlpha" type="matrix" values="0 0 0 0 0 0 0 0 0 0 0 0 0 0 0 0 0 0 127 0" result="hardAlpha"/>
<feOffset dy="4"/>
<feGaussianBlur stdDeviation="10"/>
<feComposite in2="hardAlpha" operator="out"/>
<feColorMatrix type="matrix" values="0 0 0 0 0 0 0 0 0 0 0 0 0 0 0 0 0 0 0.25 0"/>
<feBlend mode="normal" in2="BackgroundImageFix" result="effect1_dropShadow_358_141"/>
<feBlend mode="normal" in="SourceGraphic" in2="effect1_dropShadow_358_141" result="shape"/>
</filter>
<filter id="filter1_d_358_141" x="-22.1582" y="142.216" width="472.792" height="473.898" filterUnits="userSpaceOnUse" color-interpolation-filters="sRGB">
<feFlood flood-opacity="0" result="BackgroundImageFix"/>
<feColorMatrix in="SourceAlpha" type="matrix" values="0 0 0 0 0 0 0 0 0 0 0 0 0 0 0 0 0 0 127 0" result="hardAlpha"/>
<feOffset/>
<feGaussianBlur stdDeviation="15"/>
<feComposite in2="hardAlpha" operator="out"/>
<feColorMatrix type="matrix" values="0 0 0 0 0 0 0 0 0 0 0 0 0 0 0 0 0 0 0.25 0"/>
<feBlend mode="normal" in2="BackgroundImageFix" result="effect1_dropShadow_358_141"/>
<feBlend mode="normal" in="SourceGraphic" in2="effect1_dropShadow_358_141" result="shape"/>
</filter>
<filter id="filter2_bd_358_141" x="-75" y="44" width="250" height="250" filterUnits="userSpaceOnUse" color-interpolation-filters="sRGB">
<feFlood flood-opacity="0" result="BackgroundImageFix"/>
<feGaussianBlur in="BackgroundImageFix" stdDeviation="50"/>
<feComposite in2="SourceAlpha" operator="in" result="effect1_backgroundBlur_358_141"/>
<feColorMatrix in="SourceAlpha" type="matrix" values="0 0 0 0 0 0 0 0 0 0 0 0 0 0 0 0 0 0 127 0" result="hardAlpha"/>
<feMorphology radius="5" operator="dilate" in="SourceAlpha" result="effect2_dropShadow_358_141"/>
<feOffset dy="10"/>
<feGaussianBlur stdDeviation="25"/>
<feComposite in2="hardAlpha" operator="out"/>
<feColorMatrix type="matrix" values="0 0 0 0 0.0823529 0 0 0 0 0.0156863 0 0 0 0 0.145098 0 0 0 0.52 0"/>
<feBlend mode="normal" in2="effect1_backgroundBlur_358_141" result="effect2_dropShadow_358_141"/>
<feBlend mode="normal" in="SourceGraphic" in2="effect2_dropShadow_358_141" result="shape"/>
</filter>
<filter id="filter3_bd_358_141" x="-15" y="-19" width="268" height="268" filterUnits="userSpaceOnUse" color-interpolation-filters="sRGB">
<feFlood flood-opacity="0" result="BackgroundImageFix"/>
<feGaussianBlur in="BackgroundImageFix" stdDeviation="50"/>
<feComposite in2="SourceAlpha" operator="in" result="effect1_backgroundBlur_358_141"/>
<feColorMatrix in="SourceAlpha" type="matrix" values="0 0 0 0 0 0 0 0 0 0 0 0 0 0 0 0 0 0 127 0" result="hardAlpha"/>
<feMorphology radius="5" operator="dilate" in="SourceAlpha" result="effect2_dropShadow_358_141"/>
<feOffset dy="10"/>
<feGaussianBlur stdDeviation="25"/>
<feComposite in2="hardAlpha" operator="out"/>
<feColorMatrix type="matrix" values="0 0 0 0 0.0823529 0 0 0 0 0.0156863 0 0 0 0 0.145098 0 0 0 0.52 0"/>
<feBlend mode="normal" in2="effect1_backgroundBlur_358_141" result="effect2_dropShadow_358_141"/>
<feBlend mode="normal" in="SourceGraphic" in2="effect2_dropShadow_358_141" result="shape"/>
</filter>
<filter id="filter4_bd_358_141" x="73" y="-69" width="284" height="284" filterUnits="userSpaceOnUse" color-interpolation-filters="sRGB">
<feFlood flood-opacity="0" result="BackgroundImageFix"/>
<feGaussianBlur in="BackgroundImageFix" stdDeviation="50"/>
<feComposite in2="SourceAlpha" operator="in" result="effect1_backgroundBlur_358_141"/>
<feColorMatrix in="SourceAlpha" type="matrix" values="0 0 0 0 0 0 0 0 0 0 0 0 0 0 0 0 0 0 127 0" result="hardAlpha"/>
<feMorphology radius="5" operator="dilate" in="SourceAlpha" result="effect2_dropShadow_358_141"/>
<feOffset dy="10"/>
<feGaussianBlur stdDeviation="25"/>
<feComposite in2="hardAlpha" operator="out"/>
<feColorMatrix type="matrix" values="0 0 0 0 0.0823529 0 0 0 0 0.0156863 0 0 0 0 0.145098 0 0 0 0.52 0"/>
<feBlend mode="normal" in2="effect1_backgroundBlur_358_141" result="effect2_dropShadow_358_141"/>
<feBlend mode="normal" in="SourceGraphic" in2="effect2_dropShadow_358_141" result="shape"/>
</filter>
<filter id="filter5_bd_358_141" x="255" y="44" width="250" height="250" filterUnits="userSpaceOnUse" color-interpolation-filters="sRGB">
<feFlood flood-opacity="0" result="BackgroundImageFix"/>
<feGaussianBlur in="BackgroundImageFix" stdDeviation="50"/>
<feComposite in2="SourceAlpha" operator="in" result="effect1_backgroundBlur_358_141"/>
<feColorMatrix in="SourceAlpha" type="matrix" values="0 0 0 0 0 0 0 0 0 0 0 0 0 0 0 0 0 0 127 0" result="hardAlpha"/>
<feMorphology radius="5" operator="dilate" in="SourceAlpha" result="effect2_dropShadow_358_141"/>
<feOffset dy="10"/>
<feGaussianBlur stdDeviation="25"/>
<feComposite in2="hardAlpha" operator="out"/>
<feColorMatrix type="matrix" values="0 0 0 0 0.0823529 0 0 0 0 0.0156863 0 0 0 0 0.145098 0 0 0 0.52 0"/>
<feBlend mode="normal" in2="effect1_backgroundBlur_358_141" result="effect2_dropShadow_358_141"/>
<feBlend mode="normal" in="SourceGraphic" in2="effect2_dropShadow_358_141" result="shape"/>
</filter>
<filter id="filter6_bd_358_141" x="177" y="-21" width="268" height="268" filterUnits="userSpaceOnUse" color-interpolation-filters="sRGB">
<feFlood flood-opacity="0" result="BackgroundImageFix"/>
<feGaussianBlur in="BackgroundImageFix" stdDeviation="50"/>
<feComposite in2="SourceAlpha" operator="in" result="effect1_backgroundBlur_358_141"/>
<feColorMatrix in="SourceAlpha" type="matrix" values="0 0 0 0 0 0 0 0 0 0 0 0 0 0 0 0 0 0 127 0" result="hardAlpha"/>
<feMorphology radius="5" operator="dilate" in="SourceAlpha" result="effect2_dropShadow_358_141"/>
<feOffset dy="10"/>
<feGaussianBlur stdDeviation="25"/>
<feComposite in2="hardAlpha" operator="out"/>
<feColorMatrix type="matrix" values="0 0 0 0 0.0823529 0 0 0 0 0.0156863 0 0 0 0 0.145098 0 0 0 0.52 0"/>
<feBlend mode="normal" in2="effect1_backgroundBlur_358_141" result="effect2_dropShadow_358_141"/>
<feBlend mode="normal" in="SourceGraphic" in2="effect2_dropShadow_358_141" result="shape"/>
</filter>
<radialGradient id="paint0_radial_358_141" cx="0" cy="0" r="1" gradientUnits="userSpaceOnUse" gradientTransform="translate(214.238 379.165) rotate(90) scale(206.949 206.396)">
<stop stop-color="#9B93E4"/>
<stop offset="1" stop-color="#5044BC"/>
</radialGradient>
<radialGradient id="paint1_radial_358_141" cx="0" cy="0" r="1" gradientUnits="userSpaceOnUse" gradientTransform="translate(1691.76 -96.9581) scale(7082.34 2868.96)">
<stop stop-color="white" stop-opacity="0.81"/>
<stop offset="1" stop-color="white" stop-opacity="0.38"/>
</radialGradient>
<radialGradient id="paint2_radial_358_141" cx="0" cy="0" r="1" gradientUnits="userSpaceOnUse" gradientTransform="translate(822.855 144.102) scale(2820.31 262.479)">
<stop stop-color="white" stop-opacity="0.81"/>
<stop offset="1" stop-color="white" stop-opacity="0.38"/>
</radialGradient>
<radialGradient id="paint3_radial_358_141" cx="0" cy="0" r="1" gradientUnits="userSpaceOnUse" gradientTransform="translate(364.114 193.756) scale(452.668 184.919)">
<stop stop-color="white" stop-opacity="0.81"/>
<stop offset="1" stop-color="white" stop-opacity="0.38"/>
</radialGradient>
<radialGradient id="paint4_radial_358_141" cx="0" cy="0" r="1" gradientUnits="userSpaceOnUse" gradientTransform="translate(566.42 439.829) scale(1273.76 345.063)">
<stop stop-color="white" stop-opacity="0.81"/>
<stop offset="1" stop-color="white" stop-opacity="0.38"/>
</radialGradient>
<radialGradient id="paint5_radial_358_141" cx="0" cy="0" r="1" gradientUnits="userSpaceOnUse" gradientTransform="translate(563.875 26.7829) scale(2590.54 2176.89)">
<stop stop-color="white" stop-opacity="0.81"/>
<stop offset="1" stop-color="white" stop-opacity="0.38"/>
</radialGradient>
<radialGradient id="paint6_radial_358_141" cx="0" cy="0" r="1" gradientUnits="userSpaceOnUse" gradientTransform="translate(772.948 131.955) scale(3188.35 384.411)">
<stop stop-color="white" stop-opacity="0.81"/>
<stop offset="1" stop-color="white" stop-opacity="0.38"/>
</radialGradient>
<radialGradient id="paint7_radial_358_141" cx="0" cy="0" r="1" gradientUnits="userSpaceOnUse" gradientTransform="translate(519.905 525.535) scale(1949.16 262.677)">
<stop stop-color="white" stop-opacity="0.81"/>
<stop offset="1" stop-color="white" stop-opacity="0.38"/>
</radialGradient>
<clipPath id="clip0_358_141">
<rect width="430" height="611" fill="white"/>
</clipPath>
<clipPath id="clip1_358_141">
<rect width="439" height="447" fill="white" transform="translate(-6 158)"/>
</clipPath>
<clipPath id="clip2_358_141">
<rect x="25" y="144" width="50" height="50" rx="25" fill="white"/>
</clipPath>
<clipPath id="clip3_358_141">
<rect x="85" y="81" width="68" height="68" rx="34" fill="white"/>
</clipPath>
<clipPath id="clip4_358_141">
<rect x="173" y="31" width="84" height="84" rx="42" fill="white"/>
</clipPath>
<clipPath id="clip5_358_141">
<rect x="355" y="144" width="50" height="50" rx="25" fill="white"/>
</clipPath>
<clipPath id="clip6_358_141">
<rect x="277" y="79" width="68" height="68" rx="34" fill="white"/>
</clipPath>
</defs>
</svg>
